<mxfile host="app.diagrams.net" modified="2020-12-01T20:12:05.296Z" agent="5.0 (Windows NT 10.0; Win64; x64) AppleWebKit/537.36 (KHTML, like Gecko) Chrome/86.0.4240.111 Safari/537.36" etag="-XDvSeSbENto4dyZwoU2" version="13.6.4" type="github">
  <diagram id="_gN8gm0CZKEFxJGRuzZy" name="Page-1">
    <mxGraphModel dx="723" dy="375" grid="1" gridSize="10" guides="1" tooltips="1" connect="1" arrows="1" fold="1" page="1" pageScale="1" pageWidth="827" pageHeight="1169" math="0" shadow="0">
      <root>
        <mxCell id="0" />
        <mxCell id="1" parent="0" />
        <mxCell id="RLmKsljwDSlcrX09kRqv-3" value="&lt;br&gt;&lt;br&gt;&lt;font color=&quot;#007fff&quot;&gt;&lt;b style=&quot;font-family: &amp;#34;helvetica&amp;#34; ; font-size: 12px ; font-style: normal ; letter-spacing: normal ; text-align: center ; text-indent: 0px ; text-transform: none ; word-spacing: 0px ; background-color: rgb(248 , 249 , 250)&quot;&gt;&lt;font face=&quot;Georgia&quot; style=&quot;font-size: 14px&quot;&gt;BASE DE DATOS&lt;/font&gt;&lt;/b&gt;&lt;br&gt;&lt;/font&gt;" style="text;html=1;strokeColor=none;fillColor=none;align=center;verticalAlign=middle;whiteSpace=wrap;rounded=0;" vertex="1" parent="1">
          <mxGeometry x="90" y="206.18" width="140" height="40" as="geometry" />
        </mxCell>
        <mxCell id="RLmKsljwDSlcrX09kRqv-6" value="" style="shape=image;verticalLabelPosition=bottom;labelBackgroundColor=#ffffff;verticalAlign=top;aspect=fixed;imageAspect=0;image=data:image/png,iVBORw0KGgoAAAANSUhEUgAAAF8AAAB1CAYAAAAoez2lAAAgAElEQVR4Ae2dh1McWZrt9We8iBfb3bvv7W6rp8fuzuzM7Bu7Mz3T8nhJDfLeO+S9l5BFDhlA2HJ4770t76AM3gkQtAzywpwX3715iwIhO+pqYne644ssCgFVvzx57rnfzcyagr//970RmPK9/eW//2H8Hf53KoIRAMOv/Qt/h/9aNO/7DQINjIyMYFj6fwiDGMHQa3/R3+G/Fs3f/o1BAC9H+E6Z6Lf9Hf5EVD74uWEMjgzg6eNOPHrQjufPBzD0P8V2SGNMaCPDwDAVPUGbEWYH9L1h9jU9PSQV+6nX4ha6HRkZwvPBh3j6rBuPBprxsN+Cu3cq0dOah7Z6BTqMN1BfcRjG0r2wVpyAQ38TAw9aX/t76Rv/rZQ/ghEMjwxx8LSRDnkBcCIS5NCDeIrnL/vx5FErHt6zore3Br0dRWirT0S7ORrOmnNwVh2GtXgrzLlroEtdAGPyXBhUXtArvVEbOwPa2K9hTguCs/IAWjTn0Wq+hSeP2if6k67n/lvBp3clQA+PvMSLoWd4/PQenjzpw7f37Ojv16K7rRgdDaloqbsNp/Yy7FWnYCndBWPBRmgzlkKbtgi1SfOhTfCFRj4TGsV0aGUzYJDNglHuA4PMF2a5DyxyH+jjvFETHwBT9lo01J5CpzEcbZpbaKwKRYspAo8fdLlAT/TgI8On43yIE2CqYwc8A+I6uOl5VhwVKY8UK6BN9CLHPDdCf2EIz54P4OmTPtz7thH3+urQ2VKBO83ZaNJHoEkfhrqq06grPQhTfjB0WWuhSV0ETfI86BJ9oVF6Qa30gVY+Gwb5DOjlXjDIfaFX+EIv84VJFgCDLABGRQAMKj8YFXNhls+FWeEDo8obOpk3NDJ/WDPXoa3yHLr0kWjXXEdr1XW0V4WhpfoyOuqUePywc8xLH//FR4NPEUvU8AiFLe6phFay3vF/2/U1oadYNjj8DM+e3cejgW7c621CX5cZd5pL0eZMh80YhUZDOMxlp2GpOARtzhboM9eiNjUImpR50CX4Qif3gl7hDa3cCzqFD3SkToUvdApfGBX+DCYB5TWXQTUq58GonCsVPXavubDI58Ei/wYWhQ/0ch/Uyv1gyliL1prT6DbfRKcuEq0119Faew2ttVfRXHMZzZVX0OPMwuPHHa73ONGDjwpf/AGXytkUYwTPh57i+fP7GBi4g3v9Tejp1KG7rRQt9nQ4TDLYNLdgrjwDY8ke6LLXw5CxHNWpC1GbHAhdgj+0Sm+mVr1yNgzKWdAp58Cg9IaB4Cr9oFf6w6j0g0nuD5M8ACZFAMyK0a1ZORcmF2AB+u1bkzIAFjoa5HOgls+BJXM92mrO4I4lHG0EvfoWWmuvo7UmDC01V6W6wuDfbcz2HHwC/3LwEVpbNXBYUuHQxcJaeQ2mslPQFO6BOmszatJWoiptIaoT50KT4IuaRC9Uq2ZDpyCYc9gAZmCACbIXDEyxpFRSLR3+XL0mhR9MSl+YlGQDfjCqfGFQeXOLUM4fp153JU/82DRO7WJH6WX+qKUdmrEK7TUh6LZEotMYg3Z1ONpqw9CmDkNr7RW01txES/U1tFRfRUs1wb8Mj8EnC7/3bSvSYtegTOmPGoUP91SVD3QERunHlanyg0kVAFIUqdOgmMvKKCcLmAcDlXI+q7F2QCodBWdSzAcBcy8jg/7+4On3Wpinf8OPGJUvtDIvVMf7wJS+Ds3qk+ixRKLLEIVW9S20asLRpr7J4JPNcLsJQ3vVZakuoaXyMno9qfyKwivIifw96jP8GVzmq3J/GAiyUtTbD/VR//Xkv/WHmawrfhY08b4wZ6xHmzoEvfW3cccUjTYCrrnhqlb1DbQy1ZPP82qruoy2aqrvAX5x5lFUyf4Cg4qgzYdJMY8VKcvgVu4KngyPyWJo7KiVecGUvhJttSG4WxeDHlMs2rW30K6NQLvuOto0N7ny1bS9yb2+9hrz+eaaq2Dwmfq/B/ilmQdQK58OYwKpfK4L+GQAPNFrMCvmQS/3Q3W8L/QZq9Baexp99bHossSgTXcbHdpIdGpvol17HW3aa1z16htoU1OyuY62mmtoJ+jVV9BWdYVZTlvlJbRVhqK54hJ6G7Lw+JGH0k55xmGoZbNhSiDlU/rwpG2839+i9KOO84E6eQma1EfQY4tAtzUWHZTXdbfQrqM0I5WGVC+VWgyy19BWcxUd1RJ0spyqy2itvISWiotoLg9FT0Om5+BXEHz5bBjZgDqJ4SsCoI7zhj5zNXockei1xaBDH4V2fTja9Rw8wed1ywWePJ7SDU8419DqZjUcfChaK0PRUnEBTWXfC/xZMKooUweMSScTHfaef056TYoAaJRB6LZeR4c1Fl3acHQSeMMNCf5ttOsiuNdrBfwwNsBy+Hwy1VbDVd9eeRlkN60VF1m1lJ9HU9lFzyq/PO0Q1PLpMCVQJCQbGI2Gk+Kxypu9Jl2cF+rytqPPLkO7/iY6DLeY3XDLCUeHLoIV9WhokKW2ARVXPEXLK2ipuYTWah4tOXhS/QW0VJxHc/lZNJWfRy+zHQ+1FyrSyXamuymflDaJSuXLXo8ufjZaKg6hpy7WBZ9bjmQ7LOFQoqE4SQPsqNW01BD4y7yqL6G1ipINWc1FtFSeR3PleTRVnEVj2Tn0ODPw+JGn4DPPJ/g0+ZmEymdC8IMufibaKo+jpy5mFL7L4yPQxqzmFo+TE8GvluBXkdWEoqX8Iq+K8y7lE/zu/+nwxfxCr5gLo9yXtYM1MXPQVHkEd+pj0K69gQ7dTVe1aXmUpDjJi1RPVkN9G2kSxVJNKPd4yWq43ZxDc/k5NJWdQUPpWab8J4891FIuT+eePzrgvl/8+y6iKc2s9coA6BT+0MX7QB3jjYqIWWioPIyu+hh0jIcvebuwGr4VPn+Z+XwbWQ0pnlnNBTSTz1ecRxOBLyfLCYGj5Ixn4Rcl7YVGMUMacMnrvz/4rKWhCIBW5seqNtYLNTFeKIuYhZzLf2Z9/ju2WHRoR1VPRwDL824e72oRSz5POX7Uai4wpZPaqRrLzqKx9AwaSk7DURyCbme65zy/MGkPNIqZMKmoueV5z6emHDXnqElnkM+FTh6A2lgfVEZ7oTRiNgpvzETm5b8i7uTvYCg8gG4btx2yHprFskSjIZu5xoq3iK+gjSWbULRUSVZDii+/wIqBLzuHZgY+BI0lIWgoOQVH8Wl0O9M8N8kqTNoFDZtkUcfRk6rnkZapXRYAfaw/amN8UBnlhZJbs5FzbQZSLn0NZcifEXn49ziz7Reozd6HblusawJFvi6KtYilOEk+314diraqi64oSf4uins8WQ0p/hQaSk6yshefRLczFY8fe2gNtyh5N9SyWaynwydZntkBwmL0cn9o431RE+WF0nAv5F6bhbQL0yE7+WeEH/wtLu/6NU5v+hV2L/khKtN2occeywdV5vMcvgDPszylGoqTF9FadcEVJSlONlecQ1PFOTQyjz/Lts7SU3CWnoSj5ARsRSdwx5GCR4/axPrShNuPtpJVlLzLDb7nJli0JqAnf4/3Q3U0qX0GMi5Ng+LkV4g48Adc2fGfCNn0Cxxc/TPsWPTv2OD3OUqTg9HreDP85urLaK7mkycxgXJXPFf9GZZumpjXk/JPwVl8AvbCkxJ8D506UpC0DbWymWxlaezK0He7I0yUZOS+qIn1RknEbKSH/hXxx/+Ma7t+h9Mbf4mDq/4NO5f8GJsDf4h1/j/F0ln/iKLErbhrj0Z77RUpSl7hK1IuuwlFU9UFVgI4bZnHSwMsm8mWhaCx9DSD3lh0ErxOwJl/Er22JAwMNE+oePHkR1P+WPiem9malH7QyWhgnY3c6zOgDPkKYbt/i5Pr/gN7l/4UW4O+xPq5U7HKfypW+HyJBTM+QWHSVty1Rb0TfGYzzGpEnKRISZZzBg1l3GqcJSfRWHwCjUUn0FB0DM78E+i1JWJgoElwnnD70eAXJgcz26E1VU8qn9Z2tQQ/ahYyr0xDzLG/4NyW/8S+JT/D5vk/wlq/L7DC9wdY7jcVy3x/gMAZnyA/aStbpaLm2EQ+31ITisaqC2isnGhwpQFWxEqymZOsSPUNhSfgKDgKR+5x9NQTfA8qn6WdBA/DlwVAE++NituzkXHpa4Qf+j1ObPgPbF/4E6xlav9XLPP9Akt9p2KZz1QsmPEpigi+LZINqG21l9Fac4k9JugtVdSnucD6NGwC5bIZUvwZlmxYuikNcYGnHUDgqZwFx+DII/gqDDxsnFDx4smPpvyCxK3QKubAyOB7JunQfIJObiL45S74v8GJjf+B7Yt+grUBU7Hch+BPdcFfOOMzFDP4EWiuCUVbLXUoL6K5+iJaaiTwbnGSz1y51TSRx5edZtVQSnn+hKsaCo+DyknKzzuGnnolBh46BecJtx8NPtmOVjlHGnA9D5+Unx76NW4d/A2Or/85ti34Edb4f44Vvp+Pwvf9Agumf4YSCX5TzUW01oSiWRpcaZAlj2cdyopzLFKyWCnNYJtKTqO55BSrRppMlZyEndJNsaT4gmOw5x+BLecouusUePjAMSF08eRHg08DrkZBK1metR2h/HeFv5DgJ5Lnk/IvorU6FM3MZgg89WrOoYXAl591VZPk8QS/qfgUq8biU3AWnYSz6AQrR/4xUNnzjqA+5wju1Mnx8IGHlJ+fuBVqOa1kfT/wme2Efo2IA7/BiXU/R/BrlL9o5j+iOGEzeq3haKm+yGawY+MkQT/jqiayGSlO8lmsNMhKA6zwekce2Q3VEdTlHkKnNR4DDxqEyCfcfjTlj4Xvedt5F/jLfb+AgH+3LoLZDbUOxEIIn7meRVNFCJrKeZG3U1GcFGUvOg5H0XE4mccf4wkn7xAceYdgzzuIutyDDP7D+98L/O92YuW+LCls50PgN1WeH9Oz4ZMornwaXKnGqF2KlfbC43AUHoOz4Dgc+UdhJ8XnH4Qj/wDseftQl3vAw/ATdnDbYafxkfI9swPeBz5FTfL8QtUm9FpvcmupPIvmirNoqXg79Iai43wSVXgEzsIjaCg8DGfBIQbenrcfVLbcvbBm7UOXJQ4DDz2l/ISdbvA9189/X/iUdgh+t+U6mstD0Fx5hlfFGWY1IkpSk0w0yqhZRkWz14aio3AUHIaj4BCcBVztXPHu8Pd6GL5qB28pu5TvGd9/X/ik/ALVRtwxh6G57AyaCHoFH2AJPPN41h4WjTI+g2Uz2aKjcBYehj3/EOz5B5nSRxW/D7bcfajL2QNr5l50WePxyFPthTzVVgbfoKQTZT1jOWRtHwRfuRF3TNdB3UjeFub+ziZRItkUn0IDzVxpYC0+Bif1bJjdSOCZv3O1M7vJ2QNbzh7UZ++GNWMP7lji8chTM9xc5UYOX0XnzRP8Sax8Bj+MRcjG8hA0SLNWd+Xzng1ZzVE0FB2Bs+AwnIWHWNkJ/Hj42btgy9oFW/ZO1Hke/iZpJYtyvmfAv9JeeFvOlwbcAuUG3DFfRWPZKTSWS1YzLlLy1gENsASf7IYGWb4DbDSwssGVWw3ZjS17N+qzdqEucweD303K91TOz1W6w5/stkPwL6Ox7AQaK06ioZSW//gyoFC8o+gEy/JM9YVH2CBLyYYGWVvePl4EPXcvL1J91k7UM/i70W2J8yB81WbWWKOr9ya956s2oMsdftlxNJQeh7PkmKscxUfhKCa1H4Kj4CCzGUf+fjjyCfgeVnby+ezdrOwZ28ErGHXpO9FljsEjT/V28sbAJ9vxzILKBw24EnwC3lB+As7SY6wcpcfgKDkKR8kx2IuPwl5EkfLga+ELqyG7sWUES7UN1vQdnoWfn7CFNdYMrgHXM9bzofA7TZe4yssmUvxR2IqOwMZipTS4SrNXex7ZDE82BL+O+fxO2NKDpdoGa9p2dJqiMeAp5ecmSvCVdEKqZ8C/X9T8Ast8vsDCGZ+iQLkOnYZQNBQfRcM4q3FSsiHo5O2U5QsoTu6DPXcvHLl7YSfwZDVZu2DP3MErY4cLfn3aVlhSgxl8j9nOWPiTMe24w1+LTv1FNFKSKSGr4UVW4yiilgH3eBupvXAfSO3k746cPWzL4e90s5pg1KdvQ33GNtSlbYHZ0/DzkrdBR9fOupTvmR3w7rbzJvjk89xq7AU0ieJWQ/Dr8/fCJsG3S4OrCz5ZjeT19WkEfiusqZthStmGDkMUHt63T9hKFk9+tJZyXtLWcfA9Yz3vAn+571RQO3k5s51PUKhcg079BTQWHUEDDbBFR3hJdmPP3w9RDDzZjSvZ7EJ91k7YMiWrSQuGLS0YdQQ/dSvqUjbDlLwVHcbbeHjfJjhPuP1o8Ml2aA13VPnfP/zVAZ9jpe/nWOEzFSt9aAdMxcIZ/4AixWp0Gs6jgSymmNuMs/Agj5UEnpQuiqwmW/L5nJ2w5exAXdZ21GduZz5PiqeypG+BJXULrEmbYEragk5TJAYe1E0IXTz5HcH3jOW8bYa7KuBzrPD7nEFn8H2mYtHMT1AoX4VO/XkOu4i3DESWZ4OrSDRicJXspj57B+qzt8OaGYy6DO7zzGrI59M2w5yyGZakjTAmbUaHMQIP7lkF5wm33xF8z6j+bWnnFeX7TMXimZ+gQLaSw6eBlcHnWZ5aBhPDp54N2c0O1GW6wRdWk7oVptTNMCdvhiVxI4yJm9FujMD9by0TQhdPfjB8cXsX8YuKUrezu4HQTSgmS9R0h0+WQ+fuLJj1CQoVK9GpDYEzfx8aCg/AUbCPzVx5ht8NW+6u0crZCVI8WQ0bXNODmc0Iu2E+n7oVFgKfvBnmpI0wJG1CmyEC9++ZBJ4Jt38z/GG6aRmAopRgN/iTz3bGw+/QnIYjbx+cBbxlQG0DBj9vN2x5O2HL5UU2Q1WXFcyiJEVKshpR1lTyelL9JlampA0wJG1Emz4c/Xd1E0IXT74TfKHy8dvh4WEMDfGbdhYkb5vUA66Av3DWpyiQr0S7+hSfOEnQxQBry+XKr8/ZASpSPBX5PMvyadtAwHlthSVli6T4TTDTYJu4AfrEjWjV3Xp/+AKw2Du0pec46CEMDY2tFy9fshvJ5SdtYydNTaa0QydNUdoh8HTKoJjh5stXoV19ms1WOfQ9sOdRs2w3bDm7YMvZiTpmNTtQL3I8DbBSsiGrYfBTNsGSvBHm5I0wJW+AKXE9zAnrYFCtZRfbffu+yhfw3bcEXsAfHBzEy5cv8eLFC1ZPnz7D4OAQ8kn57A5Q5PmTw3bGnrHG4S+Y/inyCL7GHf5u2PPI53mU5HEyGHWZ1K/ZJtUofG41m2BO2QBT8npWxuR1MCWuhUW1GkbFKnRowvBO8Am0u8IFbHfgAvrz58/x7NkzPH36FI8fP8bDhwN48uQpchOkljKb4U5++OT5tOzHmmQEPm8nsxkCT2XNCuZWk8HbBsLrrTS4UqRM2QRTynpXGZLWwpiwBiblKhgIvjYM/b1adwN55THz/NfBJ4sh6KRyAk715MkTBv3Bgwf49ttv0df/Le7dv49sxWY35U+OqCmUz/1eUv6MT8FsR3MKthzyd9oBZDW7mNXwLE/wuc+LbiVZTh15PfN4bjeW5PUwJ/EyJq6BMWE1TIqVEvzrb4dP4IXCBWyhcgGdgD969AgDAwMQ0O/evYvu7m503elGT08PMuO3S/Dpll6kfM/sgDe1FyaKmjTgUtRsrT2OepqxMvA7+NqrBJwGV1HC55nVpGyEJWUDzMnrQeCtSethSVwHs2otLAmrYVatgkm5gsPX3ERfj/4Vtbs/MUUMoAI42QoV2YqA/vDhQ9y/fx/9/f0g6AS7q6sL7e3taG1tQ3tHB1Kjt0h3/SP4nllIob/zJvjuM1z3tEPw29THuNKFz7MBlqBvY2XJ2AYqV6RMo0i5EebUDcxq2A4g8AlreTHwKxl8PUtTN3C3+x3giwGUoBNwd+j37t1j0Ht7e7nSu7rQ0dGB1tZWNDU1oaGhkW0TIzZAp6Ku5uRXfgGDf5zDZ/0aGmh3uiIlqZ7Bp0xPzTKprG7KJ7thqpfgm5QEfhR+W+113O1+S84X1iIGUGEt46F3dnZKSm9Fc3MzGhsb4XA4YLPZ4bA7kRC+DrqEWdB7yG6Erb1J+RPZTtDMf0C+bDlaa44x2GQ9IlYS9DoaYKW2wajVbASBt0pWI+yGrEaUUbECvJZDJ1uBdvU19PVq3F3mlcdTBHTydGEvNJAKe7lz5w4E+JaWFkntDRJ4G6zWOtTZHJBHbIY6wRt6D8bM92msCdsh+AXyFWitOcpmrXU0kcoOZo/JcurSt7JiOZ5mrqkbeKVsGAPfmrjOBZ68/lX4V9DXq34FuPsTU0jpBJ0GUqF2AZ58nSymra0NzS3NaGpsRIPTCbvdjvp6O+qobE0wW+sRc3EBaP1WrxJ+75m4+V7K95uKwOn/G3lxS5jns0FV6lIKq6mjFSk2i+UTKRpgLSnr2SBLinepnjK9a5Bd6YJvkC9jyqcL7e5217qzfuXxFAGdxca+PpC3u6udvJ3ZTEMjHM4GWB1OOBuaYLEYUVNVhMLMKCSF70LW5emwJPrDoOJ3FxS28F1v3wR/jdTPX069fKmfHzT9U5zd9Xt0Gc7AWbgTlozNbBZLM1kreXz6VtSnUftgM6w0g2XwecKxJq0DlTmRBlmRbrjXGxXLQWWQL4WObK326tvhk9r7JOgsOroNqONtxmoj+A7kpYch/dYy5N4IRPH12aiJng59IqneB2aWdChmfv/KFzmfLoijVSxaVFlBq1kz/w+OB/8O6sytaK446GqYsYlU+hZY03ikFOBd8TJpLSxJa2BOXAVzAsXKUcUbFctAZZAvgTZ+qQT/LbZD8XF8kmE209w8zt/rUe9oQmVpJsJP/B71OavQow1Fjz4CXfrrsOZuhF7m5THoYue+UfluF8RRb4d8n4p6PPOm/ROW+v0zokLnwll6ABaKmGwNdpMrUopYKWayFhf81RPCJ9XrZYuhiXtH+AK8GFQFeEozTqfTbWC1wmZvRHb6TSRc+Qo9xlDca0zHXUcW+hvz0K0Lh1FGivdjN7/4ru1G/P6x8Kch4sBvcWL9LxC84MdYQ9fh+n6OpdL6LVc+qZ+abZ9j8Zyp8P3qfyE1PBBNZQdYa9jdaoTiKdOzXP/O8Je8m/LJ38XASv5OViNiJA2sNpsNdXVWmM0WmOttyEy7hZQb09BjDkO/IwV36xPRa09HlzESRlUgzAq6i5/nZrhGhS+720h5pDcyLs1A5OE/4vjGX2Hbon/D2rk/xDK/L7DY90t29fkofL4D6OvArz/DjeN/RWv5PljT1jHVu9vNmEE2Yc1rEs4K5vVC+erYxey+m3e732I77op3B08Zvr6+HhaLBWazGSajicHPSL2FlOtfo9t8DX3OZPTaE9HjSEOXMQJG1TcSfM9dmSLgV9z2Qeal6Yg6/AeEbPo1di7+N6yf9yVbwxVXnwvbcd8GTv8M4aemo7VsDyypa2Fxi5bUtZwIPm8juPs9h6+XLYEufhHeGb4rSkoTJ7IaoXirlRRvhslkgsFghMFah7Tk60gO+yt6BHxbwgTwPax8mS8qo/yQe3Um5Mf/C5eCf4P9y3+ObUE/xLqAqVjpx9POWOWT+qcicNpnCD85HS2le2BKXjMm3ZDViGjJ+zdc+WI2O5rtV0DHwC+GNm4hg0+3gXyr8l1RcpzH19XVMdVz8AZotTroTWakJlxDYthf0G2+jn5HKu7aEtHLlE+2EwSz3MNruMq50Mr8UR3tjcIbM5B07s+4tf93CNnwS+xd9nNsCfwR1tAOoKTjzQdcUr7YES74ZXtHlS95/HifF7NZkXIo07tKtgT6+MXQxS2EJmYJmmsvo6/nLTlfxElSPPk7WY07eKPRCL1eD41GC63eiGTlFSQQfMsN9DnS2K1NuO1EwqhcALNc9HY8FDWVdD81f3Z/5PLbs5B97WsoTv8JN/b+Fqc3/T/sW/Hv2BL0I6yhu49404oWL2E9wnZayvYyz2cJhxZIpIkVRUseL6mVsErqXJLl8ExPPs9qAvj9b4MvUg2ftY6CJ+gGg0ECr0FtjRpqrQ5JistIukmeP3ng0y3j6U6CNTHeKIuYjZyr06A4/UeE7fstTm36JXYv+Rk2zv0RVvn9AEt9Pmc1qvxPEX5yGppKdsGcsgZmtwUSUzJNqFa7Sihe9HB4rqd4uQS6uEVSLURt9GI01V5Gf89bBtyGhtE+zXjF63Q6qNVq1NTUoKqqGtW1GiTIQpF0g8Pvd6SNtR2X8j3Ty6e4KW5cStZDt/qqjfFGeeRsZF/9GvEn/4Qru36DI2t+ia1BP8Fq/y8l+NKMl3n+p2zAJfjk+QR/dJGEWsY809Okyqik5hmfyY5OqgT8hcxydHELUBu9CE01ZDtvgS8GWJFshMe7g6+urkZlZRWqa9VQxV9E4vW/osdyA5MBvivv08eDSDe5q431RUn4HKRepLuQ/AHHN/wa2xf/DGvnUuSk83f4/XcoBc2f/hkiTs9Ac8luGJNWj1kksbzSvyHw5PPcaoy0lS1hpY1dAF5BqIleyD645q0DLsEn8CLZkNVotVpoNBrU1taCwFdVVaGivBKV1TVQxJ5n8JnnO9Pcoub34/lipksLKyYlfUaLD9TxPii7PRuZV6bj9tH/wqnNBP+nDP5yvy+wxIefQCXgU9RsKt4FY/JqmJPWjenTi+bZeKtx93kaaLWxQVIFojZmIegGeX09b2kpE3x3u+GDq4bZjQBfXl6O0pIylFdWQRZ9FgmTUPnsc1oYfC+o471QHj0bmVe/RtTxP+L01l9h++KfvBF+Y9HOD4ZPfu+u/NqYRe8GnzyfUg7leRpkSfVC8RUVFWDgS0tRXFSMkrJyxEaGTFL44qOb5oLunVwRPQdZdM+1o39EyJZfYocb/KWswcbjZtC0zxARMhPNxbtgTVwN65gWwmrWPBsdaLnt0ABLRZbDwS+EIXqBVEFQRy1EY80F9PfUvNJGdn9iCi0FusMnu+EDbHKVDFkAAA6bSURBVNUo+OIiFBQUori0zAV/skTNUdvhnwJH1wBz+LPfCN89ak4E30RdS6lzOSH8+MVSrifVL4Q+JkiqQKijF6KxluBXu7N+5fEUyvnUSiDPJ7+ndEN2Q6ovLS1FUVERCgsLkZ9fgMLiEkSHn+Q5f5JEzTfBz7k2HTHH/uutymeeT739hFWwJK6BKXE1jKqVvFzLg9RC4IMtUz6bUHHwBN8QswCGmCAYYgKhiV6EZnUovu19C3xqL5D6adAl2yHl0wBLdlNSUsLAFxQUIC8vH/kFRbh94zgSrn2FHvPkSjuUeuj6XyqdIoDZzjvDPz0NTUXbYVat4KtTdP6NtBg+Gi2lSZXURtDHLYI+hhTPy912tFGL2M3y+nuqXlG7+xNTqKNJK1Xj4ZPqi4uLQeBzc3ORnZWDnLwCRIQdheraV+i23JwUM9yPovzTX6OpKBhm1TJX15LOPKNzcESed0VMyef1pPZoUvr4CoQuaiFaqi6gv/st8KmlTPDJ90n5NNiS5QjweXl5yM7ORmZmFrJz8xAedmRSwzco/KGhRlvMHEykfJHzx3r+NDQWEvzlrvaBUL7I9CJaikFWN8bnhd/TNhDa2wvYXQr/Jvj5+flc9QQ/IxOZ2Tm4efUwVGFfTbpJlrAdgzwAGpkfKmO8XgufVrVEe4GnnekS/BVvhO/u9Vz5IuG4b4Ogvb3o3eCT51N/h7I+zWppsC0rK2N2k5OTg6ysLGRkZCAtLQ3pmdm4fukolFf/Minh0w6gDy3QSHcUzx4TNX/MF1d8fsBmuaPw/xERp2eisXAbzMo1MNNAO2aQ5bNZAk+9eupaUqbX0QDripf0mGyIR05t5BJ2F6u+t3k+pR1qqpHlUNIhy6GEQ3YjwKempiIpKRnJqRm4euEQg//mGa44fcTzW4qZGpkPqmNm43XwaWY7ajuj8E0KOstYnPzEt0ztUq5n4ONoJhsIXWwg9O7lNvhqIoPQUHoEfT0V7uPrK4+n0AyXVqtockUphwZashvyeVI8gU9JSUFiYhKSUtJx5fxBqK5Rb+fmpOrtiB7Phyq/oWAbjHIxyIodsJxNpsQOEKp/s/IXQhM5H4asLejrKX8FuPsTU9wHWoqXpHpKN5mZmUhPT2fgk5KSkJCQgMTkVFw+d8Cl/MnUWJvI88cqn7cXeD9/nOefnoGGgu0wyGkGyxPOK4skNKmK4baif8VyyHaCoGPqXwBt5Fzo0tait7PYnfUrj6dQxCSvJ9VTrifVk92Qx5PiBXilUoWEpBRcOrvfBX8yLKaMj5ruaed18NnZDJL10GIKdTU5fDr3RsAfv0hCuV5MpHi8HJ3VBkEfS98LhO72PFhSVqPVcB1PB9oAft3JK+DpCQafmmmVlZUMvlA99/kkqFQqKBQKyGRyKFSJuHh6jzTgTs6cT21lETXfBp8GXUo7kSEz4cwPZjNYAV9YDUVLvjw4Fr4Az3M+DcBB0EQEwJyyES2mKDx/xj+yY4RfLzgxfGot0GBL/RzyexpoyXLc4cvlcsTHxyNOpsS5E7tc8EdtJ1U6e8Hza7jC60dth+D7oSLGC1nXpiH62B9xZsuvsGPJT7FmHu/nL/f5AVZ6f44V3p8jcNonuB0yA43522CUkfKXsokVh8/7N3op5QjboZRjpIpaAH3MIuijF0Jzex7MqevQXq/Aixf9DPYIRiBdcTUxfJpgiZhJ6qcZLQ22ZDuJiYlQKpWQyWSIjY1DbLwcZ47vgOIq5Xx35RP8cLdTRzx49oLbKen0KUUGhS/U8b4oj/JCVtgs1ts5u+kX2LX0S6yb9y9Y4fUvWD7nX7DE65+w2OdfMX/W/0X0eS80522GOX4pDMpFbLFEwKeVKSrq1496fRCM0YtgjFoCbVQQaqMCYE3fgC6nCi+Hvp0Q9ERPTqHzdijnU2ONoqZQPw22Aj6pPjY2FjFxcoQc2w4lwbdK8Nl5O+Phe/C8HbdzQvliii/7EPnKKG92KknMsT/g9OZ/x/Yl/4q18/8ZKwO+xKrAX2HDimkI3jgf2zYtRkLkOthzNsAYvwQG+WK+JkuNs3hqnIlFkiDo2A7gzTNdzCLoopdAHTUfpsxN6GlKw8jwAMhlht9k9G57YQqdLkiX91Bfn+yHJlnUWqBBNzk5mSnfHf7po8Eu26EBl04d6XGMh/+xlT/+TAj3E3HpMX0q3TyY5P7Qx3tBHTcHZVHTkHXjz1BenoPrIQE4e2QRjuxbgQP7N+PAgT04dOAA9u/fj207d0AVvQP1uethiF/MevSkei0tkIxZJCGL4amGOpi6mG+gjvaDJXsH7nYWYxjPMETg2QD7hlHWHT6dIk7XWNE5mjTZorYyTbQo9Qj1k+3ExMQgNlaGk8eCoZBmuL3OTHTbU3DHmYJ2Uzj0CUGgD5Bx9+EPfSwWxmkrEg17jp3/7w8jW7Olsxa8oZHNgVo2BxqVH7Rpy2ApPYBG43W01yfDaSlFaVk+VAlKXL16DSdOnsLBQ0ew/8AB7N27D9u270BC9A44s9bCGL8YRhlfl2VnI8QuGjOLJfjauG+gjZ0P9W1/WHKD0ddbjhG8YEjfDfko/Sl0/RXtADoC6AQqyv0UPSnzU/KhgZd8Py4uDrGxcgZffvUv6LOGoc+Rim5bErodabhjiIFBuUC63854pb7/1wbVXLhKwT/yz6TwgiF+FjSymdDIvaGlhZOsxair3IdWSwzudpbiyWMnhkcG2Dt89nwYd+7cZRPIzKxMREbextmzZ3H06FEcIPj79mH7jp2j8OMWM+sR6YYmVSLV0JZmtupYP+7xeftxv4+usyW9f9h/U+iaLLqYmc7Tp/Pzqd1AAzD5P+V+6u9Q3qcdoFAkIuTkDsiu/gm92vN44EhBrz0VfU0ZuKO5DKOcvJ4+fP5tp468zZbmgj75jTI7fZSqNs4bOsUsaBN92AfHm6sOoc0eh3s91Xj6uAMjI09fefcjQ8DzF8/w7b0eNDQ0obKyGomJCQgLC8OpU6dw+PBh7N9/ADt27oIqajscmauhJ6XH0Vlnboskon9Dqo+Zh5rbPqgrOIyBe+53kXpfzfOXyy4FpR1AR4DYAbS4QgMwtZfFDqD0k5SajCvXTiLm6gzYC1aiqXQXnKVHYC8+DH3ySugVdBNr2gGj8N3tg05uIgsxKb6Rbvk7H0YFnVwbwE4zNMi9oZNsRCOfA13iNzDlroOz5hi6HEo86DXgxbM+4DXhmRDwwW6Y/ZuRwWE8ffIEPT197NoxWpGj8Ss0NBQnTpzAoUOHsXPnbiREb4eDbIfaxHFL2LIgrU7x5cGFLFZqo75B7W0fOIpP4ulAi9vOpiH2A+GLC6DHHwG0A6jnQ0cAdTkLWQTNQ0pmKhKUF1GatQ81mWuhTwuCIdELOpUPU+v4D6Uk4KxUc6FX+UOb4AM9DZDyeTDLvGGMnwV9/GxoFV7QpAbCVLAFDdqz6GpKwcM+PV4+o8z80vVm3+dt0gXedJkrXXNGoYLslIJEVFQUzp8/j2PHjmP37r1IjN4Oe9ZamGKDoBsHnyZR+ph5qIqZj4bKELx8yj/17X1eh+vFj3vALv8XO4CuwxUWJBZZqP2g1xvYUVBZXoai4hLkFZUhI7cAWdmJKMkOQ3XOMeiylsGSPI9ZBb8Imquc+TZ9IrOCBkn6KOxZ0MpmQqv0hT41EJbCLWjWXkV3cxYe3Dfj5eAEOXmEJitsykLTlnFv4fVfiqvr6X3RUU2RmtIc2ejNmzcREnIGe/cdQELUdtRnrIYhOhDaWDoHh052XcBKGzUXlTHfoEFzE0ODfeyPUaJ591fx+tfngk87QNxnQewAGoT5PIDOcKBz9Y0w6szQaHSorq1GRWUVSsqqUFxWhtvXFkGf5AP66GuTIgBGuT8Mch/o4ufwREKfQ562EvUlB9BquYGejgIMPHRgcOjeK6+OucrIIEYwxGyEzRLZk4PMWF75gdc8QfDpP7rKni55pWvPKNFRlKZZ+5WrV3Hk6HEkxtCdAtdAz+BLfh+zENqo+aiK+QYt+lsYHHzo+is8y7u+/OAHrhtfEHxxBIgxgA5XukqRdgIturS00FXnzWxOQG+CBmazxYq6unrEhi2DWjkNarkv1IoZ0CT4wZixBvaS/eiwRKC/sxyPHrZicOTRB7/YD/1B2gkkLLrWmI5oOiWSgkR0dAxCzpxFSvxO2NLWsQUSWh6kBpkhci600YFoM0VhaOQRmzx96N9/3c8x+PRNdli73QSDdgDdZYTf1oXvBHbx3N3eMfdeaG/vQFdHO7IT90OdvQiO8v1oMcWgt7UYA/2NeP7y8SthjAuSVPkxDt7XvbWxz9P7o/dE95CgSE1jWWpqGq6FXUemah/qUlZDGx0Ebcxi6G7TR3gHoqtewcDT8fZdvFIXfLED3I8A93syiB0hLpqmo4LeCHnp3f4+9NztQH+fEwMP+vHoyXM8fT6IF89HMDhE1jHIE8rIMEZGhjDCtt/F2xkLfPxX9N7ofdDRTItI5eUVUKoSkZ96GNbkVdBFBUEb+Q3U8UvRaU/E86HHGKTgNEIpimzwDS3K8X/sHb4eA5/+vfsR4L4jyDfFziAFiTuT0JHx+PEjPH76BI+fPpPAP8PLwRcYHh7EyPD4F/zh0ewd3s9r/4l4X8L/aU5jsVhZgCjPPwNz8jLUhvtCI1uNO/WZePL0AV4OklhodCWhfPzX/Vr4YkfQDnB/4eIWMWJLO4TVC2n78iXzV77j+L18XkvEg98Q74G2JBw6cjs7u2C21MFYGgadbD5qlMvR7sxhN2968hSgiZr4ue/ipb4Cf6I/Il6A+1YcFa/b0u+hfz/Z/qPXRMIh+3nw8CHudPXAWn0Dutyd6HCU4O69e7j/5CkGmdF/t6//g+ALoO47w/2x+/fF48m2FTuAbLOnw4TeHgsePLiPgUfPwe6YOMznFt/l634n+O/yAiajyt/0uumIpR1Alvn8xRCv5y8wOPiSRW4hpjf9jr/1ex8N/t/6Qr6vnxe2KcYwT0AX7/X/A8JfMGsXjSkNAAAAAElFTkSuQmCC;" vertex="1" parent="1">
          <mxGeometry x="500" y="180" width="75" height="92.37" as="geometry" />
        </mxCell>
        <mxCell id="RLmKsljwDSlcrX09kRqv-7" value="&lt;b&gt;&lt;font face=&quot;Georgia&quot;&gt;ARCHIVO DE REGISTRO DE TRANSACCIONES .ldf&lt;/font&gt;&lt;/b&gt;" style="text;html=1;strokeColor=none;fillColor=none;align=center;verticalAlign=middle;whiteSpace=wrap;rounded=0;" vertex="1" parent="1">
          <mxGeometry x="446.25" y="272.37" width="182.5" height="50" as="geometry" />
        </mxCell>
        <mxCell id="RLmKsljwDSlcrX09kRqv-9" value="" style="shape=flexArrow;endArrow=classic;html=1;exitX=0.914;exitY=1.15;exitDx=0;exitDy=0;exitPerimeter=0;fillColor=#b1ddf0;strokeColor=#10739e;" edge="1" parent="1" source="RLmKsljwDSlcrX09kRqv-3">
          <mxGeometry width="50" height="50" relative="1" as="geometry">
            <mxPoint x="190" y="360" as="sourcePoint" />
            <mxPoint x="270" y="380" as="targetPoint" />
            <Array as="points">
              <mxPoint x="230" y="280" />
            </Array>
          </mxGeometry>
        </mxCell>
        <mxCell id="RLmKsljwDSlcrX09kRqv-10" value="" style="shape=flexArrow;endArrow=classic;html=1;fillColor=#b1ddf0;strokeColor=#10739e;" edge="1" parent="1">
          <mxGeometry width="50" height="50" relative="1" as="geometry">
            <mxPoint x="240" y="240" as="sourcePoint" />
            <mxPoint x="470" y="240" as="targetPoint" />
          </mxGeometry>
        </mxCell>
        <mxCell id="RLmKsljwDSlcrX09kRqv-11" value="" style="shape=image;verticalLabelPosition=bottom;labelBackgroundColor=#ffffff;verticalAlign=top;aspect=fixed;imageAspect=0;image=data:image/png,iVBORw0KGgoAAAANSUhEUgAAALcAAAC3CAYAAABQbs+fAAAgAElEQVR4Aey9d1hUWfb3e/+8z3vfe39hQk/3tBLNOQEGkJxzLBBUBMSAikoGI4ISFAVUkIyIgAEFRUVBQRRJkhQk56SYs7bzuc85aE93z/SM3TM97/tOUzzrqSrq1Kk6uz5nne9ea++1/y9Gb6Mt8G/aAv/Xv+lxjR7WaAswCvcoBP+2LTAK97/tTzt6YKNwjzLwb9sCo3D/2/60owc2CvcoA/+2LTAK97/tTzt6YKNwjzLwb9sCo3D/2/60owc2CvcoA/+2LTAK97/op/3mm2948+YNz5494/79+/T09NDe3kZTUxN1dXVUVVVx61Yp168Xc+3aNS5evCBaXl4eZ86c5vTpUz9iwmsjlp09sl1OzlkuXbpEfv4lrly5QknJdW7evCF+hvBZjY2NtLW1id9haGiQx48f8+rVS96/f8+f/vSnf1GL/PIfMwr3P9jGHz584NWrVzx69Ii+vj4R1oqKcgoKCjh79gzp6WkcORLL/v0RBAcHsXPnDrZt20ZAgD8+Pt54eXmK5u3thY+PYN74+vrg5+eDr+/IY39/X/G58Jpg3t4j7/H09MTT0wMPDw82b97M5s2b2LRpIxs3un+0DWzc+MlG/ie87uGxSdyHn58v27ZtZdeuQMLCQjhwYD/x8XGkpx9DOEEKCq5QXn6LhoYGuru7efDgAc+fP+fdu3f/YKv9a94+CvdntrPg0Z49ey56O8H7FRVdQ/CUAgx794azY8d2EdJNmzfi6blZBDVgS4AIzr6IvRw+fJDklGSysrI4dy5X9KiCly4ru0VlZSW3b1dRXX2bmpoa0err68X76uoa6mrrqa6upqKiklu3yigpuUlxcTGFhVfJz7/ChQuXOHfuPDk5uZw6lU1GRiapqUdJTk4hLi6e6OhDREZGERYWTkhIKLt2BbF9+3b8/QPw9vYRTw539424ua3DzW2taGvWrGb16lW4ua3B3X0Dwom0fftW8Vjj4o5w8mSWeAxVVZW0tbUyPDzM27dvP7M1/zWbjcL9I+38+vVr+vp6xUt5bk4OsbEx7N4dLHpVwfNt3OSOr58PQcFBREVFcTTtKLnnzlF8/Tq3b9+mpaWF3t4+hocf8vzFc96+/dve7sOHb3j39q14FRCky8OHj7g/dJ/+vn66u7rp6OikubmFxoZG6uvvUFNdQ3l5JaU3b1Fy/QbXrhZzOf8K587lcSb7LCezTnI8/ThHU1JJTEgm7kgChw8fISrqEFFR0UREHCA8fB8hIWEEB4ewc2cQW7ftICBgKz4+fmze7MnGjZtZt249a9asZeVKV1xcXHB2dv7WXFycWLduLV5eHgQGBhIdHUVWVqYorZqa7olXM0GO/a+6jcL9seUFzyxcdgUveuJEFmHhIQhSYfMm4RLuzc7AQCKjIjmWns6l/MuUV1bR2NRMd08vg/fv8/DxY54+f87zFy95+fI1r968EYEWftwPH/6E8PfXbsIl/vGTJ/QPDtDW1kFt/R1ulJZxpfAqOefzyDp5mrT048QlJhITd4RDMYeJOhjN/shI9kbsIzQ8lD0hewjeHcSesBD2R0URk5BIwtFjpB7PIvV4Jkmpx4hPTORwTCyRUdHs3StIpD3s2BHEli3b8fPdgre3H15evnh4eLN5kyfu7gLYG1izxo1Vq9bi4rJKtJUrVyOYq+taVq1aI0Lv7DwCvZPTClaudEHw+oJECgzcQVxcnKj9hZNdkDT/ytuvHu6nT59QXl5OcnKSqD/dN67Hy8ebkLAwklJSOZeXx41bZdy510RLewddPX309PXT2z9I38AQ/QODDAzdZ+j+A4YfPuLR4ye8ePlS7DwKHTQB7levXvPw0ROa2zooragm91Ih8WlZ7N5/GI8tQTi6eWDu4IymqTULtQ2ZraLBNMWFjJ85F9kp0xkzYSJfyEjzhZQUX0iN4QupP/LF2C/54usv+N3Xv+V3X/0Xv/vqP5kwfTza5ias9PJmx+E4Ei9cJbuslguVVRRU3aKoooTiskKullwkv+AsObmZHM9I5khcNOHhIWzbulUE281tgwivs/MqVqxwwdHRGQeH5Sxd6siyZStEc3R0Ev+/YsVKnJ1dWblyFa6ua3B1XY2Li+DlBRNec8bVdaWo8yMi9omSrL29XWyXXxr0Xy3cT58+Ezt9QidP6ID5+PoQGR3N6TNnKb5Ryu26O9y510yDIAVa2mhsbuVeSxvNbW20tXfQ3tlNZ3ePCHr/4CAPhh/y4sULnj9/IcJeXX+P7LxC9h5OYa1PEEb2a1HUkzBeUYc/TlvE78bP5T+kpvEfUlP4jew0fis3lS/GTWXM5JnIz5zHpHlKzJy/iLnKKiipqaKircVibU0W62igqq2OmrbaR1NFXVsFDR0VzG3MWLlxPX6hIUQezySruJwrd1ooaWqmoq2R+q4Gmvvu0jlYT/+DOoYe1DIwdJue3gruNV2nrCKPvIsZJKceIixsF15em3FZ6YqDwzJsJfbY2jpgZzdiS5Ysxd5+mWjfBV+AXjghRoAXYF8jen5XV9ePoLuIHeWkpCQxavNLRmd+lXDX19eJ0YH1G9azKziIY5mZXL1eQllVNeXVtVRW11FVK1g9NfV3qb3bQH3DPRqbWmhqbaO1vV2Eu+Mj3A8fPaS3b4ArxWXsjkrGdrU/c3TsGTNbj/+eqMx/jV/A7yctQnquJlOU9Zmvb4GuZBlWzqtwct+M+5atbAnZQ0h0JFEJccQfO0raqUxOnT/DucsXyL9WQEn5TUqrblFWXUFlbRXV9TXUNdRzt6mBe63CVaWFju5OOnu76ejtpndwkP7hYe4/ecrws6c8ev6URy8e8+DxEIPD3fQNtdA/2EjvQD29AzV091bR2n6Du/cKKa/K5UphOplZBzkQuRNv3/WscF6GjcQOiWSJaLa29t/eC48F6AXgP0E/4uUdWb78E+yrRMgFiSOALnhzQasLIc6nT5/+Ik78VwW3IBGuXLks6kFffz+OZZ7g2o1SbpRXUnKrnJJbFdwoq6C0vIqK2zVU1tRRXfdnuBuaWrjX0kJLWzutHV109vTQNzDAhcIbLN+4i4kqEn4zWZvfTNVCWsmIOfp26CxdjZ27N+sCd7MlMorw5ERiThwnJTebrMt5nLl2hdySq1wqvc6ViptcrSqjuLqSG3W3uVVfQ3lDHZWNd6luaqCutZmGjlbudbXT2ttN50AvPfcFiB8w9Oghw0+e8Pj5M569esnLV69E3f/u3VuEzuqn29t378S+weDDYbr6+2juaqe+tZGqxlrK6sq4XlVMYekl8gpOcfJsAgkp4YSG+7DZYwV29qYYmxhgbmGFjbUd1ta2otnY2CHYd8H/BLvg3T95dgF0waML3nzNmnWsWiUA7ypGkoR4+z/79quC+9q1q3h4bCY0PJzz+Ve4duMWhddvUlBcIkJedOOWCPnNskrRi1dU13C79g7Vd+5S19DI3XvN38ItyBJBjmRfuMosHUf+a7IOcipWKNu7YeO7k/X7o9iWkkzoiUz2nz3NwfO5xF7II/7SBRIvXyLlSj5HC6+Qfq2QrOIiTpZcJ/vmDXJv3SKvopz821UU1tRQVFfHjbt3uNXYQGVzM9VtrdR1tNPQ1UVTby+t/f10Dg3S8+A+Aw8fcv/JYx49e8YTQSK9esXrt295+/49H/70JzFB8/rtOx6/eMHAo4d0DA7S2N1NdWsrpY2NXK2t5UJFJdk3bpJxtZCUS3nEZGcSlhiNT5A3S1dYoKY+h4XKCpibW4lAfwL8u/efYP8E/Hc9uwC6ALmgyQXAhfDj6tWuxB2JFRNc/0zAfzVwd3Z2EuDvh6e3BxevXKXg+g0uFVwj/2oRBUXFXL1+AwHu66Xl3LhVwa3K2whwV9XUU/MjcPcNDrL7YCpfK9uisWEbztFxeKRn4n/qNFtPn2FH9ll2nclld845Qs5dYF/eJSIvXebglUJiC6+RcK2Y5OIS0m6UklFaxomyCrIrq8i5Xc2F2jry6+9SeLeRontN3GhuoaytncqOTmq6uqnv6aWxf4DmwSHaHzyg6+FD+h4/ZvDpU4afv+Dxy1c8e/2GV2/ffR/ud+949PKluG3b/fvc7eujqqOTkuYWLt9pILe6lhPlFRwtuUnc1WIi8wsJO3+RHSdPszHmEKarVzB7wSwMDQxFuK2sJPzQvgu68PiHkAvefNkyR1Gbr127jtVr1rHWzY2CK1f+mWz/WuZQ/om8vPM4OS1n2Qo7ktOOUlB8k0sFRVwqvMblomIKhVhxSSnFN2/9Bdzf99yt38qS7t4+ym/Xs+34WZwzz+KUdZZVJ3JYf/IcHtkX8M65hP+5y2zLKyDw4lV2Xy4mvOA6EdduEFVcyuGSMuJuVpBUdpujFTUcr6rjRHU9p2vvknvnHhcamsm/10phczvFrR3c7OimvKuXqp5+avsGuDswRNPQMK3DD+l89Jjex08ZePaM4RcvefzqNc/evOXluz/D/eFP8Ordex6+fEXvk2e0PnhIXf8g5V09FLV2cLGxhTN1DRyvqiXxVhUHr5cRXljCrvwiAi4V4XmxCJfENEyXr8Dc1PwvoP4h5MLzH4IuSBfBkwva3HG5oyhTzBzWYb1sNQcO7Punhgt/FZ77/ft3JCUmsMRegr6ROitW2hOXlMDFgiIuXyvhStH1EWnyE+Fu7+5hYHCQzoFBcuoaCC4sZd25azifLWRlzlXc8orYePE63vk3CCgoZcfVcoKLKggtqSLiZjWRpTUcKq/jSOUdEm/fJbWmkeN1TWTdaSa7sY3cpg4utHRxua2bq+09XO/qo7RngIq+Iar7H1A/OEzjg0e0DD+m49FTep48p//ZSx68eMWjV695+i3c34iy5BPcw69e0/P0Oc3Dj6kZeCDus7Cjh/PNnZxsaOVoXRNHbjdyoOIue0pr2VJYhnvmOZzCo7BbswFryZLPAvu7sH+CXPDitrZLsLezR2K3FC1zRxSNV2Fgu5pt27bQ29vzT/Pevwq4hbSwkGG0srFA10ANAxM1HJZbELh7G8dPZJFfeI3C64LXLuN6adlne24hWtLd28vg0CAPh4fpHbpPVWcvZxvaOFzVyM6bdXgV1bDpmmDVeF6vw7eknm2ld9hV1kBoeSMRVU1EV7cQW9tKwp12Uhs6SG/s5ERzN9mtPeS293Gho5/LXQMU9QxR0veAsoGHVA4+ovb+I+4OP6Hp0VPanjyn69lLep+/YujlGx6+fsvTt+958e49b4RE0p8Q00ivv/nAo7fv6X3xmpYnL6l99IzS+08o7H9IbtcQmc09xNe2EFFym+1n8tkUk4zzlkDsnFyxsrDG0szyp4NtJcHGesQkNraYWdiiYShhlqYtk9SWMFPXGS1LZ/z8/ejp6R6F+6e0gDAa7/DhQ9jZS9AxUEXfWA0riT7LnSzY7OVKROQeMk6mc6ngiihLSstvU1YlREtqqar5YYfyz7LkE9xCxGRgaEgcX/H08WOeP33Ko6fP6Hv0hIahRyKQ5zoGSW/uI76xh4N3utlf38Veweq62FffzYG7PRxs7OPIvX4SmwdIax0is+M+p7qGye1+yIW+hxT0P6Zo8Ak37z+jfPg51Q+fc+fJK5qevqbtxVu6X72j/817Hrz7wJNv4MWf4A3w4TuNJYz+ePD6nXgy1AwMU9TaTU51A0eLbhGVnUdQfCree/ay1tOXFSvXYL9kKTaWNliZW2El3P8Vjf3X/mctwmyLALPw2NzCBh0jK+ZrWTBZxQIZJXNkFlgjryxhtr4zVivWIwwQ6+7q/M63/cce/io8twB3ZNQBArZuYWfwTqxtTTCz0mGpozluGxzw8V9F0B4vDh8JIeNkEhfycygqKaKsqlKMd9fcaaCuoYm794RQoJDI6RBDgT+EW8hSCsmcR48fi4OsXr14ydvXr/lGCMe9fydm5V6/f8/jN+8YePWOtqcvqXvwlPJB4QQYprD7PvmdQ1zsGORCxyB5nUNc6BjiUtd9Lnfdp7D7Add6hrne95DS/oeU9w9ze+AhtYOPqB94wJ2+IRr779PUN8i97l7udXTT0NJGfUMjt6trKC29xaWCQk6cySUx7TiRMXEEh+1jy/ZAPDy9WbfOnTWuq1np5IKToxPLlzriYL9M1MiCrPghxNaiph7R1TZCx1HsPNoi/N/CwgZDUyvU9S1Q0DBjyiITpBWM+ONcI76aa8If55ggpWCBoqETXoEHCNsfiZ+fN0LH/591+9XAvX//PoJ27xFDf8cys9gWuAU3dyfc3Jfh5etKYPAm9h3YQmz8bo5lRHImJ5HLBVmU3LxIxe3r1NRXcqfxDo0tTTR/jHO3d/XS1dtP77cp+GEeDI+k4J88fcaz5y/EVPyr16/FEXPfvP8GUR98+vX+9IEPQqju5QtePH3Co+FhhgYHxfEq7cJAqdY27jY1UyvAWXdHTDCVVlZTUlZJUWmZGOG5fK2Y/IKrnL94ibO55zmdnUPmiZOkHTtOcnIq8XEJHDoUw4H9kYSGhhMUtJudOwLZtnU7/n4B+Hj54CmOJ/FgwwZhZOB6MdkixKOFbONSh+VigkYixrJHPLHgjQUTpIYAvJmFDUYmVmgbWKCsY8pcNWOmLDRATkGfMXP0+ONsfb6cZcAfZhrwxUx9xiqYMlvbHrvVPoRHHeHMuQscjIkRh/OOwv0Jjs+8Fzz3gQMRBAYFcaX4xggYJaXkXMgj6WgiUQdD2XdgB/ujdhATH8zR9AhOZceQdyGZwmuZlJadoar6AnV3C7nXfJOW9ko6uuro6mmkp6+VvoFOBoaEAVRCGn5YHF/y9Olznj8XkimvefPmLe/evefDNx++NxlAeC70B169fMEzQco8fMiDoSH6e/vo7uyio62NlqZmGoQMaW0ttyurqCgr40bJDYqvFVNYUMDFC5c4f+48Z8+c5dTJU2RkZJGWdoyUlFQSEhI5EhvHoYMxREZGE7HvAOFhewnZEypCvmNHIFu3bsfPTxj66ovHZk/cBcDXrhPHiDitcBETMDaSJZhZWGNkaomekTkaeqaoaBmhqGbAzEW6TFLSQW6eFlKzNfl6lhZfzRRMmy9n6PCHmTp8OVOXsXMNmbLYEjVzJ1as82FX6H7iElNIy8jiVM55Ig8eGoX7M3n+3maf4N4VHMzlousUFpdwteQmN8urRG94q+o212/e4MrVfPIuZXP+wnHOXzjGpcvpXC3K4kbpaSqqzlFz5xKNTYW0tBfT2X2Tnr4yevsr6R+soX+wlv7BevoGG+gbbKJ/qI3+B90MDvdz/9F9hp884tGn7OGbN7x5955Xb97y/OUrBC//6NFjHjwYFmfp9PcPiOPGBS/W2tpGc1OLOA5DGNd9+3Y15eUV3LxZSnHxdQoKhDHdl8nLu0BOzjlOn8omM+MEx46li4DHxycSEyMMdT0ojgbcsyeUnTt3EbBlG94+frhv8mS1m5Bed8XOwRFzG3v0RTlhwiINA+aqaDN9vgYT56kiP3sx0jNVGDNDmT9OU+bLaSr8YaoKf5imypfT1fhqhgZfzRQA10Zqri7j5xsxV9MKbfPlLHFex0bvAHbtDmF/ZBTRMUeITUgiOe04p86eI+rQYXEMfGdnx/d+u3/kya9ClgjeMSrqAMF7dnOlqITC4hsi3MWlt7hZXimm2esa7tHQ3EqToKkFoFqaaWpp4F5zLfeaK2lqKae5rZzWjlu0d96iq6ec7t5yevvL6R8UAK+gb7CCnv5KuvqqaO+torm7msbOGuo7aqlpr6eqtYGylnuUNjdR0tRK8b0OCutbOFdaSdblq6RknyXuWDr7Y2PYG3WAoNDd+Ab44OvnxdbtAfhv9cPX3xcfPx+8fLzY7OXBRo/NbNi8kXUbN+C2YT2r1q5l2Qon7JYtw9ZhKWY2EgzMLdA1NkVd1wAVLV2UFmswZ6Eq0xWVmThHCflZisjOmIfU1Hl8PWUOX02azVeT5vDlpLn8YdJcvpw0jy8nKfLlZCW+nDKfL6cu4Ktpynw9YzFjZqkhM0eD8QraTF2gh4KaEer6VphYObDU0ZU169zx9PZly7Yd7NwVTHBIGKF793PgYAwx8R/hzjkvwi10KLtGO5Q/7XwWxpQIM2a279yJoFELS26I2vv6rTIR7vLqGqrr71DfeE+Eu62zm+7efgaGHvDg4WMeP33KsxfPefHyOa/evODV66c8e/aAh4/6uD/cyeD9VvqH7tE70EB3Xz2dfXW09dTQ3F1LQ2cNde013G6tpay5juuNdRTeqedC3V1ybjeSUVrLodzL7EpIZfOeMJZv2oyRwxKU9bWYOm86X0n/jv/4zf/Nf/7uf/Bfv/+f/PcX/x///cV/8N9/+E9+8+V/8duvfstv//g7fisOf/0Dv/v6S34r2lf8dszX/GbMGH4zdiy/lZLid1Iy/F5Gji9kx/GF3Hi+kJvIH8ZN4g/jpvDlhGl8OWEmX02aJYL9xykC6IqMnbYAqRnKyMxajNwcdcYraDF5vi4zlA1Ebb1Q2wx1fUv0jK0xs5AgkdixfJnjSHp97TrWu2/Gw8sHX/+tbN2xi127Qwnbd2AEbsFzH8sQZUnU4cMEBPjR1dX1037cv7H1r8JzC8efm3sWDy8Pci/mU3TzFldLShHhrqhEgPt2Xb0I972WVlo7Ounq6UVIrw991NAvXrzkzVthENLIpIP37z/w6vVbnghJk4fCZIMHdPUO0NbVQ1N7B3eaWqhtuEdV/V3Kauu4UV3DtcpqCsqquFhaSe6NSk4XVXC84BbxZy4TkZrFzug4PIPCWe3tj8TZFT0LSxZpqDN7viIzlOYxQ1GB6QoKTFNQYMo8BSbMnIX89OmiyU2bgey0GchMnYHs9NnIzlBAZroC0tMVkJqmwFjR5vP1tPl8PXU+X09fxJjpyoyZqYrULHVRL0vP0UZWQRc5RQMmzDdi0kITpiibMV3VgtnqVihoWjNf2xplXRvUDCRoGUnQM7HF0MwWU3NbLCwlYqpdGCK7wmklq1a7sW7DJjZ7/iXckQdjiI1PIiU9g9Pn8oiIjBSnsQ0MDPwNXH/aS78auBsa7rJ580YOH4kTRwFeu3lLhLu0QtDdfx9uYZz26zdvxHCeMAZZ6CC+ePWaJ8+ej8A99JDuviFaO/u519pNfWMHt+ubKatupKS8nms3q7lcXEle4S3O5pdwMu8aGTkFpJ3KJykzjyPHcolOyWZ//EnCYjIIikxl295E/EJi8Qw6xMYdkbgFRLDKJwwnzz0s2xiErds2LFf6Y+Lkg8EyT7SXbETdZgMqFm4sMF3DPMOVzNJzYprmciaq2SOvbIfUfBvGKlkxVska6fmC2SC7QILcQgnyiyRMULFhkooNUxbbME1Nwgx1CbM1JczTkqCkLWGBtoRFujao6tugYWiDjrEN+iYSjM2EWPZPgPtQLLEJyeJsoezcC+zctYu94aHimPifhvCPb/2rgXskS3mYdevcOJ2TixhSu1XOPw/u4RG4u/q419ZF/b12bt9pprymkZKKeq6VVnP5eiV5V2+Rc/kGJ/OKyMgpFOFOzLwgwn0w5QyRCacIP5LJ7oPpBB44yrZ9yfiFxuMZHIv7joO4bTmAq+8+VniG4rBxN7ZugViu2o6JcwAGy33RXuKJmvVGFpmvQ8F4DbMNVjJdZwWT1JYhr7wEqfm2jFWyQUrJGikRbmtkF1gjJyRUFlozXtmaicrWTFaxZqqqDdPVbJilYcNcTRsUtW2Yr23zj8G9J4zwiEgiD8WK0ZKMU2dIST8uThg5dfLkj5P6M1751cAttI2g54SSCRs2rCfrVDZlt2uoqK4TPfcnzf1jsuTve+6fCffpfAS4Y4/lIsB9IOEkYbEZBEcfY+f+FLaEJ+Kz5wgeuw6zYVska/wjWOkdjqPHHpa4B2GzdgcWrlsxdvJDf5k3WnabUbVyZ6GZGwpGq5mt78J0bUcmqS396Lklotf+Xwn33v1RHIpLIOloOkcSktjsIVQL8BYjRD+D4R99y68KbqEVLl25hpmVhOXL7ImKjuJq8Q2EDKTQmRQmIwjRkr+muUfh/sc8t1/ANnbs2s2esAj2HYgmJHwf3r6+ODouEycslJaW/iikP/eFXx3cxWV16NpvRMPICn0DPVycHYmMiuLSlQJxQoKQUu/pH6BvYJD+oaFvO5SjcP9UuF1ZvWY9GzZ64Onth4//Frz9AnDftIkVK5ZjYW6KgaEh6oaW+AdH8ubvlL74OYD/6uAuKqtF3d6LOdbezDFxQUnDAFV1dawsTPH29iAhMYHCa9e419zC0INhnr0QQn9vxEjJO6Hc2MdWfv/+mx90KH+tskQy0qEUoyW24lQzIWW/wskFZxdXnJxdWLp0KdZWFhgZ6qKhocZCNW0UtC2Za7KKOcZu+IbE8/r1P7+gz68O7uKyWrQEuO22M9k+mPHWAUwyXs10TUvmqmiioqqKqbEhq12d2B20k+PHjopFZtra28Saet98Zz6iEBV8/fY9T5+/4sGjp/QPPaS9Z5Cm9h7uNHVw+27L3+9Q/h+juSUoaEuYryNESySo6kvEYas6xgLcNhiZWmFiao6ZsQlmxkYYG+ihr6OFpoYaympqKKjpMEPTnCl6jow3cWeCVQDTlwQyz2IzAaHxvHoljF/8595+lXBrO3gzx24rUx12M85hDzJLQ5F2CEZ2yTbGWW5kksEypmuaME9VG2V1dfT1dVkisWLT+jWEBu8kNTGOvHM53Ci5TnVNDY33mmlt76Kts5e2rn7augdo7ujlTnM3NQ3tVNS3cPN2I0Vl9VwuqSLvahnZ+Tc4cb6I9DMFJJ+4RNzx8xw6mkNk4mnCj2R9jJaksnVvEj4hcXgExbBhWxRr/Pd/7FCG/KBD6Y/+Mh+0lnigarXxex3KadormCh2KJcwdr6EMUrWYsRk7HwbMTQovcAGmQU2yC60YdwiGyYofwoHSpiuasNsDWsxja6kackiLTMWa5ugpm2IppYe2ppaaGuqo6Whioa6Kmrq6q0ulRoAACAASURBVCzS1EZBy4iZehImGzsxzsIdGRt/pGx3Ir0kGLklwUyyD2Km/S4ULEfgFsKs/+zbrxPupd7MXbKNaQ7BjLcPRm5pKDJOe5FyjWTs6kNIrT2E1JpIZFxDkXfczsQlm5hs4cJ0YYC9lhEKGrooa2iiraOFuZkJDnbWrHJyxMN9PVv9fdm9K5B94XuJjjpE7JF4EpOPkpKWQerxU6RmZJOacYaUzBySMnJIOJ5LfHoOh1OziU4+RUT8CcIOp7NbjJak/jlaEniIDdujWRvw3VBgMBK3QCxWbcPYyR/9pR+jJdYbWGjuhoLxKmbrOYvRkolqDoxbZCvGtmWULJBVsmDcAjPGLzBj0gJTpiwwYvpCI2YtMmDuIj0UlXVYoKLFIuFqtlgd1cWqqKmqoq6mJgK8WFOLRbqGzDcwZ57JEmZaOjNVsp6JDr7IOQYi7RKGlOt+xrhGMVYw5/1IO4Yju3QP8kt2McluFzPtA1G02syW8ARR+o3C/Q+2gCBLtP8C7hBkVoQjvXI/UqsPIr3+CNKbk5DySWOsfwZjt2QhtTUL6a3HkQ04irxPHOM8opmwPpSJrluZtGwTU21XM8PKkVmmtszVN0VJ3xhlfSNU9Q3R1DdAx9AIAxNjTExNMLMwx9LKAmtrYQa5NRKJDbYSCfb2Qv0Pe2zt7FkiDDV1WCZOxbK2tcfC2g4L6yVY2DhgZmWPiaUdxma2GJjYoGdshY6+GVo6RmhoGaCmoY+quh6LVXVQUdFgkbI6CxepsnDRYuYvVGGhsioLVdRQVlVHRU2DxZqaqGppo6qjw2JdfRbrG6FsZMoiUysWWDmgaOfM3KXrmOXkyXTXrUxet4cJ7hGM8ziErHcC0j4pSPkfY6xfOmN905HyOoq0RzLS7vFIrT0sOg0pp31ILwtF1mH3t3DPctg1Cvc/yPP33j4Ct9cPPPcP4F4Xi/SmBKS9UpH2P470thNIB2Yjtfsc0uEXkY64gnTkNaQPFiN1+DrSsSWiycQWIxtbjNyRIuRjrzLucD4TInOZEJbFxB0JTHbewlTz1cy0XM0cK1cUrFyZb+XMQmsnlK1XoGK1DFVrR9RtHFG3skfD2gFNm6VoSpahaeuIlmQpWlZ2aFkvQcvGHk2JA5q2S9GwW4b6UhfUnNxQdV6HivN6lF3Ws3DVJuav92PhOl9U3bzRWO+L1hpvtNf4oOnqhaqTF/PtNzLTOYBp22OZEpbB5P1nmRiVx/joS8gdvIJM9IhJRxUiHXUVqchCpA8UjLRB+CWkQvKQCs5BeudppAUH4J8+0m5C+62PHbkKukbyN+EOG/Xc34P05z75yXD7pY/8aDtPIR10FpnQ88jsu4TMgUJkDhYhE3sDmcRKZI7VIZ15F9mMu8ik3kb20FVkAzOR3RiN7LJtyJi4IW24CTlJEJOXhTDTZS/z1kSycMMhVL3i0PRNRGdLMgY70zAOzsAkJBOz8JNY7D+DZfQ5rGIuYBmXj2X8ZSySr2KeWoRp+g2MssrRP3Ub7Zy7qF9sRTm/A8WCHmZf7Wfq9QeML33GjJJhVPM7MchtxOx4ORaxVzAJPY2WfzLzVkcib+aFjOl6ZJbvQGbTQWQDs5CJLkQmuWLkuNLqkEm+jUzcLWQOFiMTWYDMvnxkwi4gvScX6V3ZSG8/ifSWDKT9jiHtlTLiHEbh/rmY/rz3/dPgjixEJuYGMgnlyMSWIBuWg5xnDHJ2vshrLEV+rgHykxYjL78AeVkl5GQUkJlvxzjL7Uy13cHsZcEoOYeisiYCDfdodDxjMfBPwGR7KuZBGViGncIq4iw20eeRxORjG1+ITep1JOm3sM6qwup0LeY5dzE534zBpQ50r3Sjea0PleL7KN14zJyyZ0ypfMX4qrfMLHuGxtVezHLvIjlWiuTwBSx3Z6LndQRFl3DGq65AVn4BcuMWIjdBGfmpGsgrGCOn7YicQwBynkeQDclB5nAxMrE3kYkuGoX75+H3y77rH4Y7LA+ZAwXIRF9DJjgbudXhyOutZNwsXcbJKzFOag7jZOYhL6eE/LgFyI9fhPwEZeQmKiOjvJRxNjuZareT2ct3o+QShsraP8Ot75+A8fYUzHelYxlyAqt92dhE5mJz+AKSuMvYJF/DJq0Eq+NlWJ6owjy7FpOcBgzymtG91I5mQTcq1/pRuv6AOTcfM7XsORMqXjGz9AkaBV2Y5tRjk35D3J/Fnkx0vY+g6LqP8RouyE5WQ26SKnITVZCfsOjjSamIvIwC48YvZNxcQ+QNVyPnFoHM7jMjV659+UjvOTfquX9ZZD9/7/8Q3LtzkRYux9szkJd4MW6OPuNl5jFuzIwRqOUUGTdugQiDCIjgBSeoID9RRfSIMirLGCcJZOqSXcx23IOS615U3CLR2HQIHe8j6AckYrwjFfNgwXOfxCriDDZR57CJuYgk/go2KUVYp93AKqMcy5Mf4c79CHf+d+AuecCc0sdMLf8u3N2Y5tzBJv2muD+LkCx0feNRXBXBeM2VyE5SQ+4j4OIVR4RcWTw5x8nPZ5z0PMaNncV4OSXGCV59iT8yO7JG+iBBZ0Zlyecj+Mtt+bPhDswW9aXcylDGz9Fj/NiZIyYzl3HCDy54bQGCvwG37GJHxtkGMdUhmNlOocxftQ+VdVFobD6Mrk8cBluSMNl59CPcp7Daf0aUJTYxl5DEF4hw2xy7+RHu25ifqcXknAB3C7rfhfuT5/4h3Ll3sUkvRRJ7CYvQLPT8ElBac4AJ2q4jnvvH4BY8t3Bc8kriyTxegHzsLMYpGiO7dj/SQodyx6lRzf3LYft5ey4pr0N3mc/nR0uEDqUQLQk6i5zjLibIKzHhj9MYLz2H8bIKjJdT+PtwT1osem65BRLG2+5immMYc5zDmb96P4s3RKPpEYuubwKGW1MwCTyG+e5MLMNPY30gB5uDeUhi85EkFCJJvS7CaZ1ZgeWpaszP1GFyrhHDCwLcHWgW9qBybQClv+a5C7sxzW3A5vgtJEfysQg7icGWFOavjWS8miOygiT5HLjllMRjHi89l/F/nMr4SSrIuoYjvesM0lsyRzuUn4fhL7NVSUUdRk7+zF+2k+kOuz8mcUKQdgz7c5z7u6FAAe7tp5AOSGfcXAMmfDWF8TJzR+ynwD1xMXJTNRmn6cxU+0DmrtrPgvUHUd10GE2vOHT9EjHclorJrnTM92RhuTcb68gcbA7lITlyGUniVSRHP8Kd9RHus/WYnG/E4GIrupc/wl008FFzP/m+LCnswfR8I5LMCuySrmG9P0e8Wsw024TsDL0Rzz1FXdTdfyFLvuu5P8EtM09sA6E95BdaIr01cySq5DsaLfllyP2MvQpwGzsHoOIUxJwVoUxculvMmglwS7l8TOL8AG6pHaeZ6J/K5BkajPtq6s+DW/CMggefrMY4BXOmGrgxd9lOVNZHoeWTgP62oxjvOo7pniws9p7CSvDaYqTkErbxBUiSipCklYie1/pEFZbZNZjn3MEkrwmDS23oXulC82ovKteHULr5SIyWTK16zYSab5hV9RqtkvuYXWjGKu0GxruPo+K8k6nqDshN0/oItgZyPwNuoT2mKBgyfms6UsIVbhTuz6DwF9pEkCVGH+FWWhnObJdwJgrZyeVhjP0RuMdsPcG80Gwsl65n/NfTkR0z86d77k+XffHSvxjZyerIzzJgkrItMw3XoGTvj+raMHR8YjDamYq50KGMyhX1sV1iIXZHS7DLKMPu1G0kZ+uwPteA5cVmzK50YFzYjd61PrSKB1hcPMR8QZYU32fKlT7Gn2tlamoZ83ZnoLA2hBkmaxk/3xIZoUD+JHVkp2oiN0Wwnw637NczmCw9C2tXH2bsyWZMwKgs+YWw/bzdCnAbOvmjvGIXAtwKq/YxZ00kk1ftR8b1AGNXRSO1LubPGUq/dL7ekoXi3rNEHj2Jo8MqJsjMQfqPM5AXdOfnam4RbkHXqosgyU7RQGayumjSwuNp2sjNNmC8kgWT1R2Yru/KHAt3FB38WOgSiLJbCIs3H0DVL5bF/nEs3pqI8vYUFgYeRWnHUeZuSWSW7xGmboxkousexjlsQc7MHRmN5cgoWSI90wCpKdpITdFCaqqm+Hmy07SRnab1k+EWjls4/knyiqxd6c7etGwR7q/9R5M4n0fhL7TV9fI6DFb4s8gxUIR73qp9zFsbxdwNB5m5MYYJG2JEuKU2fky/i3Bnip47ITuPjJOn8PLZjvpiE7FDKTNmNrJSc5GXVfzxaIkgR34I91RNZKdqiXDJTtdBAE16uo5oUtO0GTtVmzFTdRg7XY+x0/UZO0OfsTMNGTPLiLGzjRk724Sxs00ZM8eMMXPNGSM8nmXM2JlGI9tP10N6mh7S0/WRnqEvwi0zQx+ZmfrIzNDl02d+LtxycvORkZ6H9Ng5TByniLamBf4BQZw4dZqorPNMCzrJKNy/ELSfu1shFKjv6Msix11idk6Ae+5HuBU94lD0TWamTwrjPJOQ8kxB6hPcIdnEnsjl5JkzpJ88xcHYBNw3+WGgL2HWDDXkZBWRlpqHjIwicvLzkfuYvBHj3J8D93QdEToRPgHAWQZIzzJEerbRRzNBSigeOdcUqXlmSM0zF22sgiVjFa0Q7oXCklLzBBNeM0N6jsmIzTZCZpYhMjMNPhtuuQkqyI5biLTsfKRlFJGXn8+sWRoYGtqyycOfg7HxpGWd5OSpbPYfPzsK9+cC+EtuV3yrRgwFzl+6A8WV4cx1/TPcCh5xKPmmsHB7OvN3ZjBj23HkAo7zVUAmc/eMwJ116jQpwsKlaekkpB4lKuYIAdt24ei0Dj09G+Yp6DBp8ggYMvILkBm3CNnxyshMWIzsJME+ypIfeu6/BfccY6TnmP4ZbAXzEZAVLEbAFsZnK1ohpWj5k+EWtLfM5I8SaaIa0uNVkB6vLIYuJ05VRUFJD119CSuc3PDfupP90YeITUwiPuWo2AZZJ06Nwv1LAvtT9n21tBpNey+UHHag4BzGHNe9ouYWZIkAt+C5F2w7hkpQFqoh2SwIPcOkoGwUQs8Qk5WDCHd6BvEpaeJKvQePxBEVE8v+6IMEh4Xju2Ubq902YW3rhLaeNUqLDJk+W5sJ0zTESInMJDWkJ6ohNUkDqckaSE3RRHqqNtLTBEmiK0oI0Xt/13P/A3CL3n6WEdIzDZGaYYDUND2kpukgNXVEfwtwC53KCTO0mD5HB8VFRmjqWWNp44jLqvV4+vizMyiYsIgIIqKi2H/wENGxccQmJo/C/VPA+1dse6XkNio2m1Cw38bcFSGi5xY6lD+EW3nXCNwa+3NRjbyIccwlks9cEEtCJB37M9yC546IOkhYxAH27N1LcGgoO4N3s3XnDnz8A9jo4YHrajeWLHXGzNIBbQNrVDTMUFQ2ZuZ8fabM02PiHF3Gz9JFbpYeMjP1vtXIUgKQs4yRmi2YKWM/6et5FoyZZ8mYeVZ8rWDN14o2jFGwZowgUQRvPtecsXPNRBkjM8cEmTnGyM81ZMI8AyYrGDJ9viFzlY1YoGaKhp6lWDHK2m4Zjs4rWbtuPZs8PfDx9yNg2za2BwYSuHs3waFhhEXsJyL64Cjc/wpQP+czhFV9h4eHv11IqPBmDQss3Zltu5XZjiHMdhE894EfhVstIhf1yItIEgs4mX9NrIN9/GQ2CanHOByfQOTh2G/hFjy3AMK2nbvw37pNhNvTxwcPT0/cN21k3Yb1rF6zGmfXlSxf4YitvQOWNraYmFuhb2SOlr4ZajomKGsaslDNAKXFBsxT1meOsj4zF+kzY6E+0xcaMH2Rwcj9QgOmLTJk2iIjpisbMkvZgNnKBsxbrI+iqgEL1A1Q1jAQp4Rp6Rujb2SKsZkFFlbWSOxscVjmwAonR1xcXcTvtXadG+vc3dnksRkPH298AgLYsn0HO4KCR+H+HNj+VdsIJc/KysoICdkjLqrq6eXBvoi9bA8OY4GJC7MkAcxaEc7MlfuYszaSOeu/L0s+eW4BbrXIC9gkXOFkfhGXC69y7mI+J8/kkHLsOAePxLM3MpqQvREEh34fbm8/fzZ7ebNx82bWbdjAajc3Vq5ahbOLMyucVrBs+TLsl9pjt0SYNW6NtbUlFpZmmJkZY2xsiKGhPvp6uujqaotT2rS0NNDSVBdnkGt8nLMozFsUHmtqqomvaWtpoKujiZ6eNgYGuhgZ6WNiYoiZmQkWlubiZ9hIrLGztxU/e5njclY4O7HS1ZXVa9fitmGD+H1H4f5XkfozPkdYAtvX15cDkQc4efo0h2MPs3HTRkxMjVi4WJXZaobMMnZhlsM20XPPdo9FwSsRRb9UUXP/NbhP5BeRX1Aowp2Td5Hs3HNknDhFfFKKqLl3h4azMyiIrTsC8d+6lR+D28nFGccVjixdthQ7+yVIbCVYWVthYWmBmbkpJiZGGBoZYmCgj56eLjrfgVvzI9zqGmqoq6uKJpRLEEx4TTgBdLS1xPfo6euK+zAyNsTE1BhTc2F6myXWNtbYLrHF3sGeUbh/Blz/K9/y4cMHEhLiCdwVSP/gEO8+fBBrjAwO3aeisoL4hDjWrHJBAERRRZ25ulbMsduEwrp9KPqlsGDnCZR3n0Y19Awjnvui6Lk/wS1Uij17Po9sYZmOs7mcOJ3NsYxM4hKT2Lv/gHgZ9w3YgqePL5u8vP7Cc4/CPTJB+Ns5lKPTzD7/dHny+DE7dmwnMSVZhPrx02c8fvac569eIywPLaxqMPzwIQmJcVhammBooIPKYhXmLVZnrulSlFy3syggEdWws6LeVjt4BduUYk4XlIiy5M9wn+PUGSGCkk3WydMja9EcP/4R8ki27QxE0NwbNm5k7bp1YmF4QZaMwj0K9+fT/IMtOzs6xDXec86d5+nLV9x/+Jj7j56INvxEWEbvOd/8CcoqKnB0cmCz5ya2btnKShcnjAx0WaSsLJZvULBZieLyzcx19MBoaxRpZ/MouDay6rCgu8+cO/8t3JknTnE8M4tjGRkcO55BWno6CclJRB48SNDu3Xj5+LDGzQ3nlUJnckRvOyx1YMm/gSw5MJrE+QGBv+DTiooK1qxdQ/GNmzx4+oz+Bw9FGxh+yOBH0F+9fc+NW6UsUJ6LnoG2uPCRsNrXvn372b5tGyuWLxVBNzLUx8LchEWqi9E1MBBr3R2MPcKJ02c4d/ESOecvcjL7LN/CLYJ9nNS0NFI+WlJKCkfi4tgbEcHW7dtFT+7k4sISB3tsbG2wsrEWtfD/iZr75MlT7E0/y8RdJxkTMDq25LOxFpb7ECrt19XXUVZeRl1dHY8ePfq77z93LhfXVa7crr9L38NHdA3e/9Z6hh7Qd/8hz169JS//EnITxjB1xiSW2C/DdeVqfHz8xJW+hOXtysrLabrXSEdHO3nncgkI8EfopM2fr4S1xEaUHFEHD3E86wSnss+K2lt4nHZ8BO7ko0dJSk0lOSUFAXDBEpOTiYmNZe++fWzdvo0N7htwXLFc7OSZmplibGKEkZEB+gb66Ovr/W/doUw9lk7myVO4xJxh7PaTSI3C/XfZ5N27d1RVVhITG4O/vx+enh54eXvh4eHB1m1bSEs7Sm1dLc+ePfurOztyJJb1GzdQ39JOx+Awzb2DNPcO0NI3SFv/EB2D9xl+/or41GR+/9V/MnvODKyt7bC2sROL4tjZOZCakvYX+xZOtjt377DEQYKsnBSKigqoa6iLYHp6e3Eg+iDCD56RdUKUJp/gTkpOJjEpiQTBEhPFx5/+J3h0ocps8O5gvLy8cFnpIkZPBMh1dXXQ1NJAQ1MddU11MRryv0O05FBsHMlJwno2x1kXn83E4GzGjJZ2+Ate/uIfL1++JDMzU6y0v2XrFuITE7l4+TI3y8rIv3yFQ4cP475xAytdXdi5cweZmRnU1n4f9O3bt+Lt709jVx9NPQPc7ez91hqFOn59Q3QPP2HHniD+67f/g4XKC8TqpMKCoaamFjg7raSh4Z743d6/f49gQgTm062ltRlDE12mTJ+Mjo4uyioqzF+ghJqGmgimUHc6Nj5O1N8i4D+AOz4hgRGLF6vKCuALsCclJREXJyyrF0lwcBBeXp7icdraSjA0MhDhVlVVQUVlESqLlVm8WBnhuZraYjEk+EuGAneHhbP3wAEOHjyIAPeOuGOYR59Bbk8OY4T5paNwf8Ljx++vXLnMpk3upB47RkNzM32DQwzcHxZtaPgR9x8+orjkOv4BvritW4uTszNOzk6ihz9+PJ2r167istKZ4L17udvZT21bD9WtXdxu6aK6tZuath7udA9wt2cA57Ur+e/f/T9oaGkgsVmCpaUNxsZmxCck8ebdO4SSxW8/3gteWzAhOSTcrhUXMmP2ZJRVlMVloU1MzNDS1mbhwoUoKikgSIzgPXs4euwYKamp3/Pc34U7PiGeEUsgMUnw6omkpCRzNO0oR4+mkpScROyRGCIi9hEYuBNPz824uDiJSR8hyaOtrSnCLYAuQP7PinN7+nrjt3WLmH4PDgkhJDycoLC9bIxOxTT2PFMj8/k69CJjhYoAo0V5fhzoT68IXnv/gQj2hIbS2tlDd/+QuDpYW3cP7d09dPT00j/0gI7uXsL2huDptYkDkVHsCgpizZo1SCQSTM1MRC92KCGZ+q4BKpraKbvXxq177ZTea6dMKC3c3sfNu83omxvw+y//AwMDI2xslmBiYi6uwHW3uYU377/5WJf7HW/fvkOoxy0C/tGDf/jwDZu9NjBj1mRs7ZZgb79c3IeVlQ36BoaiLldVW4xfgL/YuRR09ydZ8mNwC7XBBUsSLFnw5kmkHk0l7VgawokrXNEyMjJITxdWCE5GkF8C9Lt2BeLr64OT0woRdu2fkcQR+ihC+l0YJuDh7YW3v5+YhNrk6YPrancsLZeySNWMCaZujNl8hDFCtan9V5AOGa1b8onfv3n/+PFjdgUFiiuOtfX009TRTVN7F80d3bR0dtPSJQDeh9ApDD+wlwXK83Bbt44QIcoRcYDQsHBRt7q5b+DEhXwqW7spaWihuL6Zovomrgn3d1ooa+kht6SMeYvmMEb6D2Jd6U+SJDH1GI9evOLJi1diXPzlmze8fvOWt+/e840gT7758O1yfZknM7BzsMZbgMHbj9Wr17J8uTP29kuxsLAWvfoilYXi8hjJQsdSkCeJCSTGx5Eg2hFxfUxhjcyE+Hgx8SQkn5IS40lKThThTk5JJiU1hTQB8rQ00tPTyczI5MSJLE6fOsnZs2cQOtD5+Zc4fPgwurpaYhpe52MK3lBPF2NDPUyMDTAzMRZXNLC2NMdWYoXDEmH5FAfxyufi6soKF1eWOq7E2tYRQ5MlLFY3Y/ZcbSZMXISsjCIywqSMsbMZN2ER4zSXIrchGunQvJHSDqOy5G+yjeC5w8JCCd27l4bWThraurnb2kmjYG1d3GvvFoHvHhzm+KmTTJwqy2K1xaxctZa1bhvw9vIlKDiEc1dLuNnYTlF9M4W1jVyuHrFL1Q3kVzdSfK+TpDPnkJ04lvGT5LC0tMbMzBK39RupudfCg2cvGH76TIyRv/y4qoIAtyBTvvlmZHWFV2/ecPBwFO6b3Dh06BCxsXFEROwXl5729PRm7dp1OCxdjpq6Gsoqi1i/wZPgw0cJPZbDgaMnOJR6nNiUNI4kpxKXlCz2LUTPnRBPogi44MHjSU5KICU5gbSUZNJSUzh2NEUsiJ95/BhZGemcOpFJ9qkTXDifS0x0FLrqKmgtXoSuhqpY/N1QXxcjYyNMLCwws1uC5XInbFxWY7N2E9buAZh4BqPm4I6CshEzFfSYNFOTcZNUxXHo0nILkJGbj5z8gj/XLRFmvwtlLf44nfETFiFn4yMWCRULYY5GS34ccOGyL3gxIeFRUd/InZZOapvaudPcIULe0Nol3rd093O9vJL5KgpMmjpOLPlrt2Qp1tYSVq9ZR15JmQh3Yc098qvucqHqLucq7ny0u1y500ZgZDS/+f3/ZPqMKVhZSrCwsCExPYvO4cf0Ctr+yTOevHiJAPfrt2+/1eDCdxRulwsuo6ymhIWVKUHBu8X4eHT0QQ4fjuXQocPs2xfBrl3BbHTfjLq6GhrqWqzdegCPjOv4nalgZ04ZIeduEXG+lOjzN4nJK+FI3nUS8opIyrtKyvkCUs9f4ej5fI7lXSb9fD7H8/LJuHiFrPxCTly+yqkr1zh9tYSz125wobSSw7n5aPntYfHWCFSCY1iw7yjzDp9hQeJFdI5ewSztKtbHirBNK8Yq6SqGsQUo7TmNvN4qpIRJChMWj0yq+FghSygDJ5SDE8upfSrK893SDmOmM0F6DrJ2/kgHjtYt+XGyP76Sl3eeNWvXcqmohDtCB/BeGzWNrdQ2tVHX1C7CXt/aSW1zO5Jltvz+y/9E38CIpcucWLNuI2FRMVyprKOwppFLlXc5X15Pbnk9Z8rqyL41YuduNxESn4KS6nxUVJUxMjRh/SZvSu820zY0TNf9hww9esqj5y/E9P2rN2/FBYmEhVWF25OnT5HYW/LbP/y/Yjza2XklK1euwt19E1u2bCMkJAwB9JiYWI4ciWfDhg0sWrQQR+cNeIQk4Juaz47cSoLz6wgvvMuBonscLGkm9mYL8eXtpFR1kFbdTXpdLxl3+shqHOBk4wCnm4bIbnnAmbaHnO14RE7nY3J7npHb+5yLAy853PkKtfKnKFW8YM7tN0ypfo98Hcyo/QaNqheYlT7AtrCLJecasDh6A/WdaUwxXY/sNM2PE5d/Tt2SqcjPNRLruojFi0ZLO/w448JovrVua0j5/9l776iu0yxf9/5x173nzOl7zkx3VXdXsgylFcw555xFRcRAEBUk56iiKJIkSc45/sgZJOecMyJBMIeyklUd5rnrfdGamjPTM6f7zJnpqSrW2usLP9DFWjxsPu9+9/7sxGS6hsdp6Rmite8Orb2vn/13aO0fpmvkHldcnFi8YgE29ldJyCqgsLaFsvZ+m0/KowAAIABJREFUitteg93UTZaEuoPUunYUte0k17SRUtshI7a4Gu+YRMwvOxCWlE7XvUcMTD5i9NFTHj7/nOdffi11t5Agbw6V4jtPVCTy2/f/jk/mzpEVlmPHVBGhqnoKNTWx91wHExMzLl26jKenNza2trJ0d1pdB3MrJywuuWPrHsGVyByc06vxLGrDr6KX4LohwpvuEt06RlzHPRK6Jknqvo+i7yGpg49Ju/OU9OFnZIy8IHPsJVkC7MmvyL7/DQWPvpVwb2n6gtUtX7Os/XfM6/wjc7pgcfvv2Fb7hP25fewPL2HrpRCWqpgyZ+UhZgirCeFX8hdYOwhzotnvzGXJhiN8eiVpyqD/Z7j/NNyPHz/G0soCN69btPbfpbFnkIbuAfls7B6gQXzcM0hj7xD5VXXy4FjTNUCd0NidgxLsghaRsTvJauwgva6d1No2CXViVQsJVS0kVrWSXNtBZlMv+R2DFLb3U9U7TNvdSfomHn4P94vXmVvsaxElQfH28PFjdu/fzi9//Qt27NjBcZVTiMPoD0OAfvz4SQm6trYeSocPs2HTRs7pWmBu7Yy5tROWNs5YX7qJnaMvV7wicQpNwT2xAJ+saoKLWwmv6ia6YZD41lGSuyenMvfgY9LvPCXj7nMyR1+QNf7yH2Vu/zsv2VR6j+V5wyxK7+XT2CY+8r/NJw5xLNB1YZ6SIXPWqUyNtH26Wc5O/qW+JbOFvcO7C1j22Rp07FxY7JLJ+z9r7j8NtviMuDDxcL+JpY0tVS1dNPXcoa6jj7rOfmp/EDWd/dT13KGhf4SqzgFK23q53dJNQXMXeU1d5DR0kFnfQVptGyk1rSRVt0qw46taiKsUkLfKTJ7R2EVRxwDVYlf78AT9Ew8Zf/yUxy9e8vK15v722+9kKVB8f0GhQfzqN79g3sLPZLYWIP8Q7Dfvi5q5isoJeSkkLngOKB3D2Pw6JlaOmNs4Y2nnhvVld2ztPbC74smla97Y3/DlmlsQTl4RuPrH4RGqwDs6A7+EXAJTigjJLCMsu5KoglpiihuJLWkitriR+NImUitacYrJ4dNjFszYq8uMrZrMWKvCdDEtP38X0z7dxoci5u1ghrCSeG0n8b9q7fDGCHP2zJXM+GCxNCZau3In1646cSs5hwVOaT9bO/zLaE99Nj0tjXM62mQXV9DYO0x1Wy9VHf0yKtt6qWzvk1He3ktZey8lbb0Ut/ZQ2NxFvgBbZO369qmsXdNKcnUrSa+z9j+GW2TvLora+6nuu0vb3QkGJh5y7/Eznn7+BV98/c1UGfC7qR2JI2OjbNyylrd++9/ZtXu3vPh5A/OfeorredFOe1bHHBPLG5hY/mO47a56cenaLS7f8OWKsz/XXANxdAvGySMMZ69wXG9FctMvGs+AWLyDE/AJTcI/QkFgVBpBMZmExmcTnphDfPptrt4MRcxMvj9feJzsZfrCvXIwePpiYenwJv583xLhMz5TWlcsY9aM5axcth11dV28fAJJz8zEOzH7Z2uH/xWwxde0t7WhoalBSEyCzM4VbT1UtPVS1tZLeWuPjLLWHkpbeyhp7ZYZu0iA3dhJbkPHFNi1bVKOKKqn4BZSJKGqmfjKqUisbiOlrpPslh5KOgepGxihc3SSofuPmXz6gudfTB0mRY37zXLVm56u/O1b/5UlyxbJrK2s/A9Z++iRYxw5rCw1uABdZPQDBw6xevVKlI6ewMjMAWPza/8K3AEyc99wD8VZZG+fKbA9AuLwCkrgVmgyvhEpBEiwMwiOyyYsMZeI5HwSMktw8Ipk5mplPhA2EH+hb4l0e/1kAzPnrENaU8xaLU30FywQkz5HOHveiBuuHoRFxxKTqCA55Wdrh/9VruXXPXn6BEMjfexvOFPR3kdZSw+lzd2UvImWLkpauilu6eZ2cxeFTZ3fgy3kSHZTN9nNPWQ29ZDe2E1aQxepIhq7SKnvlnpbHCozGrooaOuVFztNQ2P0jj9g5OETHj3/nM+//Iqvv3mFkCTirW+gn+VrFvHb937Jvv37UTl+ckqOHFVB6dAReWkjXhOAi9KigHvz5k1s2rwFLW1zDEyuYmDqgLHFv5S5//3gFtJkhpAowrfk063SbmL6x5tkOfCjTzYxd+FWVqzew849KqhpXMDC+pLc1+4bFCR9S0Iion62dvizqP7BF7u4OHHm/Hnyqhplhi5q7KSwsUOGeP/NxwWNHRJsUfYraO0lu76TmMIKvONSuOobhKWzB6bXXbBw9sDePxSvxAxiS+vIae2jqHOIsu4hWRNvu3vvHyTJy5d8+fXXvHr1rcza4kBpc9GKv33rb1ixark8LIoOwiNHVaSmPnfBAI+QKELS8rF392H/wUNs3bqVtevWoKl1DgdHTy7au2Fl54y5jZPU3BZ2rlhduomNvSd2Dt5ccvTF3skfB9cgHN1Dpe52uRWJm280f07mnrFamfeXHpqydlhykA9FCHuIN74lC6Z8S4RPyqz5O5i9cAefLd3J4lV7WbvpEDv3qqB8XINzOvqIq/fLVx1wdHbBxcMDd+9bP/uW/IDRv+jd8XvjGBrooXr6NKm3K2WWLmzooLC+nYL6DvJFNLST39AhL2mKWntJLqnBJSiCsybm7Dp8lNWbt7Bk1WoWLFvOvKVLmb9sGYtWr2bN1q0cUD2F+TVn4vJLqR8Yo330Pj1i8++Dxzx49kKOpH31jdDb3/KHP/49j58+Ze/BXbz9zt8iGqREyU9k6MNKR7G+fI2MqibKhyYo7r9HTucwpo5OLFoyn5Url7P/4H45OHHt+nW8ffzwCwzFxz8Ed+8AXNz9cHL1xdHVD0c3fxxvBuLkHoSzZyiu3hG4/SNZkvgnZEne97LkmlckH61W5sNlB5m14hAfrTjInBUH+GTlfuau3s/CNftZvn4/qzcfZNPOw+zer8yho6ocP6WGptZZdHR15SCF6C2xvmiL7aXLEu6frR3+Ioz/6T8SpUD7y5fkdMqtiFjyXsOcV9dGXn078lnXLrP17dY+FMXVXL7pxQEVVZauXsO8JYv5bNEiPl20kE/nL+CTBQv4dNFi+bF4f87cucz+7FPmLlzIll17uOJyk9rOPsaefs7E42c8fv6Sl19+LSXJN+J2UvSV/OGPJCiSmDN3Jps2b+aokB0qqrjdCqSq+w51dx9wu/suOW2D5HbdJb25lyPqp5kx6wPWrV8nL3A2blrP4SOHMDQyxNnFWba2RsdEyW7BkNBQRASLCAklKCSM4NAIGSHhUYRERBMaGUtEdDwRMYlExSYTnaAgNjGVREU6yWmZciLIyy9I+pSs2bSDjVt3sWX7brbv3sPuvfvYd/AAh5SU5MTPcVUVTp46gfpr35Kz58+ic0FHjsEZGP9s7fBPqfwXXhFX1nfv3qWzs4MHD+7L5qN/7ss///xznJxuTIEdHkNBYzc5tW1k17TKyKltJbeujcLmbnLq23ENikBJ9SSLV6xg3uLFzF+yhHlLlrBoxUrWbtvOXnGxcl6XMyZWnLOw5byFLRoGJhw9rcGWXbtZtHQp8xYuQF3rLGU19bz46hUvxMWNKAF+84pvXr2SlzhfvfpOfs7Uyox33n+LY8dViUpMo330Ac2jjyjvHaWoa5jc9kGyWvsp6h/HV5HJx/Nns2LlUpnld+3aIxupVq1eiegWFB4ixibG+Pr5IJqjwsPCppqqIqa6AiOjIhARFR1JtOwpiSZOdAfGx5GYmCD72BXJSbJ5KiM9jfy8XAID/Nmzezs7d2z53rdEtMUeOLiPQ0oH5OZiZWHtcPxna4d/jr8/+7Uvv/yC5KRELl60xdLaUj4DAwKoqanm4YOH3/dHi/p2QIC/zCyu/sEyYwuoMyubyapukZFdK8DuIaGwAl0LG1atXy+BXrB0GQuWLGXN5i0oq2th6uCMa3g8/ml5hOWUEVFYSfTtGhJK61FUNpJWUU983m1u+gejce48y1euYP/BA5RUVLxudX3F1998w9evXsly4IsvvuaLb/9AXUsbquoniUpWMPToJe1jj6kZvEdZ7whFnXck3NltA+R1DlHUc5dTujpMm/FbKWWOHz8lKymirXbHjp0yo4u+bwG5t7e37Bj851pe/0lXYFwcCQlTcCcnJ5GamkJ6ejp5eXmvuwJ3TPV079ohR+KE98nPviV/Nrb/+j8Q42LxcbHS1sDZNxD/uBQc3G+hb2qOuqY6pqYmBAUFUVNdLTPU4SNKXHJyI72qhfTKZtIqGkmvbCKtoonM6hbyGjsJTMrg8MnTLFy6lIXLRCxjzaYtnNYx4JpfKMEZhUQWlBOZX0F4fjnheRVEFlQQc7uapLI6MqqbKWzporp7iDZxvd9/h9ik5KkZxkMHqWto4I9/j4T7y6+/4eWX3/D05Zc8fP4F9558Tu/oJHcePqdn4gnNw5PUDLyBe5j8jiHyOgZllA3eIzAti48+m8HylctQOX7q+0ufqYsfFfbs2cuKlSvkBLyYwBGTOP9zP/fPcP/rnP2pr/i//tQn/i1er2+oQ99QH6db/sQX1xJXXEtMUQ3h2aVcdPVg196d7Du4X/5w9+zeiZ6ZBQnFNaSUN6EQWbasgVQJeDPZde24h8awbe9+5i9eLMFesmolh0+p43AriNCMIiJyxQ3ebUKzigjNLiYsp0S+Fl1QQXxxNSnl9WTVNFPU1EFVZx/N/cNyDO3hiy/o6R/AytoKrbNnGLozzO//8Ed5Qynq3Y9ffMnks5eMP/mc0SdfMDD5lM7RhzQN36d6YJyynhFudw1T2HmHws4hCjsHKekbobCzn91HDsrsraR0ZGqYQd5oTvWiqBw7IcfUxA2mtY2V7Nv+Ge5/C/Km/o//Y3CL4V1n5xuY2tgRnn2bsNwygjKKCM4sJiy3grC8Sqycb3Lg2BGML9lj4eBEoCKH5PIm+YuQWFxHcmkdqSJr17bjEhjBpp07WbBkiczaazZtRs/6Iv6JmUTmFBOaWUhweoF8CrjDsosJzykhKq+MuKJKkkpryahqJL+hlbLWLmq7+2kbvMvA2AQTD5/w5Tff8uTZM1zdXHFyduL55y+nXvt8KmtPPP2c0UcvGLr/jJ57j2kfeUjj8OQU3L0jFHcNU9x1h9tdQxSLPvK+u1QPjWN8+SLTZ70juwdVVU//w+WPbLY6IaXKunXrZM+1n7/flP7+wSTOf4bM/ZPzLamsrEBPXx/38BjCc8vwTyvEP60A39R8/FILCcgoJjSngsuiJBYWR2xxPdEFNcQUVBFTVE1CcS1JJXWkV7fiHBjOxh07WLBksQR769792Ll5EZpZRFhGISFpeYSk5xOaUUhYZqHM3gLsyLxSYgrKSSiuJrW8npyaZoqb2qlq76GpdxDROismfsTo2tMXL+SFzfMXn+Pr50t2bi5fvPqORy++4P7Tl4w/fsHdB88ZmHhK19gjWofv0zA0QU3/OOW9I5T2DMso6RmitGeIcjHWdncC96BA9uzbhrq6Ojo6eqipaXDyxGkpU5QF4Con5JibOGiaW5jJ7B0RMTWFI8bM/trhTk1JxSk2g9nXUpj2U2icevXqFd5enpjb2hGSWSgztq8in1uKPLyTc+XTJ6WAgPRiQnIrCMkpJyynnIjccqLyK4kprJLZO7WqBY+IeLbs3sN8AfaypexROsp1v1AJcXBqHiJC0vMIzciXr4VnFcm/FJGi2T+/jPiiShSlNWRWNlBQ30p5S6cs/bUN3KHv7hijkw94+OQpz56/4OXLl3KcbHxiQloziNG2Jy+/4t7jF4w+fM7Q/af03ntCx+hDWobvUz80QXX/OBV9I5T13qWsd5iy3juU9w5Rf3eS4vZurjo5YGZmyM2b7ri5uUvzHzGSpq9vzJkz5zh9WniWnGD9+vXSBFPYWYj5yDczlH/NcMfFxROdlMphnwzeF2NmPwW4x8bHZFXE6VYA4bkl+Kbm4p2Ug1dSNl5JOXgm5eCtyMc3tRD/9NsEZZYQnFUqKxvheVOAJ5Y14p+Uxe7DR2VFRIJ95CjOgZGEZhQQlJJLUEoOwam5hIqsnf4G7kIism8TnVtCXEEZycVVZJTXkSeydmM7Va3dNPUMSE8TMZN57/7D7+H+/POXvPziS8RwQnffAHVNLdx/9pKxxy+4M/mU/onHdI8/pn30IY13JqkbvEd1/xiVfSNU9t+loneYyv5hmkYnKWxpR9tEny3b1mJgqI+3tw+BgcGEhIQRGhrOrVt+3LjhjI2NHYaGJigdPiJ7vkUpNDp6aur9rzFziw0SgUFTh99bUYko+2Xw4fV0ptmn/DTWY3d3d2Fta413VBzheSX4puTilZSFR2K2jCm487iVko+vlCtFBGYUE5JdKiWMOHRG5JaiqqXN/MVLWLB0CbsOKuHoHyYztVjfEZSSTZAih0BFtgQ8LCOfiOwiouRoVgkxeaUkFJSTUlJNdlUDhXUtlDd3UNfRQ1vfIH3Do9wdn2Di/kMePX7C02fPEZJEaG3Rx/308y/pF18z+ZiRh88YnHxM771HdIw9oOXufRruTFA7OC7hruoboar/LjUDd2kdf0B6RSUHVA7xzvu/ZO2G1WicOYuBoQnWNnbSzcrHxxf/gCAJuwDezy8AS0srNmxYLw+1bywd/lrgdrhxA+eb7nj5+uITHIxraAwXghSs9szmgxvZTPsp+ZYMD9/B1s4W14AgogqE3hZyJBvPpCzcE7PwSMrGMzkHbwF3agF+aYUEZtyW2Tsir4LY2zUYXnJg0YoVUo5s2rkLew8/AlPy5AHSPymTgORMglNyiM0rkXXr3IZ2CkUjVWuP7BIUfSi5tc3kVDeQW91IcX0rVa1dNHX10tk/xMDdUUbvTTDx4CEPHz/hybPnPH3+gqfCMPPFS1khefD85ZRj1WuwhVWEsIVovDNB/dA9agbHqO4fpbr/LvV3xmgZmyQ8LZXVm1dLy4h1G9aheuI0Yr5TxCk1YfR+Hl19I0xMzbGzu4SzixsBAcHY2trJQeKLl+y+9yv5j4Lb1NwcSxsb6TF+9fp1HJ2duerohLm5LScNbFl9LYbp3iW8517Mh84/Md+S7779jqCgQAxMjOUYlyjLiewt4PZ4DbdXci7eijx8UvPlYTMo4zYhWaWyVOgYGMHaLduYt2gxqzZswOyqEwGKbHwTM/BNSCcgKVNCLQAWU+6Nw/doGJ6gYWic+sEx6gdGqe8fmfIq6R2SB8jShlbq2rtp6x2ke3CYoZExxu5NMvngIQ8ePebRk6c8fvqMx0+fS7PMB08/Z/KpgPsZ/fce0j32gPaRSZrv3KN+cJzagTFqBkZlNN2dpGF4DCd/Xz6eN4v3pv2anbt3c0pNk5OnNDh+4vRUHD/FcVURU8CrqZ/hvLYuunoG7Ny1i117dnHL59a/j+Y+cZxTp06ioa7G2bNn0NHVQd/QQPqWiJ04phaWGBqbc+asPkpH1Niw8QDz5q5nxsxVzFi6l5kqlsy8HM/0mwVMd8z8aTlOjY2NSruzc3q6uIVEEpRZyK2UHLyl7s7GW2RuRS4+KQLuAgIziuSFS1BaAUon1eR1+uIVKzljZI5PfDq+CWn4xKVKKZJV3SwBbhu9T+vIfVpG79M+/ojOicd0ijLd6H2aBsdoFgY8YoL+zhhVze1kFRXT2t0n5cYdAfeEgPuBNKh/42olnvcfP2Pi8XPGHz1n+MFTesce0DEySYv4BXoDtszYIzSPPqCqewAjWyvem/5rZn88A6UjyqhrnpdwnzilwYmT6qieVEP1hIjTEm4BucjmR44ek70n69auws7OhijhVyJKgaJiEhFOZOTUFXxsTJT0SBSXYlMGPYlM3VAqSE9PQwxWB/j7s2vHNrZv3czOHVvZs2s7+3Zt58CeHRzcuwsl4Vh7cB/HjhxC9dhRTon+Ei0t1M5rc1L9DConNKeWUu05xtqNB1i4ZDtzPlnPzFmrmDF9BTNnrGD2jBXMmbZoKpbtYaaO25RvydXUn4bmflOGHx0dwcHhCupnNLnq7UdARgG+AvDkH8KdJ+EOyrxNVGEVJlccp+TI4sUcUDmJa1gcvvHp0usjLC1XTty0jT6Q2rfz3iO6Jp5SPzBCdmW99M+Oycglp6KO5sEReu89pHN4nC5pCTFGSnYOcUkKBobvMjJ+jzEhS+4/kNl78uFjREw8fMy4cIV98ISRB08ZmnxC18h9Wu9M0Dh4j7r+Mar7Rqnqu0vt0BiZlTUc1zjFb979WxYtW4DqaXU0tXQ4raHFKbUznDytiQT81A8AlzJFXZoBrVm9ki27dmLn6EREfCLhMbGER0ZNVUtkf0nklL2agDsmhrjYWBLiYklKiCc5MYFUhYA79TXcfuzaOWWeuWvPbnYdOMAu4YB1WoP9Zy+gpGeKssUlVC65oHLDlyOeMezwTmbZSVPmLtzG7HlbmfnJRrmHcsbstYiY+dFaOazwZsxszhtrB7Ea/L35zPl4DTPPOf80rR0ePnyIq4szysePYeXogn9KLn6pedxS5HBLkYtvSh4B6QXykscjJgVRw/5s4ULWbt6Kras3PgnpeEYlEZKaS1lnPx0C2PGH9D14Rk33IB4h4Sirq7Ns7VpmfvIx02bN5NOFC1E6rkp4QjJ9o5P0j03SPzIu5YjYpZiQnMy9+w8k3OOT97k3+UBWTcbvP2Ts/kNGJh9xZ/IRQxOP6BeHyLuT8i9BvcjWvXep7LlLdf8Ilb1DnDyvKc00121aj+a5C5zR1kVdSzg3nUNN4+z3kEuJclrjdTZXZ+++/axavYK9J9WwTy0lpG2ckKYhwur7iWzoI7q+h9jaTuLrOkmoaSOxro3k+g4Ude2k1LaSWtdGWkM7GWIoo32Qgp5hAqrb2RaWy7qIQlYnVrM0pYkFmd0szx9ke/EwhyvHUK2e4FT1JCpl4+xMamWBiQ/TxZ5LuQR2MzM/2cRHn27ko0828K/6lsxYxsfvzuWj1YensvZlBdN/atPvwibN1/eWXGhkZHcZH0WWBFzocL/UfALF5UtuKdoWtq/LfsvR0DfFKzYFj6gk/JMy5Jxku8jU9x7TM/GUxLwijmtp8tniBUybPZP3ZkzjNx+8yy9/8xb/7W//P/7v//f/4e133sHc9qI08rlzb5K79+5TVlmNuaUFldXVTD54xOjEpJQnQqKMTDxg+N4DhoSV2/h9+sbuSzPNtjsTNPSNUNt7l6qeYSq678jMLQ6SKpqnpA2yyik1dAxMOHNeF83zumic1ZGQq585z2lNAflZ1DTPyiwu9PjKFctQOn2Gq9k1+PU8JaD3KSH9zwgffE7U0Avihl+QcPdzkkZfkjz6BanjX5A28RXpE1+Tef8VmQ9ekfXgW7IffUf2499R8PT3BNz/PZu7fseqrj+ytAfm9sLsPlg0ANt6/54jrS9RLh5mf2QZ6639mbvn3NT++U+EvcPWKYuHT/88uGe/O4+5K/cz53I8H/4U4RYyReyC1NE+x6kzWvgkZ+Kfnod/ai7+4hImp5ibUYls3r2HzxYuYNv+g1zzD8MzWoFXTDK5da10jAsJ8lhmbf+YOLYf2suClYtZtGop85cv5pOF8/ho7id8OHsm707/gLff+S3/5Rd/w3/9xS+wuniZO2MT3Bkd5+7YPW56uHPZ/jLDrw+VQqIMj09wZ2ySQZnlJ+gdmaBrZILOuxO0DI5T1zNMdfcdKrqGpOdgpZi8HxrD5KINb7/zPziorMwFQ3POXTBES0d/CvJzF9CUkJ+XsKueUmfLtq2sWbMaZVU1rK56ctUvgeuRGbill3OruJWA2n7C28aI6X1A3MBjEoefoxh9Sdr4l6RPfEXG5NdkCbAfCrDfwP0dBc9+T8C979jc8gUr6z9nac0z5pZMMie9n7nhVSx3TmK5vivzD+kze/URpn+2hRmfbGLm3G3MkvHnwz3z/YXMnbGEE7p2LHLJ4IOLSUy3jWO6ZRTTTcOYbhjEh3r+fKh9iw+1PJiu7srM0058dPJHthOnr7cXTS0NrK47E5RZgF9qNv5puQSm58uLHm0LG+YvXcKSlSu5YHUJz9gU3CMSSCgsp3X0Pl0TT+ieeIx/TAw7D+9j7Y6NrN+5mdVb17Ns/SoWrlzKZ0sWMGfeJ8z4+CPen/Ehv33/Xf7mv/+C37z3HpGxcYxN3md4bJzisjLU1E8jduZM3H8koR8cFaab4/QJf8KhMbqGRmkfGqd1aJxGIUe6hKHmEOWdg5R1DlDRPUjDnTEcPN35zXt/y64D+9A3tULb0JTzesacvWAwBbm2ngRdTLts2rxJenmf1ryA1cWb0tbBRniXXPHgsuMtrooRM69IXAIT8IjK4FZiPv7ppQTnVRNW3EhURRvRle3E1nST0DhAQkMfSQ19JDf1k9EyiFtWNQuMvZit5cBHopqx9wLTN6sxfcVhpi/cLddxT/t0i1zJPXP+DqZi+58N96zpy/jw3QXM+3gNRnpmeMSms9D5J2ztkJgQx2lNTVkaDBZwp2QTkJZLWM5tvGIVbNt/gE8XzJc3kk6BUbhHJsmSX3XPHZmxe+8/IyEnD2UNVXYe3sPOI/vYun8nG3dvZe22DazcsJolq5cxf9lCPlk4l1mfzmHarBm8M+09/ssv/ht7DuynvbuHO6NjsgPQxNQUKxtr+bG4Zu+7M0LP0AhdgyN09A/T1j9MS98ITf0jMmtXdvRLNyvhaFXW0SddYxuHx/AMC+U37/0dW3ftwMjSDl0TS3SMzNE2MOG8nhHndA1lHDpyVNoaq2nqytlJAbfwLfne2sHRB3snPxxcAl5bO4Ti4hkmx81u+kbh4R/LreBEfMOS8Y9MJSg6neDYTMLis4lIyiUhvWjK2mGJsHbYzTRh67Dg9arthcLO4XUs+kusHdYya9ZqZkxfzvRpS/ns4zXs2a2C/VUXUtPS8UnO+elaO4ieDXv7SxhaWBKSmUdQeg6BqdkEZeQRlluMqcMNFi5fLidqdK0u4hmj4GZEAhmV9XTce0Tvg2eUNLeja2WC0umjHFEp46jDAAAgAElEQVRX4aDqYfYc3c+OQ7vZsnc7G3dsZs3mtSxft4JFK5cwd/F85sz7mBlzZvHrd9+RmTwqNl7Kkv6hu/gFBCD6x4UGHx67R/fgHXm509Y3REvvIE3S6WqQ2q5BqjoGKGvro6S1V8YU3P0IuIMS4vntB79i3ZYNmNhcwcDCFl1Tay6YWHLB2BwdQzMZQpOvXb8OLW1TLC/e/N6U53u4pW/JnzH9LuD+P2DtMOu15p718XpmfLSW6TNXM2PGKubMWcuyZdtROqyGlc0V/EPCiU1OQZGShtdPeZuZWNR0Xvs812/5Ep5TSHBaNoGpWYRkFeCfksXhU2p8On/elNb2C5VgixtIYRbfM/lU1q3dgnw5qaPO6QsaqJ47jbLGcZROHmW/yiF2H97L9v072bRrK+u2rmfVxtUsXb2MBUsX8Mn8T5n58Ue89c6vMTY3o2/wDr0DQ2Rk5cpJFTGvOHh3jI6+QVp7+mnu7qexq4/6zj5qOnqpbOujXJj+NHdT3Nwl7SSEEVBFVz8Nw6OEpSh478O3WbVxDZZXb2B++RrGNvYScH1zW0TomVpxWus869av5ZSatgTb8uKU49RfDHfMv51vyczPtjLzsy1M/2TTlNvrnPXM+mQ9cxdsYfWafew7cIJzOsbYOzji7RcgrR1Co6J/tnYQh0lhlH7m/Dn84hIJzcojKC1bhgDdMSCE1Rs3yj5tTUNjPKISuRkWS2ppjcza/Q+ek1FWjp6NCefNLnDORAcNPS1Oaqtx/MwJjqod45CqEvuU97Pz0G627t3Gph2bWLN5HcvXLWfR8kV8tnAe78+YxoEjStQ3t9DVN0BxeRVHlY9gbmlJe+8gbT0DNHX0Ut/eQ21bD9WtPVS0dFHW0kVpSzdFTcJOooPbwkG2rZvyzl5q+gbJqanhhrc7/jERZJaWkl1WQlZpEWGJ8eiamnNG1whjm8uc0zNi46aNqKhqSL1tYef2A2uHW6+tHQK+t3b43zXlmbZciQ+XvrF22P/PWDvsYPrc7Uyft52P5m/jk0U7WLhiN2s2HmDX3uMcP6mFtp4xVnaXuO7sjJunJx63fH62dnhziSOeov31+nUH9M3MCM3IIiwzm5C0LJm9Bdx6thdl/8jazVtkj7Z7ZDy3YpIo7+ij9/5T2obv4ejjxVmTC+jbGqNnbYiOmS5ahudQ19Xk5LlTqGge58jpoxw4fpA9R/ay48AOtuzewvpt61i1YSVLVi3h4/kfs37zBgqKS2jv6aO8ph5NLS25oKmqoZmW7n7qWjupbumksrmD8qYOShraZSdhUWM7BQ1tMm43tVPa2kl5RzeVXb3U9g/QPjZGx/gIHSODdI0O0js+xMDkIMExQaxav4LjGmekXNkoJuePqeDo7I2LewA33Py45uTLVScfHJz9cHAN4LpbEG8cp1xuReHmG4N7QByeQYl4hybjE56Cf1QagTGZBMVlE5qYS3hyPvGZpVOOU6teO04tU2L6soPMXHqQWcv2M3v5Pj5dsY95K/eyaM0+Vm48wPptSmzfq8zBIydQPa3BmfNidYghZhbmWNvZcfGKPfbXruFww4kbrm64eXrh6euHb1AIQeGRP2fusbExzp8/h+0NRyKycwlOyyQ4LYPQzFwCFOkcVFVl7oL5KJ08jUtINK5hMYRn5NJy9x79D5+RU1mDjoUJ50z10bc2wdDOBEMBuaU+5020OWOghZqOGie0TqCspsxhVSX2K+9n96FdbNu3lY07NrB642oWrVjEmo1rUWRk0tzZTXlNHfpGRuzYuYPcohKaOnupbmqjorGVsvoWiuuaKaxtlt2EBXUt5Nc2k1/fTFFjKyUtHZR1dFPR1Ut1by/1A/00DfXTMtRL250eOu700Hevn97Rbk6dOcZHn81C29icfQcPsW7dapSVj8j9ky6urgQGBxMaLmwcwgkICsX/dQQER+AfHElASBQBYTEEhccREplAWHQS4TEKIuJTiU5MJy45k4TUbNJzinD3CWHl5v0sW7+b1Zt2s3bLHjZu28vWnfvYuecg+w4ocejwETkvqnryBGrqapw5oynXAwprB7ETx9DYGNE4ZW5tjfXFi1y6clXusv9Jwy12fAkLB7H6Q1g0PH7ymPv375OQECe35DoHBBCeJdpT0wlKSScsOx+noBDWbdnCwqVL0LGwwSMyHrfQaLktoGviId33HuIdHsFpXW3OmRpywcIIAxsTjC+aYnLJFEMbA3QtLnDe+Bxn9DQ5ff4UJzSPo3zqKIdUDrL38B527NvOZlEy3LCK9VvXExUfT31LOyWVNZiYW0i7hbjkVOpbuyira6a4tomi6kYKqhrIq6wnTzyrG8mraSS/ronCxlaKWwXcXVR0dVPd00Ndfx+Ng700D/bSOtRNx51uuu52cffhMEFRfrw3/W0OqqhgbHsFVTUNtu/cydr1a+ViqmMqRzEzN8PX1+f1FE4YkaKn5LW1Q/RrawexE+dPWTtk/tDaYdeUtYOweNi3dxdiA/LBg/tQUjrA4SOHUT52FJU31g5qp1DXFJ2KWpzX1uaCnp78hTcxM8Pc2uqnDfe3334rt/uKhUPCW0P8gJydneSmXSMjA9ltduSwEqc11fGLjyMsM5OglFSCUjOIyMnH9IqDnK5Zt2XzlCSJiMMjIo7bzR30TD6mrmcA08tXOKmjg5axIdqmRuhZGmNoK+A2w9zeDNOLxhhY6XPBVJuzBlpo6Khx6uxJVGQWP8T+o3vZdWAnm7ZvZMuuLYRFR1Pd0ExhWRXmNjayPCf+xNY0t1Nc3UBhVT15FbXklNWSXVZDtnhfQF7d8A9wt7RT1t5JRWcXVT091Pb30jAg4O6RcLcPddE13MXw/UGKKnKZv3g2K9av5qKzJ7aONzG9dI3zhqYcUT3Blh3b5Q5LsWfSxdV5qiMw/D/PmFmy4kdohCkGgMXKOAtLC0zNTTCzNMXS1hLry7bYXb3M5RsO2Lvc4LKLE64BfgSnphCcmirhlrIkIwu1Cxf4bME89h9TwSkoHNewaHzikqnq7qf/wROyyqpR1zXkxHkdNPUNOGdsyAVzY/StTDCyNcXssjmWVyywsDfDxNYIfYsL6BifQ0tPE7XzJ1HVVOHoycMcVN4vM/hepb3EJCZJA56colKMzMxZtnwpnr7+VDS0UFhRS15ZDVklVWSWVJIpnmXVZJW/Bry2iYKGFm43t1Pa1kF5RxeVPT3U9PVQ399D00APLYNdCLg773QyeK+Pxs4aNu9Yw8fz52Dt6Iq9mw92Tu7Y3riJlYOzzObq53VZu2E9R44oERAoxsxeN079J5ih/FHCXVxSjJmZCT4BXiiyEknOTiIpO5mE7GTiM1OIy0olJiuNqMx0wtJTCVYkE6RQEJySSlh6Jn4JSexXPsq8RQtQ1zPgZngMzsHhBCnSaRgcpv/BY0ISU1FWP8+JcxdQv6DPGQNDzpsYoWtmjKG1KSZ2ZlhcNsfawRLrqxaYXzLByFofPTNtzhucQVNHjZNnVDl26gj7juzh6MmjJKalU1ReRWpuAdq6eixeulhucSitbSK3tJKs2xWkF5aRVjQV6cUVEnDRdZhX20R+QwtFzW2UtndQ3jUFd3WfkCYC7u4puAc76RjqpG+0m+47bRw9vo9pH72PuYMTjn6hXL7pw0UXL2yd3LG57oaNoxunz2mzZu1quSz2r3nM7Ed/oBT7Yfz8/bly7TI5RRlkFqZJuBMyEojLSCA6LYHIlATCFQmEKBIJFpGcRNBrwMMzMnENCWPD9q0sXrkco8tXcI+IwSkwjAh5mByj+959bvgEcejEGY6fucAp0Yyka8BZAyO0TYzRszDFyNoMUztzLO0tsXGwwvaaJVZXTDGzM8BAZvGznLmgziktVQ6rHkTrghap2bnk3C4hIS2TkxrqLF26BE+/AIoqa8ksKiWtoISU/GIUecUo8ktILSyTWTy7spZcAXf9FNwlbR2UdXVR0d1NVW8PdX3dNPZ30zzYRdtgJ52DnfTc7WJovIfTmsf47ftvYXrVkZvhCVz3DeWqdyCX3X256OIpw/SSA5u3bZX+fVGvF6z+R03i/LmaW1g7LHBM+XFsVhBdfs5OTri43yCrMJXkrHji02KISY0iKiWaiOQYwpJjCU2OIzgpjuDkRIKSEghKTiI4RUFEVhb2Hh4sW72CdVu3cNHdE7ewKJyCwojNLaBtZFyGnZMn+1U0UVbXQVVLl9Paemi+BlzHxBh98ynAzS5aYGVvid01Ky5et8LWQWRxY4ys9LggZIquOipqR7GwsyQzv5D03ELC45I4oHRQyhKfoBBySypIzS1CkVNIUnYBidmFJOUWkVJQQnpJJVlCe9c2kifkS1MbxW0dlHZ2Ud4tdHcXtb1dNPR10TTQSavI3IMdEu7B8W7Uzx7nN+//CosbrvgmZskedeegSDnF7+AVwBUPPy65eXPgyFEOHNgnXbjEYtX/DHCnpKTiHp/JJ9dS+ODHMP3+/PlzHB2v4+R2ncz8ZJKz4ohPjSZaEUmUIorw5ChCk6IJSYolJCme4MR4gpMSZPYOViiIyMjA7OoVFixZxK5Dh3D0D8I1NEJm7ri8Qgm2kCY2zh4onT7P0dPaHFPX4YSWHqe1DTgj+jUMjblgYoKBpSnGNuaYX7LA+ooVdtesueRow8VrllheNpGA6xidRf3cCVw83cjKv01yZi63gkLlgtbVa1cTHBlDRmEJSZl5JGTmEp+RS3xmHonZBSjyi0kvqSCzopbsmkZyG1ooaG7jdlsnJR1dUpoIuGt6O6nv66RxoJOWgU7aJNyd9I92omukxWcL5nDFJ5Cw7BJuiR716GTcwuLlNL+jf6gE/YTWObbv2IaXl6dci/3XDndMXDxJKaloBmbwwZUUPvwxwP3ll1/KTb8OjpfJyEsiOTOGuNRIohURRCVHEpYUSWhiFCGJ0QQnxhCcKLK3gDuREEUyYelp6JiZSr19RE0N5+AwXILDcQoMJS6vgNaRUWp7B7F180JVxwjVc4Yoq+tyTP2CBFxN2wAtPSO0jYzRNTXB0NIMExtzLC5aYG1vhZ2DNZevW38PuIG5Drqm2oRER5KWU0BcaiYOzm4sWrKQbTu3E5mQjCKngPi0bOLSsolNyyI2PUcCnpx/m7SSCjIE3EKXN7aS39JOUVsnxR2dU3B3d1HT00V9X9eULLnTQ/dIL0OTgzR11WJla4KWjhaxQvJUNUmzoKC0fHwTMvEQkIfHcTMinvMmlrJz0NnFSe57/2uFOyAomMiICMJjE9ANTmfOjXQJ9/RLif/5W16FI6ufny+2lyxJz01AkRVDQlokMSmRRCVHEZH8P8EtpUn8FNwpCsLSUlHTOc/chfNlxURkbQG4gDs2N5/m4RHq+ge56heAhpkVGsaWnNQxRkVTDxUNXU5q6aOubTgFuKEJeqamGFqaY2pjgcVFSwm4rYMVF69NSRQTaz0uXrMjMS2DxLQsohJT0TUyZs7HH6F8/DhxKRnEp2cTo0gnSpFOdEoGMamZxGXkIOBOLakgvbKOrLo3cHdQIDV3D7WDQ9QPDdAwKC5yemnoa6e2o4GKxgrS81Kwv2aDvqEOUSmpNN+dpKbvLkWtPaRXNxNXVCVds/yTs/BNysLo4lU2bNrAjRuOf3VwO7m64eHpgZ+vj7yhvBwcz36fTGY4ZfPBj83aIT4+HgtLUxQZ0aTlxJKYHi2zd0xKlJQmYQohS6IJEtlbwC3kSXICISnJsnKioqEmZYm2ubmUJM7BoTgFBBOZmSOrJY2DwziHR3DW9iLnbS5xxtQaNT0zTmgZoqqhJwHX0DHgrJ4x2kam6JmaYWhhLjO4+UVLrC4LyEWYY3HJGO8gXxSZuUQnphAQHs0BJSU+mj0TPSNjEtNziFakEZGYQkRCCpFJqUQlp8vsPQV3pYQ7s66ZnMY28kTm7ugmtaIKt6AAHDxdueRyHetr9pheskbXwgRNA21UzqhzWlcX56Bw8lt6qRkYp2l4gua7YlJ/TO6mz2/sIKW8ThqA2jjdlHALyRcbF/sforkNjKbM5y2sraQ9xxX7yzhev4aziysOXr7o+0az1zeDTz0LeN+lgGlOP0Jrh/KKcoxNjIiKDyG7IImkjGiZvePSookRh0pFNGFJQpYIuGOn4E6KJzQlmYDEeJRUVVi0fAkGdhdxCQnHKSgUx4BgghVpVPeKLHgX3+RkLjg4oHvVAR07e85Z2KFpaMnJ80ac0NTnlJY+GtqGU4DLDG6GobkZxlYii5tjbidgN8bOwZbo5GTiUzOJiE+WkmTpiqXMWzAXB2dXKUci4hWExSURGpdEeIKCyOQ0YjNySS4sJaW0irTKejLqWshubCO3pYPSngFsnB2l8c663XvQsHLgjPU1tO3dMHbxw8YnCseodG5llBJWVE9kcQMJlS1kNvZIw0xh6CMgbxa2FIOjcqr+iquHdJ1ycXUhJjbm3wduDXW0tM6gfe4s+he0MdbXxdzEEEsrSywv2WPkeBNN91D2+aSy3L+QWb5lvOddyjT3Ima45TP9x+hbIvbW2Nja4O7tQkFJOpl5iSgyY0hMjyEhPZaY1FgiU2Jl1eSN7g5Kipea2y8ujv3KR1iychmmV67iEjqltwXct2ITKG3vlHBHFxRg5OKM4Y0bGFy7ju7lq2hbX0LLxBq1C2ac1DLklJYBGtpGaF0wllMwuiZmsknLUJQKLU0wsDDEw+8WSenZUluHRMfLBqGZsz5k87YtBIQLKZVGSEyiXA0YEptIWHwyEUmpcpo+uaiMlLJq0qoaJNxZInO3dsrMfUzzFP/jl/+FI9omXArN4FJwKvZhGVyLysYpNg/XhALckgpxVxThk1VBcEEdkaXNJNR0kNHcT2HXMFUD49QN3SOrvIZjqqqITQhBQQHfe5f82V6BO7ezfdsWdu7czu7dO9m7R1zB7+bg/r0cOniAI0oHp6wdlA9z+rgyGqdPoqWliZa+AWcsbDh12YmjTkHs8k5kTWAB80KrmBlWz7SQBj4IrOVD3wpmeBczw6Pwxwv3H//wRxITEzEyNiQ00p/sQgXZRQp5wEzLTSIlT0F8ZiIRKXGEJsfKQ6WEOyUJv7hY9h09zPI1KzG/dh3nkFBuBAZzIyAE17BIcuoaqB+4Q1ZdPdY+tzB2dcHExQVDxxvoX7nGBbsrnDO3RVPfnNPnjCTg6ucN0dI15ry+CTpGJuiaCNj1sba/JJvq41PSCY9LxMXLh3Ub1zN9xjTOaGtL/S32XQZFxU1FdDwhInsnpRKXXUDS7XIUZTWkVjWSVtdKhugQbO9BUVHNms2reW/Gu2hYO2HuFYeZZzQWt2Kx8UvgYlAyV0JTuRaRyY3oHC4HxmHjHoiVqw/mju6YXHHCwOYyOibmaJzXZuee3WzasknOdkZFRhIRHiojMiKMqIhwYiMjiH29PkRaO8THkpwQT6oiifTUFPJysgnw9WHX1k1s37SeXds2s3vndsRmhX1KhzigfAylU2ocPXcBFWNLjttd55ijDwe8Yljvk8pin2zmhVYyJ6aF6QndTIvv5oO4TqZFtTI9vJEZIfXMCKxihm/5jx9u0c765MlTfH190TfQw8rGHM9bLkTGBRMa5Y+nvxt+4f7EpScRrogjJCkOAXeohDuGfUeUZL+FheMNnIJfwx0Ywo3AEBIKi6U0Ec1JrrExGLu7YeZxE1NXV4ydnDG85ojepatoW15Ey8gKNW0TCbjaOUPO6BhxVs8ILV19dI1N8A+LICk9S4IdFBXL2QsXmDlruryZdHTzQMiRwMhYAiJi5DMoOo7gWPE9ZxCfe5vE2xUkl9eSUt00BXdDG0Wd/fjEJzBj9nt8unQR5674ouccioFLGEZuEZh6Rk1B7pvApeAU7PwTOHBMVV6xr9+ymQ3btrFp9162HFRi+7Hj7NM8x2l7Jxyzyohs7COqtp2oqmaiKxqIragnrrSahNJqEstqSCqvRVFajaK0ktSKWjJqmsioaya/qYOAwgq2OwWywSmY9V5xrPJLZVlYAavjK9mZ2YzS7X6Olw9zouYeynUP2Vv/hLU1z5ieMsTfuVfwK48K3vKq5NdeFfz2ViXv+FTxrl8V7/tV875fFdP8KpnuUy6t1KYydx4znLKYcT2N6VcUPz5THtEBWFpSgqenBwYG+mhoqnFE+RDih3hSS4sYRSxxGcmEK0StO17eVvrFxXBQ5Sgr1q1mCu4QrgcEcT0wmGv+QQQmp1LS3klldz9xt4ux8PHCzMsdc08PzNxvYurigvF1Jwzsr3HBxp5zJjZoXDDjlJYhp88KLa6HxnkDXL19Sc7MkYfIsNgErru5s2rtSj748D2UVY8TEh1HUGQs/mFRUxEeTWBUHMFxSUSmZZOQX0JCcRXJ5fWkVDeTIjJ3QzsFHX2Y2F/iV2//N9bsPoDWlQDOXvVD+1oAFxyDJOiGbuGYekRh5ZeI/jVvORi8z8SOcynl6GfVYn67jUs1gzh33Mdz8AWB468If/B7Iia+I2ryO2IffEf8g+9IevgdioffkfrwO9IefUf6o+/IfB1Zj39H9pPfk/309xQ8/4O0dtjS/XtWdf1hytqhC2Z3wsKuv2db7x9Q6v0dx3tecaLzK5RbX7Kv8Rnrap4yK6GbX13P4y1HEQW8daOAt5wKp8K5kLdcbvOW623ecivm7Zsl/PpmCe/cLOZdtyLed8njgxtZfPjacWqGTSzTLSKZbhLKdMPAH8f0uxhKGBoaIi0tjcuXL6NyXJXd+/Zx1dEeRU4qMelJhKUkyMwdkBjHkVOqLF+zGovrjrL19bp/kARcwC2kSUZ1HaUdPfI20CMxARPPm1h4e2IhfL89PDB1dcPkhjOGVx3Rt7vCeXM7NPTMOK6hxwlNPa65epOUmUOclCNJ+IVGcfiYMh98+K6sb4uDZEh0Ar4hEfiERMinX1g0AQLueAUxWQVy8j6htIbEykaSq1ukGY7YFZ9e28TeowfkDvjdanqoX/RB3c4LzUu30LL35bxDADqOQeg7h2LqFcspA2vWrl+PZnQ+dhNgP/I7HEe+w3XkWzxHXnFr5BsCRr8meOxrwse/Jmr8G2InviF+8hVJ97+dgvvRd6Q9/h3pj39H5hMRvyfr6e/JfvIHsp/9gYJnr+HufMWq9m9Z1vYt81peMaflWxa1fsu2jm9Q6viK4x1fcKL9JcotL9hX/3QK7kQBdy5viXDM560bIgTgBbwl4JZRxK9cbk+F621+5VrMr9xKZEjoXW/zW6d83nHI5P2LyXwo7B0Mg/nwgi/Tz3nx4Rn3H4e1wzfffENDY4NshDcxNyI9P43E7BSiUhMJT02S2fuEliaLVyzD9KqDrJRc9wtEAC7gdvAXO26ypcd1UUsH6VW1XIsIx0RkbwG4txcWnp6Y37yJqbMLxtduoHfxijxonjO2xtkrAEV2PokZOUQmKAiNTZJ17dkfz+SD6e+hcVaL4MhY/EIjuRUcJsMnOBzfsCj8IsUZIZ3YvGLiiypIKKsjsbLpe7jFrviA1Ew+njeTGZ/ORknPHlVLd05Y3uSUtQdqtv8Aucjkuk6h7D+uxoYdu9FOq8dq6BUX+1/iMPAFTkNf4j78Fd53v8J/5KvXcH9D1MQ3xE6+hvvBtygefEvqw2//IXO/BjzryQ8yt/AtmfyOLR2vWNX26h/D3fYa7s6vOd7x5RTcrZ9PZe66Z8xK7OEthxzeupYzBbiEPO815PlTkItM/hryt1yKZDb/1feQF/NLAfrNMn51s5S3bpbwtnMhv3HI4l3reD4QkGt5MOO0EzNP3finviU3wxA7P/+t3/6P7cT57rvvsLW1wcTCiJyiLNLy0onPVBCVlkx4WgrnjPRZtHwp+nYXuREUjINfoIRagH3VNxCXsGgU5dXkNbWR39BGclk1rrFxWPp6Y+btibmXJ2YeHpjddMPEyRkTRycuu3sTEq8greA2SaKmnTxVu7a2v8KCRfN459232bZzG14BQQREROEdGIJXYAjegaF4B4fjExqFf3QCEem5xBWUEl9cRUJ5PQmVzSRVt6AQ+zBbezG6eoW3fvMLFm3cxmHDGxw1uoGyiRMqZi6oWrhx0sodNRtPzlz2RcPOg807drFTRQODwj4sB7/m4sCXOAx+idOdryTct0a+xl9k7vFvCL/3DVGTr4idfEXC/W9JEnA/FHC/liXfZ+7fkfVakkhZIuH+3T8P95vM3fU1x7u+4kTHFyi3vWRf8wvWNbxgVlIPb1/J4u2rWbztkC3je9AdRTYXcuWHGf2HkkWA/gb219n8ZqmE/JfuZfzKvUx+/jf26bxvFMoMjZvMVnXgU9VrLDp1jRVHTbnoFso33/yngvt3XLvmgL6hLrlFWWQVZpGSm0ZCViqxWemY2V+UmfucmRmOEu4ArvoFcvV15r7iG4xvYhoZNY1k1DaSVdNEWmUdodl5uMX+/+29d1SU57r3/99vrfc967xnn5PYuzHGGo29V8ReEelIF7BXQKQICIIgvffeexNBRLCi9Cb2xF6T2KMmn9+675kxJDt7vWefbfZJzitrXesZhplh5pnP832+13Xdz30n4xodjUtkJG6R0XjHJRIpVtItKZej+tIKSkjMLiAxMw97FzfGTfqKHr0/RdS2hR2JiE+WY0v8QiPxDYlAbP3DYwiMjiciJYvEwjKSyqpIPnaa1CpRn1bAnX22idQTZ5m3VF3OMjVTw5iVGw+w0tqF1Zvc0NhyAM1tCsh1dx/CwD4ATeu9ckoHja1ObKm4LOF2uPQM18vPOXj1BYevvSDgxktCvn5JxM1XxNx6RfytVyTdea2AW+W5lbYk7xdwv5F+WwH3O0Jvv/1tuIVyN79idctLBdzNz1jX8FTCPbP2O4VyO+XRTYQAXAW5ayHdfq3mv4D8l7ZFenNhXYRlkbZFCbvPcf7jcBWf+lTSy7WIgVujGKbvzljd/RJuh0PRfy64xSnGx8cHQyN98kuyKD1WRMGRArJL88ksLRILtk0AACAASURBVOSAnw+Tpk3BwMqKA2ER7A8KwSkwFOegcJyDw+XWJSSKyLwSsk+ek3VmsThq7omz5FSdJr2imrSjVWQcrSK7/ATZZVUS7tSCUlLzS4jPzGOX/T7GjPuS7j3/nVFjRmLr6Ex0YhpBkTESaL/QCA6HhCsAD48mMDaJ2KxCEkuOkVhWTXLlaVJO1MrmS9rJOjnppGtoJH0HdmPQyBEsMLJhqYUzS82dWG7l/EvItx9Ee7c3i7WMmTFnDoZu0WypuITN5Zc4XH6O6xUl3NdVcL+ScEffek2CUO47P5B65+eEUiSTwnP/Em5FMvmLhFLakl957l/A/UImlOsan7Ks7jtmXnjKkPQ2PnXMpZtjjgJw53y67RchlLyAbr+G/Be2RenNf2Fbyn+2LZ4C8HKFN/eupJvvCXr6VjHIOYfRZj5MWLUVe6/IP5ctqaqqkmOTTS1MyS3MoqyymJKKQgrLi8gvLyEiKY75C9VYo6cnE0nnoFCcAkNwCgrDMTAMp8BwHAPDcQ2Pk3ObJB09LmvNmSfOkH7sJOkVNaSXKwBPK60kvfQYGaWVpBaVERAVj56pMZ99MYhPe/wbYyeMxdbRSQ5zFa33gPBoCbevEmzf0Cj8ImIJTc4gvuAICSXHSSg/SWLlWZJPnCel+gKpNRfIqW3FNSSSIcMG8MWkmaibOKFubI+6yV4WmzmwxMKBZZZOrLDaL5V8zSYXZqktZIGGDuYBuWw52oHNlVc4XH6B69WXHLz2ksM3XhLw9StCvnlFxK3XxNwWcL+W1ZJUVbXk/htyRAi4lcnk+4Ty0TsKH737uVrSNaGsf61IKN/D/Qrt1hfotr5gXdNzltU/ZeaFZwq492XRTYRDjhLyXAXoTvl0U8EuQP+1bVGBLqxL10RUBbu0LEcV1RavCrodOkbPw8fpG3SSoe6FjNW2Za9H+J8D7ufPn5OSkoSung7Wm6yJTYmn6GghJeWFlFQUUVohIC8lu6QAXUM9Fq5YhltwKK6hERJuAbYiwnEMisAxKJJ9/qHsdPfEyT+Y8JxiUipOkX5MLOUnFPwkaWVVJOSXyumMN2zbysRpk6Ra9+j9H8xdMA9XLx/i0rKIiFcmke/hjpCq7RsWTWBMEjHZhcQXViAWZU0oP03i8XO/gFuod+apBnmWmTRvLmMXaDJvvR0LjPaywMhOQr7IbB9LzB1Ybu3CYsOt8uqaNZsdsAotYfORdmyuvMbhyksF3NcF3K8I+OYVITe7wH1HUQpMvfcD6fffkKkEO+fBW/IevpWVkvxHymrJL+B+w7zm1z9XS34Nd6uA+6UC7ubnLGt4ysy65xLubnsz6b43g+4S8uxfQa4E/R+EvJtnOd29KujpfYw+flUMDqhilLErNq5BvHn77kPnk3zQhFJM4+DtfQg9PR32OjuRkpdLblkJOSX55B8poLi8iNJjJZRVHuHoiQpsHGwlfE4+PnhGRuMsVTuUfYFh7AsIY19gOPsCI3AKjmaPlz86VhtZpKnJmvXrMd2+A8s9tljutkF/wwbUli9h2Ogv+KTHv9Gt51/4ctxoTKwsCYmJl6P9okQXUjRrYuIJioiRnlskklK1I2PlJW1xBWXEFVcSf7SGhGNnSDheS1LVeQXgNeelegu48+s68ElIZs7SxYxTW8VcAxvmG9oy39AGdeO9LDSxZ7G5I3OWaTJrgbq0JJbBxWwua8fm2hscrr7C9forDt54zeGvXxNw8zUht34g4vYPxNz5gYS7P5B07w2p994o4H4gVPstOQ+VcD96y3u4HytLgao6twruxteM+gXcr1nd+lpR5257ybrWFyxres7MhpcMyWinm2063W3TFIAL0O2zJOjdHQToKtgF5Ll0c85TqLmE/Wc1l/78vUdX1s2lmqsqLkdkFaWnVzl9fCoZ6HecMWYHMLHYQtmRI4ih1B/y54PBfe7cWXbv3oWxqQneQSGkFR8htaiY5Lw80grzyJKAC/UuoezYESpPVhIRG4n6ogVst9+Lb1wCbqEREnABtr2/ADycfQER7AuKwCkkVkJutc+FxVrajJ02ic9GiNlc+9BrQA96DejJ0FGfM0d9HuZbNuMdEk5iVr4EWwyIUrXYw2ITFCXA8GiZREo7kphGfF4J8UXlxB+pIr78FAmVZ6VyJ1XVknSilpRqBdxpNYqqSV5dO2F5hWjoazNzmRZq622ZZ2AjQ81oL/P1tjF1xkwWaRtjEViIZUAem4uasLnxFocbb3C9/roL3D8o4L6jgvuNAu77Au63ZCrB/hnud+Q/eqeoc/89cLe9Rrv9Fbrtr1jX+pJlzS+Z1fJGodx7Uuhuk6oA3C79ryGXlkUFufDmXdT814ouAH8PubLaooS8m8cRenoepZf3MQZ4l/OVkRMaa7WwtDAlOzuLN2/efDC+/2G4RU07LzeHDZYWbN25k4jkNFJLyknIKyY6K5fY7DwS8vJIzs8lq7iQgrJiSo4doaKqnNKKUplwGpoZE5SQIK+rdA2JkF7bPiCMvf4iIrAPiJThEByDS3girpFJOARGsuvAIbnq2TYnN3lluUdQGGHJotxYSGJ2IXHpohSoHO2XlCo7kuKqm1BRz45SNG9E0yYht4gkAXbJcYVqV5wmobKWhOPnSKwSLfBaUoT3rrlASk0dwp5knKonr76DsMxsDEz00TDdyooNziwQkBvaMXedNVNmzGTOwsXo7QvEOqiITVFH2Vl5SXput1vv8Lz1Dt9bbwm49YaQ22+IuPOGmDtvSLirgvst6Q9+BfcjBdgSbiXYsonzV8r9wy+Vu/U1q9t+QLvjB/Qu/oB25xtWdLxlcvUD+h0qo9vORLqrAO8KuQp0+0yFkv+DtqWbeyk9vMrpdfAIgzZF8NVyK1YLuC1NZXXt7t27fwy4Hzx4QFhYKKbmpjgfcCclv4j00gpic4qIzMgnPD2X8PQcIsVY6ewckvPzyC4ppPBoKUcqyzhxugpPbw9WrVmBT2goAfGJuIdH4RwcIS2JnX8Ydv7h2AVEsDcgkr0BUewLisYpNA63yGQOxWXgn5xLSFoB4RkFRGUWyAZMtIBaGcJrx6ZmEJOSjmjBRyWkEC4AV7baE3MK5RiS5FKxklo1CRWnZCKZdLyWRFVU1UprklytAFyot6x7n2ki4+R5XLzc2L5nN9sPhGBie5h1Ww6w1HQfczUtmTpjFjPnzkNnlyfWgflsCS1id+ZpnE5ew6vzO/xvvSH0/k9EPoSYRz+R8AiSH/1EyqMfSXv4joyH78h69I6cR+/IffSOPBXcj99R8Au4fyT07jvmtbxmStMPTGh6w6iGHxja8IavWt6ifvFH1l7+Eb0r79Bpf8XyMw+ZmN5Ef5dcum+Po8fORHrsSqLHbhHJCtBVsAu7IuI96Bl0F7BL6/Ir2yKqLqKkqLIu7ysuRYp6uVsJPe0z6Wd0iGELNzB1/kp0dbVxcbHH1XU/wtp+qJ//snLff3AfHx9vrKwsCQiLIPfIMTKKjxKfW0SEWDkhNYdgsQJZSjZByZmEpWcRm51LSkE+2aVFFJaXUlFdSV5xHnoGOuzat5fQ5BQORcbIioRjYAR7Bdj+4dj6R2AXECnDPjAah+BY9ofFcyAyCa+YVLlmTmBiJmEp2USm5SDhzsiRY7LjxYUHaVmyUykAF5dGiTElwqak5BaReeQYaUeOkyJKf8dOkyQqJMdrSRZ2pKqWRGUknTiPgDtZVk4U6p15RtS9z8mr8C2szXALjMUjNA1Hv3g2Oweju8OT5ca7mDFvgZxhar7xHubtjmSJXTQa+xMxPJyLVUIVe0qacD1zHe+W+wRf+Z7om69Iuv+WjCc/kfMd5H8Phd9D8VMoeQZHnkHZMzjaJY6/gOjHoNbxI1PbfmRi64+MFnDXvuDLs98zs+Y+c49cY0Z6E2MCKhiwL50eW2PovjmKHgLuHfH02JGghDzxPeQ99ihBV6l5V8hFAvoeclFpUdkWUVZUQr6/gE/3F8qyYg/bdHpvCGLgqt2MnKvFlJlqaGqsIjkljPTMBBwc7fnmm/9muMW0aenp6Wzbvo24pBRKKmvIKjkqB/fHZBUQkZFHUEo2/mJNm8QMDiek45+cSWhaNjFZAnBR7y6mqKKMYzVVuB/yQMdQD7/oaHxjEzgQFo1zcJT03AJuG/8ICbitfyR7BdxBMewPjcddqHdMKn7x6QQlZRKemkNUei6xGXmyzp2QmUtiZg6JGTlyjfL4tEzixHDW5AzZwcyvOE5OeTWZFTWkVZ4m9fhZUqpqSak6L0MAnlx1HgH2+xDqXV1Hak0d2bUtxBw5LifdnDx9Isa7DrDTPQKXgEQOhqWxPyARm0MxmNkcRH3ZKrlqxKClm+i57gC917nST9uNQbrufG7oxQjzw4zbEso0u1jmuaaxxDuP1UEl6EZXYpx8CsusWjbn1bOjpAWbIy3YlamiFbuyNvaVt2FR0MSY+PMMizjNkKAqBvocpZ97Ef0cs+hnk0SvrVF0twqjm2Uo3a0j6Lk5ip5bYui5NZYe20TE0WO7gDyeHju7gC4VPZkeQsl/S83tMhQeXQm6CvLujjn0sM+k184E+pj7M0DDls/n6zNm2gJmz57Fls1mlJWl09xeS2hEBLa2exAr4H2on/+Scj958lhe5+fj58fREyfJFe3uwhISc4uIzswnLE2xZqRY08YrLh3PuDQOxafhl5RBiAA8O4/kgkIyS0soPHaU7OIizK0t2bnPAb/4JNyVcNsHRLxXbgXgSriDY3EJS8AjSlxYm4Z/QgYhyVlEpOUSowRbXAOZJK6DFP8rK5dkAXp6FgnpWWQXHaHkeA1Fx0+Sf/wUOVVnyDxxjnTRsDlxXkaa6EqeaiDlxAWFJTlxQQG4hFvUvevIudDOgag4Bg7pxaARI5i+dgvqhrZobXFjy/4gHHzjcA9JwTMiExuPUBYvWcLoWUvos9aJ3mtd6KXpQs+1LvRQRve1LnTT2E83DRc+XevKJ2td+XTdAbrpetBDz5OeBofotd6H3kaHFWHsS28TP3qb+NPLNICeMvzpaeJPT2M/epr40dPUn55mAfQwD6LHhhB6WoXRc2OEIjZFKgGPpueWaHpujVFCHttFzQXoib+yLUl0F9ZldzLdJOwKy9Jjb4YCZvsMeu9Jps+WCPoZezJ4zU6Gqeny5bT5zBADyIy0iY/3p7m1mtPnqsgpKsYvMBhbW5v/frjv378vF1D1DwnlyPFqckqPkipa3jmFRGfmEZqWQ4BY0yY+Ha+4NNyjU2UIyH2TMgkR1iE7j8T8QtKKisktLycwOhojS0tcAoI4GBmHc1AU7+H2i8DGT6i3Am7H4FhcwxI4GJWMT1waAYkZhCZnEZmWS2xmvmy9iwt+U3MLSRORU0BKdh6p2XkUlFVQUXOaspozFFefkevC55+sJafmAlnVdWQIqEXSeKKWmNIqhL8WIAs7kiwAF1thTU42kHGmGS1zUz7p/r8ZOnke45ZbM36FFVM0NjNffzcrLRwx2u2FjWcknpFZ8nK48dNmMmDlLvqs3U9fDWf6iq2mC33WudJHy40+2m7K7QF6a7vTW9eDXsroKQCX4UUPfRGH6GHorYj1PvQwOkwvY196mfrTyyyAXuaBirAIpteGEHpZCrhDFYBbh9HTOlwRAnYV6FLNo+ixJVoR74FXqXoCPXYl0tMmhZ570+nlkEVvxyz6OGTS1y6FfmKhJ0tfPtO154vl5oyes4IJ0+egrj6PjdbGJCWG0NJaRWNzDTliNrL4FDJyCwkIDvljKPerly/l+G0nFxeKyisl3Old4A4TXlsJt2eMAuwDMWkcjM/CMz5DWpXgtGwis/KIzysgqbCI1NIjOPscxsrGDtF2F7VtkUja+IVj4xsu4bYTCWVgDE4hcbhFJOIVnSL9tsKSZEvVTsguICWviPSCYjJE5BeTkVtATmEJ5VU1VJ89z/Ez5yk/fY4jYqqG0xcoOFVH3ql6ck/WkX2yjoLaNmmNxIJS+/yCyDrbTNqpelkOlJBX15FV245XQhpDRw6i18C+jFbTZ+wyS75auoGvlm1g3HIrJq7ayAzNbSw1scfEzhdds01MnDaDgQs30We5PX2X29F3+V76rrSn76p99F3tSJ81TvTRcKaP5n76COi1XOmjfUAROh700fWgt95Beut50lvfk94GXvQ2OERvQ296r/emt5FC2XtJ0P3oZexHLxMR/oowDZDg9zQLpKd5kCIsgulpqYReBfq2GHrtiKfXnmR6C4idcujjmk8f92L6HSyhn0cx/d3yGOCYyqDdkXxmeYihunsYvmw9X85ZxqRZc1FXV8NkvQ6+Pi5UHs/l4qWzNDTVkJWTTmBoOEHh0cQkppKVXyTh3rNnN9ev/zfbEuGJxMyuW7ZuITEji/yyY6TlC+UuIiYzn/C0XAKTMuWcHAJuz/hMXCOT2eh0AIfgaAm4T2IGQWliuetcosSFu3lFROcWstfrMDvcvGR9286/C9xCtQOipN92CY3HIzJJTk2msCQikcwlLjOfpJxC0vKLySwqJauwRIaYf/vk2VrO1Tdx6kIDVbX1iLXgy8/WUXq2nqIz9eSLCxFO1VF0vpW4kmPMWDCLf/3L/yeVR1w2lnm6gYzTDbIVn3G2maQTdSzRWst/dPtfDJk4ly8Xb+DLxWaMWWzOmCUWjF2igtySSQJyre3MXriS8QuXM3BLKH03R9LPMph+Zv70M/Kmn4En/fQ96afrQV9dd/oKBVepuYB8rRJ21X1abvTWPkBvHXd663jQW1cAf5De+l70FtZFWBZTP3qbB9LbIoje1mH03hhB763R9N4RJ21DX/t0+jhl0UeMwfYopu+hMvr5VdI/qJr+oafoH35axoDQGgYEVDLQu4jB+1MZYhPGF1bujDDYyciV6xmjtoKJs+fLZQi11q5i53YrwsN8qKrK52LnWdovnqPyeAlRsVF4eHnj7nUY38BQwqJiiU36A8J969ZNbGxtcD3oSV5ZJRliJF1uEXEyocyVCaVfYiZ+ybm4hMWzRHsdg77oj+F2GzwTczgYl45PUiYBqdkEp+ci1sAR6+QEZ+SzPyQaO6Vi7zkcxh5fUTWJVJQBQ2JxC0/AMzqZw3Fp8gwhzhTRGXkkZBcqVbuE7KJSCsuOceL0WeqammloaaO2qYUzDU1yHfiq840cq23gaK0YUttI0Vkx2U6rBFzTyIBPuv1v+o2awKDpOoxUN2XzwQip3HkXWsk824jV3r306vsX+g79ghFq6xmlbsYodRNGLzRl9CIV5OaMXWrBV8usGLfUlClTpjLWYhef5V1iUME1GYOLvkbEoPxrDMy9wsCsTgZmXmRgWjsDklsYkNLGgMQmBsQ1MCC+kQEJIpoU9yU20z+pmf5im9ikjGYGpLYzQDxfROYlBmR2MjDnMgNyrzIw7xoDxf/Kv8agvKsMyulkcFY7g1Ma+Sz+HEMiTvC5XxGfH0hh6N5QvthykBGmNozS2sDYFbpMWLiCaWoLUVuozuqVS7EwNcDZYRcxUQFUlOfS2nqaa9cbaG0/S1l5PuERITjtd2WP7T7sHPbj6u7FocP++AeH/Qbcu7h69cqHyif/sfZ7RmYGVlZWso6cU1pBiujyZYt6cx5h6fmEZhTKWaNmLJhNjz7/waeDRzBjrRX7I5Jxj0vnYFwG3omZ+CZn45+ag39aLgHpefim5XMwPhPH0HhpSQTgAm5FlSQO94hEORWZqJIEJ2crEslMMZGOUO0S8o9UUHnyNHVNLbR2dNLacZGG1nYuNLdxrrGV0/XNVIsJ5OuaOHahiaPnmygX697Ut7LJzoYeff4PvYYMZchMHT6fs55BM3QYOteQtVsP4BCWjvGuvQz6YgA9Bw9m6CxNhqubM3yBCSMXmEjARykB/3KRGV9KJd/ABDUNJk4Yx/hFSxlnaMVY8518udmB0bs8GGXvy0jXcEYcjGOEfwYjA7MYHlnKiLhKGcMTTzAs6wLDchoZltPAsNzGX4a4L6tOEZkXGJZxnmGpZxgeU8HwiBKGhxUzwjeD4Z6JDHeNYoS9PyN2HWTERkdGme1ktMFGxmoa8dWKdUxYtIJpi5YyZ9Fi1BcvZvWq5RjorWPjBiOc9u4kNNCLnIw4TtWU0tZ+jmvXm7l6o5Xm1lrKK4qIiQnH2dmRTZu3YG5hxQbLzWzdvhtbe0cc97vhdvDQ34Z79y6uXvmDwH333l050bydgyOZxWVklpSTmFNMQl4p4Rl5bLK1Y/S44fTs35N+X86i3+R1DJ6hh5mDD+7xGbjFpOERl45XQgY+Sdn4JOfIOJScw6HkXLySczkQl4FzeCIiiXQSHcrQODwiEvGOScE/Pl0mkkK1xRwjuWXHOHbyLOcbW2nrvKxYuezSZdo6OmlqVwLe0s7ZplZONbRwoqGZyrpmjje2yrUl7T0P0n9wN3oM6M/gaRoMmW3IkNl6fD5bn89m6koVHzrHgMFT1zBo4iKGztZl5DxdRs9axYg5OgxXM2bEAlNGqJtKtRcqPmqRBWPU1zN+ygwMDHRxddnPPptd7NyykU0WZpiv18dYTwt9bU101mmwVmO1nKd7xcoVLF2+jKUrlrFkxTLUFi9m3qKFzF+8SMa8xYuYt6hrLGS+8u/icWqLF7Fk+VKWr1qBeC0x97f2urXo6azDxEAXC2MDNm8wxWb7Jpztd+Pt7kyo/yESY0LJz07meHkR9edruNhex40b7dy9d42bt6/QeaWN2rpzFJYWExkfh+tBLzZv342ugQmr12ixatVatLTEkiRitYaNbN66g527bbFTwe3hhZeP33vljktKJbugWC4mZWO7h2vXrknl/uknsVbHP/bzXyoFdv2XJ6pPYL3RGjevQ9ISiKl/w5LSMbAwlZdi9f9iGJ9NXclnMw0YPEOXPhM1mLFuC07hSRyITcctJl0C7inKholZeCVm4ykjR8LtnZqPb3oBfmn5+KXmEZiaR0haHpGZhcTnlZJeUkFRZQ2VZ85zrqlVLrmnAPsqFy9f4eKVK7RdukzLxUs0dVykvr2D2pZ2zjS3cbKxlZqmVk63XcI9wJ/BQ/vQrW9PBk1ewWezDPhsph6fzdJjSNeYKWA3YOg8E4bN1eerqbOZMmUS4yZNZeTE2YycsYKR8/QYIUBXN2ekugljpqkxf/4csnLzuXrjJm0XL9Hc1kFzaxtNLa00NjdTV1fP+drznDl9hrNnzlBTfYITVcc5WXOCk9UnqKwop7LiKMcryjlRWUH18WOcPHGc0zVVnKk5wdlT1Zw9XcO5UzXUnq7hwrnTtDQ10NHaTHtLE1cvdXLj2jVufn2du3dvce/eXR48uM+9B3e5ffc2N+/c5utbN+m4epXahiZZUcouKiM8MQM33zC27fPAaJMNq/StWbDakFmL1jFdbRWzFqxi/qI1LFmuKeEWYBsYrMfE1AJLq01/DbdSuQOCwwiPjiU+OU3C7eV9WArlzZs3JV5/CLjFvIEFBfls2bKZrTt34HTgAPrGhoydMJrhU+Yycr4hw+eZMHS2gFuHfpM0maO3nf2Rybgp4RaQCyU/mJCJZ0IWngnZHExUwp2Sh396oVwjPiq/nISSStKOVpNbeYrimnOUn71AzYUmaTfq2y5KiMU6kxcvC7ivcvHKVTouX5FKLpboa+gQa012cE4ouIS8nYOBAQwbOZhPevdg4KQlDFYeiEKtFdEVcn2GzNaXaj5y0hzUF8wnPCICP38/9PX1mDl7JmPGT2LUlPmMmrWG0dPUmThpAg7Orpw418Tx0w2Un7xAec0FyqvPU159gaNiK36vuUDFyToqT9dz7FSdfGz1uSZOnG2i6kwjx880cOx0PRWn6ik/WSdf79SFVk6eb6HmQivHzzRSVHmWwmNnKag4TX75abJKqonLOkpUeikBcbkcDEnB8XAcu9zC2Ojgi/FODzQtHVhiuJNZGtZMXmrKOHVDRs/VZtj0tQybvobhM1Yzcvoqxsxaxbg5a5ispsHMRZrMW7qOhSu0WLJSmxWrtVmjoS1V+2/BLdaxFLbE2zeAgJBwwqPjSEzNkHDvd3HB3d2N+w8e8u7dj/z4449dNfS/dPsfVm7xXwXg9Q31REdHIso5OrrrWL5qFfNWGjBlqQlj1E0YPs9IWhKhaJsOBCOU2jU6VVoTod4HYjNwj8vAIyGTgwlZHEzMlsrt0wXu6IKjJJVWklleLZfyOHKqlspzdZysa6K2qY3Gtou0Xrwk7Ujnlaso4oqEu/3yFVo7L9F0sZN6MV1bWzu1bRc52dDMCs3l/J9P/oUB49UZPFOfQdN15YEoDkZxthHxHvRZ+nw2S58RUxYwdepkomNiePbiNU++f07bxctk5xXi5OwsVyybNXsm8+bPxXafI+XVtVSebqS48gx5ZSfJKK4iJa+C+MwjRKYUE5KQT0BMNj6RGXiGpuAWkIDT4VjsvaLYcyCM7S7BbNrnxwY7H0x3e2G43R3dLa5oWjuzynwfy4ztWKi/m7la25mxZjOTV1gxbokFoxeY8IWwUjN06DtpLT2+WsUnX67gP75cTrexK+g+diW9xq+i7/hV9J+0hkFT1jBkqgZfTF/LiFmajJ6zjrHz1jFBTYvJ6lpMVddixiIt5izRYv4yrf8r3Fu27WTXHjv2OjjLRVoPKOEODI0gMjaBtKw8YhKSpDjGJ8Tx9Plzfnjz5o8Dt+qwEkfbvXv3qK6uJjgkWL7h1Ws1mbVwORPnr2HErHUsN7PFQ3htqdppXeBOl3C7J2TiIdQ7MVv6bgG3n1DunBIE3GKAU1ZFDUUnznD09HlO1DbI9SPrWtqkr27rFHBffg925xWFNWm/fFnC3XxRqHcHF9raJeAXLnayZfc2Pun5F/pPWMygGQJuHRkKuAXgSshn6kn4h01ZzPiJ4+TY9W+/f8Z3T19w98Fj7j54wu37T7h8/RY1Z+pIz84nK7+Ymtpmas63SGUuOX6WgvJTZJWcIK2gkqSco8Skl8o1JYPj+UZV/wAAHIJJREFU8/CPzuJQeBoHgpLZ7xfPvkPR2HiEs9M1hC2O/ljtPYz5nkMY7fRAd6sbmlbOrDZ3kHAvMtiDms4OZq3dytTVG5m43JKxi80YvcCYYXOFzdJl4FRt+k9ZxwARU9cxcOo6Bk9bx2fT1jFk+jqGzlzHsJnr5Hc1ao4WX87V4qv5Wv8luK2sN6OC297BGWdXdzy8fPANCCY0IpqElHQiY+Pl8oC2drY0Nbfw/OVLXr/+QcL9j1qTD6LcKri7bsX4kxs3blBSXMSBA67yAobZ8+ahZWQq2+YecYqE8kCMwndLaxKXgYBbKHdXuP3TC6QtUSl31rEaiqvPcuzsBU5eaKS2qZXG1naaOzoRcF+8JGzJFRm/hLuTls6LNF7soE7C3UrT5csEx0TRb2B3eo+YxKAZegyarv0ecAm6hFsB+PCpS/hq/Hj273fi8ZPvePn6DQ8ff8ed+4/45vZ9rn59R8LdcUWsJ/81De1XOVPfRtWZhr8LbvegZFz84nHwjsH2YAS73ELZ6hSAtb0vFjbeGO86iN62A2ht3I/GBkdWmO5lyXobFujuZI7mNqav2aRUb3O+lGdOQ5k7/K5wr1XZEiNMzTYg4N66fRd7bO3Z57QfFzcPvLx9CQqJIDImAb+AYDZu2siOndupOlHNk2+/5+mzZ4iZE4RQ/mHh7gq6eLOi6bN0yUKMN27GKz5DJpGiaynglhGrtCbib8KWJGTjlZSDd0oufmkFBGUVE5l3hITiY9KWFFWfkXCfqmvigkgk2zpk2a9dqdxCvUVcvHyZjsuXZLRdukhrZwdNHe00dLRR195K06VLFFYcZfzk0XQbOISB07QZOE1HbhWQK0AfOF2XYWLl3SlT2O/ixOPHT3j3I3z39Plfwd159RtaLl6jvvUStY0d0hP/T4N77lJt1JZrs2ilNktX6bByjQ4amjpoa+thaGiMmbkl1hu3sH3Hbmz37pNlQKHaAmhf/yD22u/D2MQIodinTp/m0eMnPPnuO7mOqbC5P/30J4FbgB4WFsKqtRq4BEVyKCkbj1gBtip+BlwmlskimczDKylXWpPDqfkEZhQRlltKbGG5nAkqr+o05WfOS+UWKwJLuC92IuCWcemStCaXrgrP3Un7pU7aLnVIuJuVcNe3t9J4sZ0zjfWs0VrBv/fqxoDJqxk4XQG3BF2quABcly8mL2Te/Dk0NjbIY/fFy9d8//8Q3FMWajNtoTYzF2szb5nOL+BepaGLppYeenqGGBmJMqA1m7dsZ9duWxycXHB198T1gAc2dnaYmplibm5KYFCQrBY9ePRYwv3906eItU1FQvmPqrb4gn43W9JVuVtaWjAw0GOLrT3+qbl4xqVLzy0Syq5JpaieCNV2DIvFKSyOQ0k5HE4vxDe98Gf1zi8jsaQSYU1Ka85Sda6Ocw3NNLa0Iaoh7cJvX73Gta+/ob2zkyZRCrt0kbbODto622nrbKP1YhtNHS00djRT395C8+WL7LTbIX1336/UECo9cJqWUsWFkmszYJoOQ6auZOLUqRQW5v8n4b7cRbkbqai5QOlveO7otFLCkgoIjs9977l/T1syYKqW9NziMw6apsVn07UYMl2Lz2do8cUsLYbP0kLht7UZO0+b8WraTFqgzdRFOkxfpMOsJTrMX66D+godlqzWZYWGPhqa+mjpGGBgYISZ2QY2btrKjp022Njas9vGlo2bN2NktB4zM1MOeh6ksuo4N2/f4eGjJzx8/ITvvn+KuKrrzdu3HySZ/KfALU4xAf7+6BsZcyg6Cd+UHAm3UG3XqFRco1KUgIuEMgvX6BTmrVjCl5PHscxkG6aO/tgHJ+CTmq9ILLNLiCkoJ6Wsirzjpyg7VUv1+QZqG1sQFZEr12/Q0NxERlYaxqZ62O2zob2znY7LAvA22i620nqxheaOZgXcbY20XeskODKYfoO602v4JAZM00UA0BVwAfegaZqMHDcZDw9XqS6vXr9RKPeT79977mtf3+Gi0pY0tF3mfJPKlijhrjpLYcUpsktPkF5YSXJu+W8mlCq4Hb1jsDsYwW63ULY5B7Bxny8bbL0x2X0Q/e0H0N60n7WWTqw0s2epkS3qeruYu247MzQ2M2WlNeOXWjBmoSkj5q+X5ctB03QUn22qFoOmazFYgD1DAfbQmVoMm63FyNnajJ6jzZfzdBg7X4cJ6rpMXqjL9CW6zFqqx9xleixYqc/i1fqs0DRkjdZ6tHSNZePG1NSCDZZWWFlvxGKDJevXG2JoqC+LC6Jceux4FddufM39h4+5/+iRUrGf8fL1a968+XBg/1PgFqdwC0tzbNwOEphWgHd8phxXciA6FZeoFBkK9U7HMzkfM1t7+vT/Dz7p25fe41bQa8JaFpnYyrKgUPAAYU9yhD2pILXshAT86JkLVNc2EJ+aiq29Das1V/L5qBH8S8/+zF1tyLn6ei5fE8mmAuzWjmaaO5po7Giiob2B1ivt5JXmM2bcULoNGiq//AFTtbsArlTx6ToMnzgbU9P1UmnEDhTW5Nvvn/Pg0bfcuvuQ6zfv0XntpvTcCrgvcup8q6xVHztZx5ETtRRWnCantJqMouOk5JUTl1lKZGoRoQn5BMaKcmA6HsHJuPon4OgTy17PSHYfCGObcyAbRTnQ1geT3Z7ob3dHe5PLb8I9U2MzU1daM2GpBWNFp1TNiC9ExWSG6LRq89l0HT6bocMQMbRgpg5fzNJl2GxdRszVZdRcXcbM1+UrNT0mqOszZbEB05foM3u5IfNWrEd9tRFL1xqzQssEDV0ztPRM0TMwRV9/PQYGBujp6cqav7W1Fe7u7qSlp3Ohvp5vbt/m3sNH3Bfx4CFPvv2WZ8+f8/LVK1lO/vHHnz6IHZGn1d/bloiZXwMD/dmweTOHYlPxSc7moPDa0Sm4SbCTlYCn4pGQjXN4ApPnTOfTHv9KvzFz6T9Vh55frWax2V4OpeThk5aP8N/+EvAjxBVVyFmnik6eo6CyBvWlavzLv/9vPvl8Ar2+WkqvCRqMmG9MdkkZV66JGngzrRebaO1opLmjkaaOBhra62m+2MypC6dYsHgWn/TpRf/Jq6UNkadvcQqXKq7NwBm6jJi6lIWL1MnISKfz0mW+uXmbB/LU+j33Hn7L7XuPuXH7AZdu3KFNVEvarnCuvoOTtS1UnqqnrPo8RcdOk3ukhsziX8IdlqiA+3Bkhmy2iFq3s7LWbeMeznaXIDY7BshyoJmNF4aiHLjFlXXW+1lt4cByk72IcuB87R3M1tzK9NWbmLTcknGLVRWT9Xw+U18C/vlMXT6fpcsXs/UYPkePkXP1GTVPny/VDBirZsCEheuZuMiIyUuMmLnchDkrTVigYcaitaYs0zJhlZYxq7UMWKulyzotHfT1xAoNJuzcsV2udJeekcGZc+e4euNr7j14+B7oBw8f8fjJE4S/fvHiJa9/+AFRWRMe+0P4bBXYv7tyX7p0Sa4N7+jlh29KnrQj7tEpcvirsCMukcmyU+kSncrBpFz0t+6gV5+/0GvIF/Sfokm/KVr0Gr+GNZv34yNUPzUP75R8eds/o5jQ3CPEFlWQWXmKuLwixk8Zw7/3/JT+kzXoP02XvpPX0XuiBh5B0Vy+1qGAu6OR1o4GWjoaaOqop6G9Tm7rWs6jb6RJr4G9GThpOQOFNZG14C5wC+Weqcn0WbNZtmwxujpaWFltwMHBAT//ABISk8kvLOJo5QmqT9VyRnRO69s4V9/Omfp2agTgZxpld7G4qlZ2ELNLq0nJryRedBHTSghNKsA/NhvviHQJuKt/omzm7PWKUqj3/mA2OfhjudcH0z3KZs5mRTNHAi7mTdHfw3xR79bcyjQJuBXjFouGjikj5hkxbK7oGq9nhJoRIxcYyzr4WHVjvlpozMTFJkxeYszMFabMXWmC2mpjFmmsZ+laA1as1WW1phbrtLXRN9DH0mqDbNod8vIkITGRoxXHZIJ445ub3L3/gPuPFNZDKPXDR495/O23fP/0Gc9fvODVK4UNEWB/iLJfV6hVt3/XhPLChfPs2LULz4h4DifnyOaNW1SyhHt/ZJIEW7Th3eMysQ+KYuzUcXTr9Rf6fbVAqna/yZr0nqCBzi4PfDMK8U7JkwquALwQCXhOKYllJ/CNS2Lk2KF079+f/pPX0n+KlmxWdP9qFTqbHGlqa6C9s4nW9noF3EKxO+pobL+ggLztAnb7djJHbRZTlxoxSt2Uz2fpMVgml6Jaoi07lUNn6TBl1nwsLMwIDAnB5YAbu3bvYtOmjbICYGxshLm5GVbWlmzduhUbWzscnZxxOeDBwUOH8fEPJiA0iuDIeEJjkgmNSSE0Lo3Q2AyCYjIIjMnANyIV79AUDgYn4eYfz37fOMRkkbbKZs72/YFsdhSAH8Z09yEMd3igt8WNddbOrLHYx3JjOxYb7mGB7g7mrNvCjDUbmbrSkklLzZi4WACsUORpSw2ZscyA2csNmL/KAPVVusoEUZfV63TR0tHFwNBAJoFbt27GYZ893t5exMTGkF9YSM2p07S2tXNdwvxQWg6h0vcE2A8fKoB+8q20cE+fPeeFbNC8lkmjqsX+odVaBfbvrtxXrlzGzt4OZ58AOehJWhKRQEYK1U5RqHZUCh7x2Wiab6BH73+l19BREkoBp4BbhJGdN36ZRRxK/Rlu79RCWUkJyCwiurhSTnH22bB+9Bj8uVR9FdxC+ccuNCGv7AidV1poaa+npb2OlvYLNLdfoLWznks3WqmsKcPR2YZtO3dgbeeFzmY3FhvayKRspEjGZunLJsgXs/WZOHuRXCrlzPk6GlvbqK1v5OSZcxw7foLC4lLSMjKIio7Gz99fes59DvvkAbB16xY2bd6ElbUVGzZYYLHB4v3WzMICU3NzTM0tMDY1w9TCEjMLK0wsLDG13ITJho0YmVtjaGbFerONGJpvxNBsI3omVugaW6FlaIGmvikaukZo6KxntZYhq9YZsEpTl5VrdVipocUqTW00tXXR0tVHz3A9xiYm8j1s3GTNzp3b2bvXBhcXJ7x9vIiICCM1NYXCoiJO1FRT39BIR+clhCrfvndfYTNEUij9s8JDP3jwSFY+hO347vvv36u0mHtb2A9RCVEotcKCfICBf11Z/qvbv6tyC88dERnOpu3b8YxOxDs5R15LKfy2rJJEJeMRn4Wtbwgjx4+ge59P6Td+sVRt0SIWYyGE37Vw9sc/s0gqt1BvqdypBRJu/4xCIgrL2ePpRb8Bn9Lz85HvDw7xGuLg6Dl+DRY27jS0nqfzSiOXrjZx+VqLjLbOC2TnJ2Jqrsuqtcux2G4vBxU5+MTI1rfoCIrT/Zx125i8wpqxiy2Yqr6W9UbrOXqsUjaOFA0kxZiW9wO2Ll9FDOASo/8aW1q50NDIqXO1VFXXyNN3UekRcvLySM/IJCEpiejYWDkAKyAwEF8/P7wOeeHl5YlYTdjVzeV9uLm54uzshIPDvvfh6LAPEeL+A+6uijjgiqenB4cP++Dv7yfnl4mOiSY5JYnMrEwKCgs4Wl5OzcmTnKs9T0NTI+0XO7l2/QZf37zFrbt3uffggfTLD2RlQwlyl4RQ3C+bL99+x7cS5qc8e/5CNmLEdy+ad2/evuHtu3e8+wAdx7+i9/9yx+8Kt/jfV69exd7ejk07d+EVk8zhpFwOximSSvfYNDziM1ljZESvvv9G/5Hj33cHRRmu7yRNBs/UY7N7CIFZxTKZPCygTlOEX0YhQrnDC4+y2cmJnn3/Qu9hY+mvHD8h4BbRZ+JaBk/XwWqvBxkF+aRkJpGQHElwqDcmFgaMmzqewaPG8uWc1UxdZc2S9bZycJIY07HPO5q9XpHscA2WbW+h6Cv1rGR3raziGB2dV+QQVtENvXT1uozLyu2lK9e4dPUanVdEXJX19/ePuXaDy1dvyMeLv6sOio5LV+RBIS6yaGm/SEu7ODjafhH1Tc3UNTZR1yi2qmiivqlFPq6ptV2eUcRzRUNLvLawDjfv3JWqK62DMskTDRRV9eLeg0cKoO8roFYlgg8eKTyzAPnxk2958u13CmV+9gxpN168RMAsxoT88KarQv/IT0qof0/78bcY/93hFv+4vr6OXTt3sHHbDtzD4/AV9iIxG+/kPPb6hTJ11iQGD/uMIdNWy5GDsu09TVvCLezALu8ogrNL8E0rUER6Af4ZBQRkFBKUVURE4VEsbHbTo89f5PiQX8Mt1F+cBfpN1mL0AiOmqy1j3rxZTJ4ygRFjvpQj/EbN02O4mgkj1Uz4cqGpLKOJmrGmlROWdj7sdg/D2TcO16AUrLbbyzHsJ0+fkc0iUVu//vU3stT1za07sjlx684dvrl1mxvf3JIh4Lr29ddcu/GNrCCIKsLV619z5dqN96E6KATs4qBQHQiXrl2na1wWB8avQv5ddVCpDrJr17l87TpXrn/Nja9v8vXN29y+e0+pyA9kOU5UL1TwiiEFj5484fG3ilb4t999L/3yd0+f8ezZc5kICt8sQpTvBMxibr937+2GorOoAlm1/Vvw/d73/1PgFh+iuakJBwd7zK2ssHM/hGd0En4puTh6eqFnsJalWuuZuXYrXy02Z8Q8Q9lwEKo7Us2IfYHxclSgUGkBdGBmIUEisooIySkmqrCM9Zs30r3Xv9F31PT3tkal3AJuecCIoazTtZkwU00uLOq03xkjYyOWrljBvMUrmL5wLZMX6TNukQljFpoxZqE5E5ZbMWvdNpab2MvqxDaHQxiZmXPI+5BUY9Flu3XnrqwOPHwkQFGcqoXKPXz8WP5+/4GitiuUUFQR7t67zx1l3Lp7Tz5fqOrXt25LSyAgvHFTHBQ3//MhHq8K5fOEvRAhDjIF1A8lyEJ5JbjfPZUDlcRgJRES4OcveP7yxXuARVVDtMR/+OGNHIoqfPPbd2+lzVBZDYU6/96o/v2v/0+DW7w1cZVFTEwk27dvw9zaio07drDbdheOLvtx9I5i54FwDHcclNm+6LCJoZpTVlrhFpFCRN4RQrKKlVFEaI4iIvKKiSk8graZEZ/2/Ff6jpn9V3ALiyNsibjEbdgcPabOUcPL6yBXv/6G83X1ZGRlyYHyGyzN0dDUZNEKDeYs02XaMmOmrjBn2kpz5q0xY4W2ETr6Btjvs+dsbS13Jaz3efToMU+UKqcA5Ln0nqJBITyo2Iq6riiDifj2u+/k48VzRCNDnOqFYioOiCcINRWlM6GoilAcJOLAeW8jlIorlVflg8V9v7otfn/06JG0EgJoAfHzF0J5X/Pq9Q+8eq1I9kTCpwD4rUz8pE9+96MyAfx5Ky7+kiGyQWVG+JO85++H7/d+xj8VbvFhRLZ86VInubk5Eihra0tZIdi00w47Vx+cD0fJrty2/SHob3VHZ7MrhxOyiM4vIyK3lIjcEiJzS4jILSYyt5iYghLiCktYpbuWT7r/K33Hqv1NuIfMEo0KPeaoLSQoOIBvbt/l5u273LpzT9qKC/UNZGVn43XIk02brNHR02etth5aOnoYmxhjY7OH6NgYmlpalI2JhzyUpa7v5SlbcaoWKidAEf7zjdyK07cICdLr19KfinEUL1+JU7xIwF7K54uDQHhYEYrbz3j69K9DHCBSaeXB0+WxQoG7Pv69GivKcAJoRZKnqFoIgEWN+cefflJsxe0u8R5iAfTvXdr4HUj/p8Pd9TM8ffqU1tZWMtLT5fhoSytLzDYIRbfFzs0XZ59o9gckEJ13VK5TE5N/BEWUEpOvgDqh5AjxRUUsWbOET3v9hb7jFr1PKIUdkZZkmqhR6zB0jiFj1PRQX7KMuLg4vrl9R/phYQOEtbhzT9FJE6fy83V1FBYWkpKSTE5ONserjtPW3qGwH4+fyCRMNCXEgB8BpwBbwCzG0qiqA+JAVoW4X9yWp3XxmLcKhRS/C98qnqvaqlRUdVBIRRW2QBm/df9v3SceL0twb8T/UPx/8R5UTRMVsL++FPdv3d/1u/sz3P5vhbvrDhKgNzTUk5SUgKPjPswtzFlvZsHmXfZ4BkeQIBZyOlpJckkFScVHSSouI6lYLIRaTlx+PotXLaTPoD4MmLRcts77T12HCHG1ibAk4iqUYXPXM05dn+Ur15CZlSUVWySAt27fkZ5U+FLhh8W4B9Xp/+eKwRN5n7hfdtuEYj99yvPnL/hBmVipABZwdI2/pYzvVfOnn94fBPJg+FFhA1S3xcHSNYTXlX/rcvCofv/F41TKrFRj1Xvqut//J9/+w8DddSc/evyI2tpaYmOj2bNnF3r6utg4OJFSdITcqpNkVVSRefQYaWXlZJZXkFJYhJmlMXPU1Ziy3JRRCxTdRQG0uJJGqLaougyfb8TERfqs1dSkuLSUO/ceKBRbdNQeKDpq7/2u0r8qvK8CaFkKUyZjwhqIqoFsI/+NakHXz/S3bgvgBPwq8H697aqyqr/91n2qv/32VvHf/4TO4m/ttv/U/X9IuFXvXHxRDx8+JC8vV7azN27dildAIHHZueRUVFJwoprikyeJz8zAft8edtjaYb33MNqbXOUgIjG+YvzSDXypbsyI+UaMUDNBtJzFwVJVXc29hw9l1ULUeUVSJxIu0YwQ3TVhN+Tv3ykrC9+LhFBUF1QlMYUNEaf+t29/PtWL9y7e99/z8/c+/u957f+XH/uHhrvrF9PY2Iifn68cw2FqYc5uezv8w8MIT4zHers1+ut12bL3AHZe0bLx4ugTgxhJZ27jjfbG/Swy3MMcre2oaZhgbmEmqx0CamE7BNgC5vfgKhM8YTlEtUNsRYWha31XAbXwscIifJgrR7p+3o+3//E98KeBW3xUUW/t7OyUCZ6Tk6P05dq6WqgvnMf8ZatYpLdNjm022unFDtcQ7L2jEW10x8Mx2HlGsN0lBEPLnWzbvpXGpmaZFAobIuq+AmxpM5SlMVFVkEmacquogCiSPsUYCYXv7WoD/vGv4+MrfMg98KeCW/XBxaD2hw8fyfHCYoCSnZ0tBkZGLFu1FvWVOqhrWrDUcCerzB3kACgxwF8MGfUISWHjDhs5BuPK1WsyQRSXOKn8szh4RFVBVjzevvu58iESOlnheMePyrHHKt8r3tNHW6H6Zv5Y2z8l3KJaIHyuqNuKRsiVq9c5dvw44eFh7N69Ez19fZZraLFwjQHqmhtYbrgTnU37sbZ1x2yDJWIAkegUigaJQrWfyRq0KMXJCkaXWq8KYtVWpdQfof5jgfxb7+ZPCbcATLSARVPk+2ei4/c9j7/9Tvrnjs5OjlZUEBIazB6bXZiZm6O/3hi99aaYmFvg4uJCXUMjj5RdQeG1xeB56aFlae3n8REqkLtuP0L9Wxj9Me/708ItlFTUdgXgIumTgD9RtLJFc0UMmBegi7HIYvHO5OREcvNy5eSTAmxVEimSRdGGFk0U8XoqkP+YX9fHd/X37IE/JdyqDyjqwwJI4ZNFvVko8PfPnstSnhi/oaqACE8tRraJpFHxdzHuWHVliHKIptKKqF774/bPvwf+1HCL3S+UVkAuPLhI+oS9EGr+8uUrWf0QwIsqyAvl7+J+OdJNOfaja1fxz/91fvwEXffA/wi4VZBL0JV2RbahlWM4FJUOUZNWja9QDhBSdgZlsth1r3y8/T9iD/zp4VZ9CwLsrj/y999qaysfJP7+6+d0ff7H23/+PfA/Bu4//1fx8RN86D3wEe4PvUc/vt4fZg98hPsP81V8fCMfeg98hPtD79GPr/eH2QMf4f7DfBUf38iH3gMf4f7Qe/Tj6/1h9sBHuP8wX8XHN/Kh98D/D9gpv1UNngvVAAAAAElFTkSuQmCC;" vertex="1" parent="1">
          <mxGeometry x="68.5" y="50" width="183" height="183" as="geometry" />
        </mxCell>
        <mxCell id="RLmKsljwDSlcrX09kRqv-13" value="" style="triangle;whiteSpace=wrap;html=1;rotation=-90;strokeColor=#3399FF;" vertex="1" parent="1">
          <mxGeometry x="90" y="301.63" width="366.15" height="532.94" as="geometry" />
        </mxCell>
        <mxCell id="RLmKsljwDSlcrX09kRqv-14" value="" style="shape=image;verticalLabelPosition=bottom;labelBackgroundColor=#ffffff;verticalAlign=top;aspect=fixed;imageAspect=0;image=data:image/png,iVBORw0KGgoAAAANSUhEUgAAAF8AAAB1CAYAAAAoez2lAAAgAElEQVR4Ae2dh1McWZrt9We8iBfb3bvv7W6rp8fuzuzM7Bu7Mz3T8nhJDfLeO+S9l5BFDhlA2HJ4770t76AM3gkQtAzywpwX3715iwIhO+pqYne644ssCgFVvzx57rnfzcyagr//970RmPK9/eW//2H8Hf53KoIRAMOv/Qt/h/9aNO/7DQINjIyMYFj6fwiDGMHQa3/R3+G/Fs3f/o1BAC9H+E6Z6Lf9Hf5EVD74uWEMjgzg6eNOPHrQjufPBzD0P8V2SGNMaCPDwDAVPUGbEWYH9L1h9jU9PSQV+6nX4ha6HRkZwvPBh3j6rBuPBprxsN+Cu3cq0dOah7Z6BTqMN1BfcRjG0r2wVpyAQ38TAw9aX/t76Rv/rZQ/ghEMjwxx8LSRDnkBcCIS5NCDeIrnL/vx5FErHt6zore3Br0dRWirT0S7ORrOmnNwVh2GtXgrzLlroEtdAGPyXBhUXtArvVEbOwPa2K9hTguCs/IAWjTn0Wq+hSeP2if6k67n/lvBp3clQA+PvMSLoWd4/PQenjzpw7f37Ojv16K7rRgdDaloqbsNp/Yy7FWnYCndBWPBRmgzlkKbtgi1SfOhTfCFRj4TGsV0aGUzYJDNglHuA4PMF2a5DyxyH+jjvFETHwBT9lo01J5CpzEcbZpbaKwKRYspAo8fdLlAT/TgI8On43yIE2CqYwc8A+I6uOl5VhwVKY8UK6BN9CLHPDdCf2EIz54P4OmTPtz7thH3+urQ2VKBO83ZaNJHoEkfhrqq06grPQhTfjB0WWuhSV0ETfI86BJ9oVF6Qa30gVY+Gwb5DOjlXjDIfaFX+EIv84VJFgCDLABGRQAMKj8YFXNhls+FWeEDo8obOpk3NDJ/WDPXoa3yHLr0kWjXXEdr1XW0V4WhpfoyOuqUePywc8xLH//FR4NPEUvU8AiFLe6phFay3vF/2/U1oadYNjj8DM+e3cejgW7c621CX5cZd5pL0eZMh80YhUZDOMxlp2GpOARtzhboM9eiNjUImpR50CX4Qif3gl7hDa3cCzqFD3SkToUvdApfGBX+DCYB5TWXQTUq58GonCsVPXavubDI58Ei/wYWhQ/0ch/Uyv1gyliL1prT6DbfRKcuEq0119Faew2ttVfRXHMZzZVX0OPMwuPHHa73ONGDjwpf/AGXytkUYwTPh57i+fP7GBi4g3v9Tejp1KG7rRQt9nQ4TDLYNLdgrjwDY8ke6LLXw5CxHNWpC1GbHAhdgj+0Sm+mVr1yNgzKWdAp58Cg9IaB4Cr9oFf6w6j0g0nuD5M8ACZFAMyK0a1ZORcmF2AB+u1bkzIAFjoa5HOgls+BJXM92mrO4I4lHG0EvfoWWmuvo7UmDC01V6W6wuDfbcz2HHwC/3LwEVpbNXBYUuHQxcJaeQ2mslPQFO6BOmszatJWoiptIaoT50KT4IuaRC9Uq2ZDpyCYc9gAZmCACbIXDEyxpFRSLR3+XL0mhR9MSl+YlGQDfjCqfGFQeXOLUM4fp153JU/82DRO7WJH6WX+qKUdmrEK7TUh6LZEotMYg3Z1ONpqw9CmDkNr7RW01txES/U1tFRfRUs1wb8Mj8EnC7/3bSvSYtegTOmPGoUP91SVD3QERunHlanyg0kVAFIUqdOgmMvKKCcLmAcDlXI+q7F2QCodBWdSzAcBcy8jg/7+4On3Wpinf8OPGJUvtDIvVMf7wJS+Ds3qk+ixRKLLEIVW9S20asLRpr7J4JPNcLsJQ3vVZakuoaXyMno9qfyKwivIifw96jP8GVzmq3J/GAiyUtTbD/VR//Xkv/WHmawrfhY08b4wZ6xHmzoEvfW3cccUjTYCrrnhqlb1DbQy1ZPP82qruoy2aqrvAX5x5lFUyf4Cg4qgzYdJMY8VKcvgVu4KngyPyWJo7KiVecGUvhJttSG4WxeDHlMs2rW30K6NQLvuOto0N7ny1bS9yb2+9hrz+eaaq2Dwmfq/B/ilmQdQK58OYwKpfK4L+GQAPNFrMCvmQS/3Q3W8L/QZq9Baexp99bHossSgTXcbHdpIdGpvol17HW3aa1z16htoU1OyuY62mmtoJ+jVV9BWdYVZTlvlJbRVhqK54hJ6G7Lw+JGH0k55xmGoZbNhSiDlU/rwpG2839+i9KOO84E6eQma1EfQY4tAtzUWHZTXdbfQrqM0I5WGVC+VWgyy19BWcxUd1RJ0spyqy2itvISWiotoLg9FT0Om5+BXEHz5bBjZgDqJ4SsCoI7zhj5zNXockei1xaBDH4V2fTja9Rw8wed1ywWePJ7SDU8419DqZjUcfChaK0PRUnEBTWXfC/xZMKooUweMSScTHfaef056TYoAaJRB6LZeR4c1Fl3acHQSeMMNCf5ttOsiuNdrBfwwNsBy+Hwy1VbDVd9eeRlkN60VF1m1lJ9HU9lFzyq/PO0Q1PLpMCVQJCQbGI2Gk+Kxypu9Jl2cF+rytqPPLkO7/iY6DLeY3XDLCUeHLoIV9WhokKW2ARVXPEXLK2ipuYTWah4tOXhS/QW0VJxHc/lZNJWfRy+zHQ+1FyrSyXamuymflDaJSuXLXo8ufjZaKg6hpy7WBZ9bjmQ7LOFQoqE4SQPsqNW01BD4y7yqL6G1ipINWc1FtFSeR3PleTRVnEVj2Tn0ODPw+JGn4DPPJ/g0+ZmEymdC8IMufibaKo+jpy5mFL7L4yPQxqzmFo+TE8GvluBXkdWEoqX8Iq+K8y7lE/zu/+nwxfxCr5gLo9yXtYM1MXPQVHkEd+pj0K69gQ7dTVe1aXmUpDjJi1RPVkN9G2kSxVJNKPd4yWq43ZxDc/k5NJWdQUPpWab8J4891FIuT+eePzrgvl/8+y6iKc2s9coA6BT+0MX7QB3jjYqIWWioPIyu+hh0jIcvebuwGr4VPn+Z+XwbWQ0pnlnNBTSTz1ecRxOBLyfLCYGj5Ixn4Rcl7YVGMUMacMnrvz/4rKWhCIBW5seqNtYLNTFeKIuYhZzLf2Z9/ju2WHRoR1VPRwDL824e72oRSz5POX7Uai4wpZPaqRrLzqKx9AwaSk7DURyCbme65zy/MGkPNIqZMKmoueV5z6emHDXnqElnkM+FTh6A2lgfVEZ7oTRiNgpvzETm5b8i7uTvYCg8gG4btx2yHprFskSjIZu5xoq3iK+gjSWbULRUSVZDii+/wIqBLzuHZgY+BI0lIWgoOQVH8Wl0O9M8N8kqTNoFDZtkUcfRk6rnkZapXRYAfaw/amN8UBnlhZJbs5FzbQZSLn0NZcifEXn49ziz7Reozd6HblusawJFvi6KtYilOEk+314diraqi64oSf4uins8WQ0p/hQaSk6yshefRLczFY8fe2gNtyh5N9SyWaynwydZntkBwmL0cn9o431RE+WF0nAv5F6bhbQL0yE7+WeEH/wtLu/6NU5v+hV2L/khKtN2occeywdV5vMcvgDPszylGoqTF9FadcEVJSlONlecQ1PFOTQyjz/Lts7SU3CWnoSj5ARsRSdwx5GCR4/axPrShNuPtpJVlLzLDb7nJli0JqAnf4/3Q3U0qX0GMi5Ng+LkV4g48Adc2fGfCNn0Cxxc/TPsWPTv2OD3OUqTg9HreDP85urLaK7mkycxgXJXPFf9GZZumpjXk/JPwVl8AvbCkxJ8D506UpC0DbWymWxlaezK0He7I0yUZOS+qIn1RknEbKSH/hXxx/+Ma7t+h9Mbf4mDq/4NO5f8GJsDf4h1/j/F0ln/iKLErbhrj0Z77RUpSl7hK1IuuwlFU9UFVgI4bZnHSwMsm8mWhaCx9DSD3lh0ErxOwJl/Er22JAwMNE+oePHkR1P+WPiem9malH7QyWhgnY3c6zOgDPkKYbt/i5Pr/gN7l/4UW4O+xPq5U7HKfypW+HyJBTM+QWHSVty1Rb0TfGYzzGpEnKRISZZzBg1l3GqcJSfRWHwCjUUn0FB0DM78E+i1JWJgoElwnnD70eAXJgcz26E1VU8qn9Z2tQQ/ahYyr0xDzLG/4NyW/8S+JT/D5vk/wlq/L7DC9wdY7jcVy3x/gMAZnyA/aStbpaLm2EQ+31ITisaqC2isnGhwpQFWxEqymZOsSPUNhSfgKDgKR+5x9NQTfA8qn6WdBA/DlwVAE++NituzkXHpa4Qf+j1ObPgPbF/4E6xlav9XLPP9Akt9p2KZz1QsmPEpigi+LZINqG21l9Fac4k9JugtVdSnucD6NGwC5bIZUvwZlmxYuikNcYGnHUDgqZwFx+DII/gqDDxsnFDx4smPpvyCxK3QKubAyOB7JunQfIJObiL45S74v8GJjf+B7Yt+grUBU7Hch+BPdcFfOOMzFDP4EWiuCUVbLXUoL6K5+iJaaiTwbnGSz1y51TSRx5edZtVQSnn+hKsaCo+DyknKzzuGnnolBh46BecJtx8NPtmOVjlHGnA9D5+Unx76NW4d/A2Or/85ti34Edb4f44Vvp+Pwvf9Agumf4YSCX5TzUW01oSiWRpcaZAlj2cdyopzLFKyWCnNYJtKTqO55BSrRppMlZyEndJNsaT4gmOw5x+BLecouusUePjAMSF08eRHg08DrkZBK1metR2h/HeFv5DgJ5Lnk/IvorU6FM3MZgg89WrOoYXAl591VZPk8QS/qfgUq8biU3AWnYSz6AQrR/4xUNnzjqA+5wju1Mnx8IGHlJ+fuBVqOa1kfT/wme2Efo2IA7/BiXU/R/BrlL9o5j+iOGEzeq3haKm+yGawY+MkQT/jqiayGSlO8lmsNMhKA6zwekce2Q3VEdTlHkKnNR4DDxqEyCfcfjTlj4Xvedt5F/jLfb+AgH+3LoLZDbUOxEIIn7meRVNFCJrKeZG3U1GcFGUvOg5H0XE4mccf4wkn7xAceYdgzzuIutyDDP7D+98L/O92YuW+LCls50PgN1WeH9Oz4ZMornwaXKnGqF2KlfbC43AUHoOz4Dgc+UdhJ8XnH4Qj/wDseftQl3vAw/ATdnDbYafxkfI9swPeBz5FTfL8QtUm9FpvcmupPIvmirNoqXg79Iai43wSVXgEzsIjaCg8DGfBIQbenrcfVLbcvbBm7UOXJQ4DDz2l/ISdbvA9189/X/iUdgh+t+U6mstD0Fx5hlfFGWY1IkpSk0w0yqhZRkWz14aio3AUHIaj4BCcBVztXPHu8Pd6GL5qB28pu5TvGd9/X/ik/ALVRtwxh6G57AyaCHoFH2AJPPN41h4WjTI+g2Uz2aKjcBYehj3/EOz5B5nSRxW/D7bcfajL2QNr5l50WePxyFPthTzVVgbfoKQTZT1jOWRtHwRfuRF3TNdB3UjeFub+ziZRItkUn0IDzVxpYC0+Bif1bJjdSOCZv3O1M7vJ2QNbzh7UZ++GNWMP7lji8chTM9xc5UYOX0XnzRP8Sax8Bj+MRcjG8hA0SLNWd+Xzng1ZzVE0FB2Bs+AwnIWHWNkJ/Hj42btgy9oFW/ZO1Hke/iZpJYtyvmfAv9JeeFvOlwbcAuUG3DFfRWPZKTSWS1YzLlLy1gENsASf7IYGWb4DbDSwssGVWw3ZjS17N+qzdqEucweD303K91TOz1W6w5/stkPwL6Ox7AQaK06ioZSW//gyoFC8o+gEy/JM9YVH2CBLyYYGWVvePl4EPXcvL1J91k7UM/i70W2J8yB81WbWWKOr9ya956s2oMsdftlxNJQeh7PkmKscxUfhKCa1H4Kj4CCzGUf+fjjyCfgeVnby+ezdrOwZ28ErGHXpO9FljsEjT/V28sbAJ9vxzILKBw24EnwC3lB+As7SY6wcpcfgKDkKR8kx2IuPwl5EkfLga+ELqyG7sWUES7UN1vQdnoWfn7CFNdYMrgHXM9bzofA7TZe4yssmUvxR2IqOwMZipTS4SrNXex7ZDE82BL+O+fxO2NKDpdoGa9p2dJqiMeAp5ecmSvCVdEKqZ8C/X9T8Ast8vsDCGZ+iQLkOnYZQNBQfRcM4q3FSsiHo5O2U5QsoTu6DPXcvHLl7YSfwZDVZu2DP3MErY4cLfn3aVlhSgxl8j9nOWPiTMe24w1+LTv1FNFKSKSGr4UVW4yiilgH3eBupvXAfSO3k746cPWzL4e90s5pg1KdvQ33GNtSlbYHZ0/DzkrdBR9fOupTvmR3w7rbzJvjk89xq7AU0ieJWQ/Dr8/fCJsG3S4OrCz5ZjeT19WkEfiusqZthStmGDkMUHt63T9hKFk9+tJZyXtLWcfA9Yz3vAn+571RQO3k5s51PUKhcg079BTQWHUEDDbBFR3hJdmPP3w9RDDzZjSvZ7EJ91k7YMiWrSQuGLS0YdQQ/dSvqUjbDlLwVHcbbeHjfJjhPuP1o8Ml2aA13VPnfP/zVAZ9jpe/nWOEzFSt9aAdMxcIZ/4AixWp0Gs6jgSymmNuMs/Agj5UEnpQuiqwmW/L5nJ2w5exAXdZ21GduZz5PiqeypG+BJXULrEmbYEragk5TJAYe1E0IXTz5HcH3jOW8bYa7KuBzrPD7nEFn8H2mYtHMT1AoX4VO/XkOu4i3DESWZ4OrSDRicJXspj57B+qzt8OaGYy6DO7zzGrI59M2w5yyGZakjTAmbUaHMQIP7lkF5wm33xF8z6j+bWnnFeX7TMXimZ+gQLaSw6eBlcHnWZ5aBhPDp54N2c0O1GW6wRdWk7oVptTNMCdvhiVxI4yJm9FujMD9by0TQhdPfjB8cXsX8YuKUrezu4HQTSgmS9R0h0+WQ+fuLJj1CQoVK9GpDYEzfx8aCg/AUbCPzVx5ht8NW+6u0crZCVI8WQ0bXNODmc0Iu2E+n7oVFgKfvBnmpI0wJG1CmyEC9++ZBJ4Jt38z/GG6aRmAopRgN/iTz3bGw+/QnIYjbx+cBbxlQG0DBj9vN2x5O2HL5UU2Q1WXFcyiJEVKshpR1lTyelL9JlampA0wJG1Emz4c/Xd1E0IXT74TfKHy8dvh4WEMDfGbdhYkb5vUA66Av3DWpyiQr0S7+hSfOEnQxQBry+XKr8/ZASpSPBX5PMvyadtAwHlthSVli6T4TTDTYJu4AfrEjWjV3Xp/+AKw2Du0pec46CEMDY2tFy9fshvJ5SdtYydNTaa0QydNUdoh8HTKoJjh5stXoV19ms1WOfQ9sOdRs2w3bDm7YMvZiTpmNTtQL3I8DbBSsiGrYfBTNsGSvBHm5I0wJW+AKXE9zAnrYFCtZRfbffu+yhfw3bcEXsAfHBzEy5cv8eLFC1ZPnz7D4OAQ8kn57A5Q5PmTw3bGnrHG4S+Y/inyCL7GHf5u2PPI53mU5HEyGHWZ1K/ZJtUofG41m2BO2QBT8npWxuR1MCWuhUW1GkbFKnRowvBO8Am0u8IFbHfgAvrz58/x7NkzPH36FI8fP8bDhwN48uQpchOkljKb4U5++OT5tOzHmmQEPm8nsxkCT2XNCuZWk8HbBsLrrTS4UqRM2QRTynpXGZLWwpiwBiblKhgIvjYM/b1adwN55THz/NfBJ4sh6KRyAk715MkTBv3Bgwf49ttv0df/Le7dv49sxWY35U+OqCmUz/1eUv6MT8FsR3MKthzyd9oBZDW7mNXwLE/wuc+LbiVZTh15PfN4bjeW5PUwJ/EyJq6BMWE1TIqVEvzrb4dP4IXCBWyhcgGdgD969AgDAwMQ0O/evYvu7m503elGT08PMuO3S/Dpll6kfM/sgDe1FyaKmjTgUtRsrT2OepqxMvA7+NqrBJwGV1HC55nVpGyEJWUDzMnrQeCtSethSVwHs2otLAmrYVatgkm5gsPX3ERfj/4Vtbs/MUUMoAI42QoV2YqA/vDhQ9y/fx/9/f0g6AS7q6sL7e3taG1tQ3tHB1Kjt0h3/SP4nllIob/zJvjuM1z3tEPw29THuNKFz7MBlqBvY2XJ2AYqV6RMo0i5EebUDcxq2A4g8AlreTHwKxl8PUtTN3C3+x3giwGUoBNwd+j37t1j0Ht7e7nSu7rQ0dGB1tZWNDU1oaGhkW0TIzZAp6Ku5uRXfgGDf5zDZ/0aGmh3uiIlqZ7Bp0xPzTKprG7KJ7thqpfgm5QEfhR+W+113O1+S84X1iIGUGEt46F3dnZKSm9Fc3MzGhsb4XA4YLPZ4bA7kRC+DrqEWdB7yG6Erb1J+RPZTtDMf0C+bDlaa44x2GQ9IlYS9DoaYKW2wajVbASBt0pWI+yGrEaUUbECvJZDJ1uBdvU19PVq3F3mlcdTBHTydGEvNJAKe7lz5w4E+JaWFkntDRJ4G6zWOtTZHJBHbIY6wRt6D8bM92msCdsh+AXyFWitOcpmrXU0kcoOZo/JcurSt7JiOZ5mrqkbeKVsGAPfmrjOBZ68/lX4V9DXq34FuPsTU0jpBJ0GUqF2AZ58nSymra0NzS3NaGpsRIPTCbvdjvp6O+qobE0wW+sRc3EBaP1WrxJ+75m4+V7K95uKwOn/G3lxS5jns0FV6lIKq6mjFSk2i+UTKRpgLSnr2SBLinepnjK9a5Bd6YJvkC9jyqcL7e5217qzfuXxFAGdxca+PpC3u6udvJ3ZTEMjHM4GWB1OOBuaYLEYUVNVhMLMKCSF70LW5emwJPrDoOJ3FxS28F1v3wR/jdTPX069fKmfHzT9U5zd9Xt0Gc7AWbgTlozNbBZLM1kreXz6VtSnUftgM6w0g2XwecKxJq0DlTmRBlmRbrjXGxXLQWWQL4WObK326tvhk9r7JOgsOroNqONtxmoj+A7kpYch/dYy5N4IRPH12aiJng59IqneB2aWdChmfv/KFzmfLoijVSxaVFlBq1kz/w+OB/8O6sytaK446GqYsYlU+hZY03ikFOBd8TJpLSxJa2BOXAVzAsXKUcUbFctAZZAvgTZ+qQT/LbZD8XF8kmE209w8zt/rUe9oQmVpJsJP/B71OavQow1Fjz4CXfrrsOZuhF7m5THoYue+UfluF8RRb4d8n4p6PPOm/ROW+v0zokLnwll6ABaKmGwNdpMrUopYKWayFhf81RPCJ9XrZYuhiXtH+AK8GFQFeEozTqfTbWC1wmZvRHb6TSRc+Qo9xlDca0zHXUcW+hvz0K0Lh1FGivdjN7/4ru1G/P6x8Kch4sBvcWL9LxC84MdYQ9fh+n6OpdL6LVc+qZ+abZ9j8Zyp8P3qfyE1PBBNZQdYa9jdaoTiKdOzXP/O8Je8m/LJ38XASv5OViNiJA2sNpsNdXVWmM0WmOttyEy7hZQb09BjDkO/IwV36xPRa09HlzESRlUgzAq6i5/nZrhGhS+720h5pDcyLs1A5OE/4vjGX2Hbon/D2rk/xDK/L7DY90t29fkofL4D6OvArz/DjeN/RWv5PljT1jHVu9vNmEE2Yc1rEs4K5vVC+erYxey+m3e732I77op3B08Zvr6+HhaLBWazGSajicHPSL2FlOtfo9t8DX3OZPTaE9HjSEOXMQJG1TcSfM9dmSLgV9z2Qeal6Yg6/AeEbPo1di7+N6yf9yVbwxVXnwvbcd8GTv8M4aemo7VsDyypa2Fxi5bUtZwIPm8juPs9h6+XLYEufhHeGb4rSkoTJ7IaoXirlRRvhslkgsFghMFah7Tk60gO+yt6BHxbwgTwPax8mS8qo/yQe3Um5Mf/C5eCf4P9y3+ObUE/xLqAqVjpx9POWOWT+qcicNpnCD85HS2le2BKXjMm3ZDViGjJ+zdc+WI2O5rtV0DHwC+GNm4hg0+3gXyr8l1RcpzH19XVMdVz8AZotTroTWakJlxDYthf0G2+jn5HKu7aEtHLlE+2EwSz3MNruMq50Mr8UR3tjcIbM5B07s+4tf93CNnwS+xd9nNsCfwR1tAOoKTjzQdcUr7YES74ZXtHlS95/HifF7NZkXIo07tKtgT6+MXQxS2EJmYJmmsvo6/nLTlfxElSPPk7WY07eKPRCL1eD41GC63eiGTlFSQQfMsN9DnS2K1NuO1EwqhcALNc9HY8FDWVdD81f3Z/5PLbs5B97WsoTv8JN/b+Fqc3/T/sW/Hv2BL0I6yhu49404oWL2E9wnZayvYyz2cJhxZIpIkVRUseL6mVsErqXJLl8ExPPs9qAvj9b4MvUg2ftY6CJ+gGg0ECr0FtjRpqrQ5JistIukmeP3ng0y3j6U6CNTHeKIuYjZyr06A4/UeE7fstTm36JXYv+Rk2zv0RVvn9AEt9Pmc1qvxPEX5yGppKdsGcsgZmtwUSUzJNqFa7Sihe9HB4rqd4uQS6uEVSLURt9GI01V5Gf89bBtyGhtE+zXjF63Q6qNVq1NTUoKqqGtW1GiTIQpF0g8Pvd6SNtR2X8j3Ty6e4KW5cStZDt/qqjfFGeeRsZF/9GvEn/4Qru36DI2t+ia1BP8Fq/y8l+NKMl3n+p2zAJfjk+QR/dJGEWsY809Okyqik5hmfyY5OqgT8hcxydHELUBu9CE01ZDtvgS8GWJFshMe7g6+urkZlZRWqa9VQxV9E4vW/osdyA5MBvivv08eDSDe5q431RUn4HKRepLuQ/AHHN/wa2xf/DGvnUuSk83f4/XcoBc2f/hkiTs9Ac8luGJNWj1kksbzSvyHw5PPcaoy0lS1hpY1dAF5BqIleyD645q0DLsEn8CLZkNVotVpoNBrU1taCwFdVVaGivBKV1TVQxJ5n8JnnO9Pcoub34/lipksLKyYlfUaLD9TxPii7PRuZV6bj9tH/wqnNBP+nDP5yvy+wxIefQCXgU9RsKt4FY/JqmJPWjenTi+bZeKtx93kaaLWxQVIFojZmIegGeX09b2kpE3x3u+GDq4bZjQBfXl6O0pIylFdWQRZ9FgmTUPnsc1oYfC+o471QHj0bmVe/RtTxP+L01l9h++KfvBF+Y9HOD4ZPfu+u/NqYRe8GnzyfUg7leRpkSfVC8RUVFWDgS0tRXFSMkrJyxEaGTFL44qOb5oLunVwRPQdZdM+1o39EyJZfYocb/KWswcbjZtC0zxARMhPNxbtgTVwN65gWwmrWPBsdaLnt0ABLRZbDwS+EIXqBVEFQRy1EY80F9PfUvNJGdn9iCi0FusMnu+EDbHKVDFkAAA6bSURBVNUo+OIiFBQUori0zAV/skTNUdvhnwJH1wBz+LPfCN89ak4E30RdS6lzOSH8+MVSrifVL4Q+JkiqQKijF6KxluBXu7N+5fEUyvnUSiDPJ7+ndEN2Q6ovLS1FUVERCgsLkZ9fgMLiEkSHn+Q5f5JEzTfBz7k2HTHH/uutymeeT739hFWwJK6BKXE1jKqVvFzLg9RC4IMtUz6bUHHwBN8QswCGmCAYYgKhiV6EZnUovu19C3xqL5D6adAl2yHl0wBLdlNSUsLAFxQUIC8vH/kFRbh94zgSrn2FHvPkSjuUeuj6XyqdIoDZzjvDPz0NTUXbYVat4KtTdP6NtBg+Gi2lSZXURtDHLYI+hhTPy912tFGL2M3y+nuqXlG7+xNTqKNJK1Xj4ZPqi4uLQeBzc3ORnZWDnLwCRIQdheraV+i23JwUM9yPovzTX6OpKBhm1TJX15LOPKNzcESed0VMyef1pPZoUvr4CoQuaiFaqi6gv/st8KmlTPDJ90n5NNiS5QjweXl5yM7ORmZmFrJz8xAedmRSwzco/KGhRlvMHEykfJHzx3r+NDQWEvzlrvaBUL7I9CJaikFWN8bnhd/TNhDa2wvYXQr/Jvj5+flc9QQ/IxOZ2Tm4efUwVGFfTbpJlrAdgzwAGpkfKmO8XgufVrVEe4GnnekS/BVvhO/u9Vz5IuG4b4Ogvb3o3eCT51N/h7I+zWppsC0rK2N2k5OTg6ysLGRkZCAtLQ3pmdm4fukolFf/Minh0w6gDy3QSHcUzx4TNX/MF1d8fsBmuaPw/xERp2eisXAbzMo1MNNAO2aQ5bNZAk+9eupaUqbX0QDripf0mGyIR05t5BJ2F6u+t3k+pR1qqpHlUNIhy6GEQ3YjwKempiIpKRnJqRm4euEQg//mGa44fcTzW4qZGpkPqmNm43XwaWY7ajuj8E0KOstYnPzEt0ztUq5n4ONoJhsIXWwg9O7lNvhqIoPQUHoEfT0V7uPrK4+n0AyXVqtockUphwZashvyeVI8gU9JSUFiYhKSUtJx5fxBqK5Rb+fmpOrtiB7Phyq/oWAbjHIxyIodsJxNpsQOEKp/s/IXQhM5H4asLejrKX8FuPsTU9wHWoqXpHpKN5mZmUhPT2fgk5KSkJCQgMTkVFw+d8Cl/MnUWJvI88cqn7cXeD9/nOefnoGGgu0wyGkGyxPOK4skNKmK4baif8VyyHaCoGPqXwBt5Fzo0tait7PYnfUrj6dQxCSvJ9VTrifVk92Qx5PiBXilUoWEpBRcOrvfBX8yLKaMj5ruaed18NnZDJL10GIKdTU5fDr3RsAfv0hCuV5MpHi8HJ3VBkEfS98LhO72PFhSVqPVcB1PB9oAft3JK+DpCQafmmmVlZUMvlA99/kkqFQqKBQKyGRyKFSJuHh6jzTgTs6cT21lETXfBp8GXUo7kSEz4cwPZjNYAV9YDUVLvjw4Fr4Az3M+DcBB0EQEwJyyES2mKDx/xj+yY4RfLzgxfGot0GBL/RzyexpoyXLc4cvlcsTHxyNOpsS5E7tc8EdtJ1U6e8Hza7jC60dth+D7oSLGC1nXpiH62B9xZsuvsGPJT7FmHu/nL/f5AVZ6f44V3p8jcNonuB0yA43522CUkfKXsokVh8/7N3op5QjboZRjpIpaAH3MIuijF0Jzex7MqevQXq/Aixf9DPYIRiBdcTUxfJpgiZhJ6qcZLQ22ZDuJiYlQKpWQyWSIjY1DbLwcZ47vgOIq5Xx35RP8cLdTRzx49oLbKen0KUUGhS/U8b4oj/JCVtgs1ts5u+kX2LX0S6yb9y9Y4fUvWD7nX7DE65+w2OdfMX/W/0X0eS80522GOX4pDMpFbLFEwKeVKSrq1496fRCM0YtgjFoCbVQQaqMCYE3fgC6nCi+Hvp0Q9ERPTqHzdijnU2ONoqZQPw22Aj6pPjY2FjFxcoQc2w4lwbdK8Nl5O+Phe/C8HbdzQvliii/7EPnKKG92KknMsT/g9OZ/x/Yl/4q18/8ZKwO+xKrAX2HDimkI3jgf2zYtRkLkOthzNsAYvwQG+WK+JkuNs3hqnIlFkiDo2A7gzTNdzCLoopdAHTUfpsxN6GlKw8jwAMhlht9k9G57YQqdLkiX91Bfn+yHJlnUWqBBNzk5mSnfHf7po8Eu26EBl04d6XGMh/+xlT/+TAj3E3HpMX0q3TyY5P7Qx3tBHTcHZVHTkHXjz1BenoPrIQE4e2QRjuxbgQP7N+PAgT04dOAA9u/fj207d0AVvQP1uethiF/MevSkei0tkIxZJCGL4amGOpi6mG+gjvaDJXsH7nYWYxjPMETg2QD7hlHWHT6dIk7XWNE5mjTZorYyTbQo9Qj1k+3ExMQgNlaGk8eCoZBmuL3OTHTbU3DHmYJ2Uzj0CUGgD5Bx9+EPfSwWxmkrEg17jp3/7w8jW7Olsxa8oZHNgVo2BxqVH7Rpy2ApPYBG43W01yfDaSlFaVk+VAlKXL16DSdOnsLBQ0ew/8AB7N27D9u270BC9A44s9bCGL8YRhlfl2VnI8QuGjOLJfjauG+gjZ0P9W1/WHKD0ddbjhG8YEjfDfko/Sl0/RXtADoC6AQqyv0UPSnzU/KhgZd8Py4uDrGxcgZffvUv6LOGoc+Rim5bErodabhjiIFBuUC63854pb7/1wbVXLhKwT/yz6TwgiF+FjSymdDIvaGlhZOsxair3IdWSwzudpbiyWMnhkcG2Dt89nwYd+7cZRPIzKxMREbextmzZ3H06FEcIPj79mH7jp2j8OMWM+sR6YYmVSLV0JZmtupYP+7xeftxv4+usyW9f9h/U+iaLLqYmc7Tp/Pzqd1AAzD5P+V+6u9Q3qcdoFAkIuTkDsiu/gm92vN44EhBrz0VfU0ZuKO5DKOcvJ4+fP5tp468zZbmgj75jTI7fZSqNs4bOsUsaBN92AfHm6sOoc0eh3s91Xj6uAMjI09fefcjQ8DzF8/w7b0eNDQ0obKyGomJCQgLC8OpU6dw+PBh7N9/ADt27oIqajscmauhJ6XH0Vlnboskon9Dqo+Zh5rbPqgrOIyBe+53kXpfzfOXyy4FpR1AR4DYAbS4QgMwtZfFDqD0k5SajCvXTiLm6gzYC1aiqXQXnKVHYC8+DH3ySugVdBNr2gGj8N3tg05uIgsxKb6Rbvk7H0YFnVwbwE4zNMi9oZNsRCOfA13iNzDlroOz5hi6HEo86DXgxbM+4DXhmRDwwW6Y/ZuRwWE8ffIEPT197NoxWpGj8Ss0NBQnTpzAoUOHsXPnbiREb4eDbIfaxHFL2LIgrU7x5cGFLFZqo75B7W0fOIpP4ulAi9vOpiH2A+GLC6DHHwG0A6jnQ0cAdTkLWQTNQ0pmKhKUF1GatQ81mWuhTwuCIdELOpUPU+v4D6Uk4KxUc6FX+UOb4AM9DZDyeTDLvGGMnwV9/GxoFV7QpAbCVLAFDdqz6GpKwcM+PV4+o8z80vVm3+dt0gXedJkrXXNGoYLslIJEVFQUzp8/j2PHjmP37r1IjN4Oe9ZamGKDoBsHnyZR+ph5qIqZj4bKELx8yj/17X1eh+vFj3vALv8XO4CuwxUWJBZZqP2g1xvYUVBZXoai4hLkFZUhI7cAWdmJKMkOQ3XOMeiylsGSPI9ZBb8Imquc+TZ9IrOCBkn6KOxZ0MpmQqv0hT41EJbCLWjWXkV3cxYe3Dfj5eAEOXmEJitsykLTlnFv4fVfiqvr6X3RUU2RmtIc2ejNmzcREnIGe/cdQELUdtRnrIYhOhDaWDoHh052XcBKGzUXlTHfoEFzE0ODfeyPUaJ591fx+tfngk87QNxnQewAGoT5PIDOcKBz9Y0w6szQaHSorq1GRWUVSsqqUFxWhtvXFkGf5AP66GuTIgBGuT8Mch/o4ufwREKfQ562EvUlB9BquYGejgIMPHRgcOjeK6+OucrIIEYwxGyEzRLZk4PMWF75gdc8QfDpP7rKni55pWvPKNFRlKZZ+5WrV3Hk6HEkxtCdAtdAz+BLfh+zENqo+aiK+QYt+lsYHHzo+is8y7u+/OAHrhtfEHxxBIgxgA5XukqRdgIturS00FXnzWxOQG+CBmazxYq6unrEhi2DWjkNarkv1IoZ0CT4wZixBvaS/eiwRKC/sxyPHrZicOTRB7/YD/1B2gkkLLrWmI5oOiWSgkR0dAxCzpxFSvxO2NLWsQUSWh6kBpkhci600YFoM0VhaOQRmzx96N9/3c8x+PRNdli73QSDdgDdZYTf1oXvBHbx3N3eMfdeaG/vQFdHO7IT90OdvQiO8v1oMcWgt7UYA/2NeP7y8SthjAuSVPkxDt7XvbWxz9P7o/dE95CgSE1jWWpqGq6FXUemah/qUlZDGx0Ebcxi6G7TR3gHoqtewcDT8fZdvFIXfLED3I8A93syiB0hLpqmo4LeCHnp3f4+9NztQH+fEwMP+vHoyXM8fT6IF89HMDhE1jHIE8rIMEZGhjDCtt/F2xkLfPxX9N7ofdDRTItI5eUVUKoSkZ96GNbkVdBFBUEb+Q3U8UvRaU/E86HHGKTgNEIpimzwDS3K8X/sHb4eA5/+vfsR4L4jyDfFziAFiTuT0JHx+PEjPH76BI+fPpPAP8PLwRcYHh7EyPD4F/zh0ewd3s9r/4l4X8L/aU5jsVhZgCjPPwNz8jLUhvtCI1uNO/WZePL0AV4OklhodCWhfPzX/Vr4YkfQDnB/4eIWMWJLO4TVC2n78iXzV77j+L18XkvEg98Q74G2JBw6cjs7u2C21MFYGgadbD5qlMvR7sxhN2968hSgiZr4ue/ipb4Cf6I/Il6A+1YcFa/b0u+hfz/Z/qPXRMIh+3nw8CHudPXAWn0Dutyd6HCU4O69e7j/5CkGmdF/t6//g+ALoO47w/2x+/fF48m2FTuAbLOnw4TeHgsePLiPgUfPwe6YOMznFt/l634n+O/yAiajyt/0uumIpR1Alvn8xRCv5y8wOPiSRW4hpjf9jr/1ex8N/t/6Qr6vnxe2KcYwT0AX7/X/A8JfMGsXjSkNAAAAAElFTkSuQmCC;" vertex="1" parent="1">
          <mxGeometry x="230" y="450" width="75" height="92.37" as="geometry" />
        </mxCell>
        <mxCell id="RLmKsljwDSlcrX09kRqv-15" value="&lt;b&gt;&lt;font face=&quot;Georgia&quot;&gt;ARCHIVOS DE DATOS PRIMARIOS .mdf&lt;/font&gt;&lt;/b&gt;" style="text;html=1;strokeColor=none;fillColor=none;align=center;verticalAlign=middle;whiteSpace=wrap;rounded=0;" vertex="1" parent="1">
          <mxGeometry x="187.5" y="550" width="160" height="20" as="geometry" />
        </mxCell>
        <mxCell id="RLmKsljwDSlcrX09kRqv-16" value="&lt;b&gt;&lt;font face=&quot;Georgia&quot;&gt;ARCHIVOS DE DATOS SECUNDARIOS .ndf&lt;/font&gt;&lt;/b&gt;" style="text;html=1;strokeColor=none;fillColor=none;align=center;verticalAlign=middle;whiteSpace=wrap;rounded=0;" vertex="1" parent="1">
          <mxGeometry x="191.25" y="585" width="152.5" height="20" as="geometry" />
        </mxCell>
        <mxCell id="RLmKsljwDSlcrX09kRqv-18" value="" style="shape=image;verticalLabelPosition=bottom;labelBackgroundColor=#ffffff;verticalAlign=top;aspect=fixed;imageAspect=0;image=data:image/png,iVBORw0KGgoAAAANSUhEUgAAAGgAAACBCAYAAAAsV//rAAAFoUlEQVR4Ae2duUsrURSH4xJU3HewFSK21oKohQEr972zsbPwH7BJjFoIYu1S+5fYWgmCOyLuikt3HifvjWSSic4ckzM3b34DF5LJnDk33zfnzgoTIkxGEwgZ3Tt0jiDI8I0AgiDIcAKGdw8VBEGGEzC8e6igQhd0f39PCwsLFAqF/otWWlpKw8PD9PHxYbiav937sYL+N0G8oVmS3t/fjZcUSEGWpKGhIeMrSSSoqKiIwuFwQTXuc/owzZU0MjJCr6+vxlaSSFBHRwdtbW3R2tqa8W19fZ2Wl5epqakpQ5BVSbxPMlWSSFA0GjV2i3Pq2OPjI/FGlV5B1neupNHRUXp+fnYK93WeSNDAwICvnfaa/O7ujiKRiE1Q+pBXUlJCY2NjxkkKpCCWwUNeXV2dTZoliSvOlCmQgsrKypIHB5ubm1ReXm6TVFxcTOPj4/Tw8GCEo0AK4n3O7OxsUkAsFqOKigpHSTw0+j0FVtD09HSS/cvLC8XjcUdJU1NTdHt766ujwAti+ixpZWWFqqqqbJXEBxKTk5N0c3PjmyQI+oeeD7GdJPE+iavt+vraF0kQlIKdJSUSCaqurrZVEp8v8XDnhyQIShHEH5+enpL7pJqaGpskHu5mZmbo6uoqLSK/XyHIga813NXW1tokcSXxcHd5eekQlZ9ZEJSFK5+s8iF4+sksS+JD9IuLiyyRuZ0NQd/w5OGODxzq6+szKomHOw1JEPSNIP7JktTY2JghiSvp/Pz8hzX87mcIcsHPOnBoaGjIkDQ3N0dnZ2cu1iJbBIJccrMqyem+EldSviRBkEtBvJhVSU6SuJJOT089rM3dohDkjtPXUlYlNTc3Zwx3XEm5lgRBX+jdf7AktbS05F0SBLn3YlvSuiyUb0kQZMPu7YtVSa2trRmVxFccTk5OvK3QYWkIcoDiZRbfquALrE6VxJJ+u0+CIC82sizLw93q6io5VRJfBf+NJAjKAt3rbK6kbJImJibEkgIriK+l5XriB/L5QZS2traMfRJLkpzMBlbQ4OAgHR8f0+HhYc7a0dERHRwc0Pz8fMbtc74Kzs/deZUUSEF8841PNHt6eqi7uzunra+vj7q6uqiysjKjilgSP8HKG4bbKZCCGJSfjZ8Xf3t7c+UIgnyQtbi4SG6fXg2EIH62zek8xa8qWlpaSl54dVNCgRD0+flJ+/v7tL29TTs7O2ptd3eX9vb2qLOz0zakQpCbTVNxmf7+fghS5O05VW9vLwR5pqYYAEGKsCWpIEhCTTEGghRhS1JBkISaYgwEKcKWpIIgCTXFGAhShC1JBUESaooxEKQIW5IKgiTUFGMgSBG2JBUESagpxkCQImxJKgiSUFOMgSBF2JJUECShphgDQYqwJakgSEJNMQaCFGFLUkGQhJpiDAQpwpakgiAJNcUYCFKELUkFQRJqijEQpAhbkgqCJNQUYyBIEbYkFQRJqCnGQJAibEkqCJJQU4yBIEXYklQQJKGmGANBirAlqSBIQk0xBoIUYUtSQZCEmmIMBCnClqSCIAk1xRgIUoQtSQVBEmqKMRCkCFuSCoIk1BRjIEgRtiQVBEmoKcZAkCJsSSoIklBTjIEgRdiSVBAkoaYYA0GKsCWpIEhCTTEGghRhS1JBkISaYgwEKcKWpIIgCTXFGAhShC1JBUESaooxEKQIW5IKgiTUFGMgSBG2JBUESagpxkCQImxJKgiSUFOMgSBF2JJUECShphgDQYqwJakgSEJNMUZdUDQaVfx7hZ+K306c+krQvL8FMhKJ0MbGBsViMbRvGMTjcUokEtTe3q4riN+FHQ6H0VwyYF6qFZSaDJ+9vxc870McpHiXksoMgnx4gXqqgJ8+51RQ4R9DFfY/+PFl64X99wq/9xBkuEMIgiDDCRjePVQQBBlOwPDuoYIgyHAChncPFWS4oD//IsZCltoSJAAAAABJRU5ErkJggg==;" vertex="1" parent="1">
          <mxGeometry x="50" y="700" width="74" height="91.79" as="geometry" />
        </mxCell>
        <mxCell id="RLmKsljwDSlcrX09kRqv-19" value="" style="shape=image;verticalLabelPosition=bottom;labelBackgroundColor=#ffffff;verticalAlign=top;aspect=fixed;imageAspect=0;image=data:image/png,iVBORw0KGgoAAAANSUhEUgAAAGgAAACBCAYAAAAsV//rAAAFoUlEQVR4Ae2duUsrURSH4xJU3HewFSK21oKohQEr972zsbPwH7BJjFoIYu1S+5fYWgmCOyLuikt3HifvjWSSic4ckzM3b34DF5LJnDk33zfnzgoTIkxGEwgZ3Tt0jiDI8I0AgiDIcAKGdw8VBEGGEzC8e6igQhd0f39PCwsLFAqF/otWWlpKw8PD9PHxYbiav937sYL+N0G8oVmS3t/fjZcUSEGWpKGhIeMrSSSoqKiIwuFwQTXuc/owzZU0MjJCr6+vxlaSSFBHRwdtbW3R2tqa8W19fZ2Wl5epqakpQ5BVSbxPMlWSSFA0GjV2i3Pq2OPjI/FGlV5B1neupNHRUXp+fnYK93WeSNDAwICvnfaa/O7ujiKRiE1Q+pBXUlJCY2NjxkkKpCCWwUNeXV2dTZoliSvOlCmQgsrKypIHB5ubm1ReXm6TVFxcTOPj4/Tw8GCEo0AK4n3O7OxsUkAsFqOKigpHSTw0+j0FVtD09HSS/cvLC8XjcUdJU1NTdHt766ujwAti+ixpZWWFqqqqbJXEBxKTk5N0c3PjmyQI+oeeD7GdJPE+iavt+vraF0kQlIKdJSUSCaqurrZVEp8v8XDnhyQIShHEH5+enpL7pJqaGpskHu5mZmbo6uoqLSK/XyHIga813NXW1tokcSXxcHd5eekQlZ9ZEJSFK5+s8iF4+sksS+JD9IuLiyyRuZ0NQd/w5OGODxzq6+szKomHOw1JEPSNIP7JktTY2JghiSvp/Pz8hzX87mcIcsHPOnBoaGjIkDQ3N0dnZ2cu1iJbBIJccrMqyem+EldSviRBkEtBvJhVSU6SuJJOT089rM3dohDkjtPXUlYlNTc3Zwx3XEm5lgRBX+jdf7AktbS05F0SBLn3YlvSuiyUb0kQZMPu7YtVSa2trRmVxFccTk5OvK3QYWkIcoDiZRbfquALrE6VxJJ+u0+CIC82sizLw93q6io5VRJfBf+NJAjKAt3rbK6kbJImJibEkgIriK+l5XriB/L5QZS2traMfRJLkpzMBlbQ4OAgHR8f0+HhYc7a0dERHRwc0Pz8fMbtc74Kzs/deZUUSEF8841PNHt6eqi7uzunra+vj7q6uqiysjKjilgSP8HKG4bbKZCCGJSfjZ8Xf3t7c+UIgnyQtbi4SG6fXg2EIH62zek8xa8qWlpaSl54dVNCgRD0+flJ+/v7tL29TTs7O2ptd3eX9vb2qLOz0zakQpCbTVNxmf7+fghS5O05VW9vLwR5pqYYAEGKsCWpIEhCTTEGghRhS1JBkISaYgwEKcKWpIIgCTXFGAhShC1JBUESaooxEKQIW5IKgiTUFGMgSBG2JBUESagpxkCQImxJKgiSUFOMgSBF2JJUECShphgDQYqwJakgSEJNMQaCFGFLUkGQhJpiDAQpwpakgiAJNcUYCFKELUkFQRJqijEQpAhbkgqCJNQUYyBIEbYkFQRJqCnGQJAibEkqCJJQU4yBIEXYklQQJKGmGANBirAlqSBIQk0xBoIUYUtSQZCEmmIMBCnClqSCIAk1xRgIUoQtSQVBEmqKMRCkCFuSCoIk1BRjIEgRtiQVBEmoKcZAkCJsSSoIklBTjIEgRdiSVBAkoaYYA0GKsCWpIEhCTTEGghRhS1JBkISaYgwEKcKWpIIgCTXFGAhShC1JBUESaooxEKQIW5IKgiTUFGMgSBG2JBUESagpxkCQImxJKgiSUFOMgSBF2JJUECShphgDQYqwJakgSEJNMUZdUDQaVfx7hZ+K306c+krQvL8FMhKJ0MbGBsViMbRvGMTjcUokEtTe3q4riN+FHQ6H0VwyYF6qFZSaDJ+9vxc870McpHiXksoMgnx4gXqqgJ8+51RQ4R9DFfY/+PFl64X99wq/9xBkuEMIgiDDCRjePVQQBBlOwPDuoYIgyHAChncPFWS4oD//IsZCltoSJAAAAABJRU5ErkJggg==;" vertex="1" parent="1">
          <mxGeometry x="130" y="700" width="74" height="91.79" as="geometry" />
        </mxCell>
        <mxCell id="RLmKsljwDSlcrX09kRqv-20" value="" style="shape=image;verticalLabelPosition=bottom;labelBackgroundColor=#ffffff;verticalAlign=top;aspect=fixed;imageAspect=0;image=data:image/png,iVBORw0KGgoAAAANSUhEUgAAAGgAAACBCAYAAAAsV//rAAAFoUlEQVR4Ae2duUsrURSH4xJU3HewFSK21oKohQEr972zsbPwH7BJjFoIYu1S+5fYWgmCOyLuikt3HifvjWSSic4ckzM3b34DF5LJnDk33zfnzgoTIkxGEwgZ3Tt0jiDI8I0AgiDIcAKGdw8VBEGGEzC8e6igQhd0f39PCwsLFAqF/otWWlpKw8PD9PHxYbiav937sYL+N0G8oVmS3t/fjZcUSEGWpKGhIeMrSSSoqKiIwuFwQTXuc/owzZU0MjJCr6+vxlaSSFBHRwdtbW3R2tqa8W19fZ2Wl5epqakpQ5BVSbxPMlWSSFA0GjV2i3Pq2OPjI/FGlV5B1neupNHRUXp+fnYK93WeSNDAwICvnfaa/O7ujiKRiE1Q+pBXUlJCY2NjxkkKpCCWwUNeXV2dTZoliSvOlCmQgsrKypIHB5ubm1ReXm6TVFxcTOPj4/Tw8GCEo0AK4n3O7OxsUkAsFqOKigpHSTw0+j0FVtD09HSS/cvLC8XjcUdJU1NTdHt766ujwAti+ixpZWWFqqqqbJXEBxKTk5N0c3PjmyQI+oeeD7GdJPE+iavt+vraF0kQlIKdJSUSCaqurrZVEp8v8XDnhyQIShHEH5+enpL7pJqaGpskHu5mZmbo6uoqLSK/XyHIga813NXW1tokcSXxcHd5eekQlZ9ZEJSFK5+s8iF4+sksS+JD9IuLiyyRuZ0NQd/w5OGODxzq6+szKomHOw1JEPSNIP7JktTY2JghiSvp/Pz8hzX87mcIcsHPOnBoaGjIkDQ3N0dnZ2cu1iJbBIJccrMqyem+EldSviRBkEtBvJhVSU6SuJJOT089rM3dohDkjtPXUlYlNTc3Zwx3XEm5lgRBX+jdf7AktbS05F0SBLn3YlvSuiyUb0kQZMPu7YtVSa2trRmVxFccTk5OvK3QYWkIcoDiZRbfquALrE6VxJJ+u0+CIC82sizLw93q6io5VRJfBf+NJAjKAt3rbK6kbJImJibEkgIriK+l5XriB/L5QZS2traMfRJLkpzMBlbQ4OAgHR8f0+HhYc7a0dERHRwc0Pz8fMbtc74Kzs/deZUUSEF8841PNHt6eqi7uzunra+vj7q6uqiysjKjilgSP8HKG4bbKZCCGJSfjZ8Xf3t7c+UIgnyQtbi4SG6fXg2EIH62zek8xa8qWlpaSl54dVNCgRD0+flJ+/v7tL29TTs7O2ptd3eX9vb2qLOz0zakQpCbTVNxmf7+fghS5O05VW9vLwR5pqYYAEGKsCWpIEhCTTEGghRhS1JBkISaYgwEKcKWpIIgCTXFGAhShC1JBUESaooxEKQIW5IKgiTUFGMgSBG2JBUESagpxkCQImxJKgiSUFOMgSBF2JJUECShphgDQYqwJakgSEJNMQaCFGFLUkGQhJpiDAQpwpakgiAJNcUYCFKELUkFQRJqijEQpAhbkgqCJNQUYyBIEbYkFQRJqCnGQJAibEkqCJJQU4yBIEXYklQQJKGmGANBirAlqSBIQk0xBoIUYUtSQZCEmmIMBCnClqSCIAk1xRgIUoQtSQVBEmqKMRCkCFuSCoIk1BRjIEgRtiQVBEmoKcZAkCJsSSoIklBTjIEgRdiSVBAkoaYYA0GKsCWpIEhCTTEGghRhS1JBkISaYgwEKcKWpIIgCTXFGAhShC1JBUESaooxEKQIW5IKgiTUFGMgSBG2JBUESagpxkCQImxJKgiSUFOMgSBF2JJUECShphgDQYqwJakgSEJNMUZdUDQaVfx7hZ+K306c+krQvL8FMhKJ0MbGBsViMbRvGMTjcUokEtTe3q4riN+FHQ6H0VwyYF6qFZSaDJ+9vxc870McpHiXksoMgnx4gXqqgJ8+51RQ4R9DFfY/+PFl64X99wq/9xBkuEMIgiDDCRjePVQQBBlOwPDuoYIgyHAChncPFWS4oD//IsZCltoSJAAAAABJRU5ErkJggg==;" vertex="1" parent="1">
          <mxGeometry x="219.13" y="710" width="96.75" height="120" as="geometry" />
        </mxCell>
        <mxCell id="RLmKsljwDSlcrX09kRqv-21" value="" style="shape=image;verticalLabelPosition=bottom;labelBackgroundColor=#ffffff;verticalAlign=top;aspect=fixed;imageAspect=0;image=data:image/png,iVBORw0KGgoAAAANSUhEUgAAAGgAAACBCAYAAAAsV//rAAAFoUlEQVR4Ae2duUsrURSH4xJU3HewFSK21oKohQEr972zsbPwH7BJjFoIYu1S+5fYWgmCOyLuikt3HifvjWSSic4ckzM3b34DF5LJnDk33zfnzgoTIkxGEwgZ3Tt0jiDI8I0AgiDIcAKGdw8VBEGGEzC8e6igQhd0f39PCwsLFAqF/otWWlpKw8PD9PHxYbiav937sYL+N0G8oVmS3t/fjZcUSEGWpKGhIeMrSSSoqKiIwuFwQTXuc/owzZU0MjJCr6+vxlaSSFBHRwdtbW3R2tqa8W19fZ2Wl5epqakpQ5BVSbxPMlWSSFA0GjV2i3Pq2OPjI/FGlV5B1neupNHRUXp+fnYK93WeSNDAwICvnfaa/O7ujiKRiE1Q+pBXUlJCY2NjxkkKpCCWwUNeXV2dTZoliSvOlCmQgsrKypIHB5ubm1ReXm6TVFxcTOPj4/Tw8GCEo0AK4n3O7OxsUkAsFqOKigpHSTw0+j0FVtD09HSS/cvLC8XjcUdJU1NTdHt766ujwAti+ixpZWWFqqqqbJXEBxKTk5N0c3PjmyQI+oeeD7GdJPE+iavt+vraF0kQlIKdJSUSCaqurrZVEp8v8XDnhyQIShHEH5+enpL7pJqaGpskHu5mZmbo6uoqLSK/XyHIga813NXW1tokcSXxcHd5eekQlZ9ZEJSFK5+s8iF4+sksS+JD9IuLiyyRuZ0NQd/w5OGODxzq6+szKomHOw1JEPSNIP7JktTY2JghiSvp/Pz8hzX87mcIcsHPOnBoaGjIkDQ3N0dnZ2cu1iJbBIJccrMqyem+EldSviRBkEtBvJhVSU6SuJJOT089rM3dohDkjtPXUlYlNTc3Zwx3XEm5lgRBX+jdf7AktbS05F0SBLn3YlvSuiyUb0kQZMPu7YtVSa2trRmVxFccTk5OvK3QYWkIcoDiZRbfquALrE6VxJJ+u0+CIC82sizLw93q6io5VRJfBf+NJAjKAt3rbK6kbJImJibEkgIriK+l5XriB/L5QZS2traMfRJLkpzMBlbQ4OAgHR8f0+HhYc7a0dERHRwc0Pz8fMbtc74Kzs/deZUUSEF8841PNHt6eqi7uzunra+vj7q6uqiysjKjilgSP8HKG4bbKZCCGJSfjZ8Xf3t7c+UIgnyQtbi4SG6fXg2EIH62zek8xa8qWlpaSl54dVNCgRD0+flJ+/v7tL29TTs7O2ptd3eX9vb2qLOz0zakQpCbTVNxmf7+fghS5O05VW9vLwR5pqYYAEGKsCWpIEhCTTEGghRhS1JBkISaYgwEKcKWpIIgCTXFGAhShC1JBUESaooxEKQIW5IKgiTUFGMgSBG2JBUESagpxkCQImxJKgiSUFOMgSBF2JJUECShphgDQYqwJakgSEJNMQaCFGFLUkGQhJpiDAQpwpakgiAJNcUYCFKELUkFQRJqijEQpAhbkgqCJNQUYyBIEbYkFQRJqCnGQJAibEkqCJJQU4yBIEXYklQQJKGmGANBirAlqSBIQk0xBoIUYUtSQZCEmmIMBCnClqSCIAk1xRgIUoQtSQVBEmqKMRCkCFuSCoIk1BRjIEgRtiQVBEmoKcZAkCJsSSoIklBTjIEgRdiSVBAkoaYYA0GKsCWpIEhCTTEGghRhS1JBkISaYgwEKcKWpIIgCTXFGAhShC1JBUESaooxEKQIW5IKgiTUFGMgSBG2JBUESagpxkCQImxJKgiSUFOMgSBF2JJUECShphgDQYqwJakgSEJNMUZdUDQaVfx7hZ+K306c+krQvL8FMhKJ0MbGBsViMbRvGMTjcUokEtTe3q4riN+FHQ6H0VwyYF6qFZSaDJ+9vxc870McpHiXksoMgnx4gXqqgJ8+51RQ4R9DFfY/+PFl64X99wq/9xBkuEMIgiDDCRjePVQQBBlOwPDuoYIgyHAChncPFWS4oD//IsZCltoSJAAAAABJRU5ErkJggg==;" vertex="1" parent="1">
          <mxGeometry x="330" y="700" width="74" height="91.79" as="geometry" />
        </mxCell>
        <mxCell id="RLmKsljwDSlcrX09kRqv-22" value="" style="shape=image;verticalLabelPosition=bottom;labelBackgroundColor=#ffffff;verticalAlign=top;aspect=fixed;imageAspect=0;image=data:image/png,iVBORw0KGgoAAAANSUhEUgAAAGgAAACBCAYAAAAsV//rAAAFoUlEQVR4Ae2duUsrURSH4xJU3HewFSK21oKohQEr972zsbPwH7BJjFoIYu1S+5fYWgmCOyLuikt3HifvjWSSic4ckzM3b34DF5LJnDk33zfnzgoTIkxGEwgZ3Tt0jiDI8I0AgiDIcAKGdw8VBEGGEzC8e6igQhd0f39PCwsLFAqF/otWWlpKw8PD9PHxYbiav937sYL+N0G8oVmS3t/fjZcUSEGWpKGhIeMrSSSoqKiIwuFwQTXuc/owzZU0MjJCr6+vxlaSSFBHRwdtbW3R2tqa8W19fZ2Wl5epqakpQ5BVSbxPMlWSSFA0GjV2i3Pq2OPjI/FGlV5B1neupNHRUXp+fnYK93WeSNDAwICvnfaa/O7ujiKRiE1Q+pBXUlJCY2NjxkkKpCCWwUNeXV2dTZoliSvOlCmQgsrKypIHB5ubm1ReXm6TVFxcTOPj4/Tw8GCEo0AK4n3O7OxsUkAsFqOKigpHSTw0+j0FVtD09HSS/cvLC8XjcUdJU1NTdHt766ujwAti+ixpZWWFqqqqbJXEBxKTk5N0c3PjmyQI+oeeD7GdJPE+iavt+vraF0kQlIKdJSUSCaqurrZVEp8v8XDnhyQIShHEH5+enpL7pJqaGpskHu5mZmbo6uoqLSK/XyHIga813NXW1tokcSXxcHd5eekQlZ9ZEJSFK5+s8iF4+sksS+JD9IuLiyyRuZ0NQd/w5OGODxzq6+szKomHOw1JEPSNIP7JktTY2JghiSvp/Pz8hzX87mcIcsHPOnBoaGjIkDQ3N0dnZ2cu1iJbBIJccrMqyem+EldSviRBkEtBvJhVSU6SuJJOT089rM3dohDkjtPXUlYlNTc3Zwx3XEm5lgRBX+jdf7AktbS05F0SBLn3YlvSuiyUb0kQZMPu7YtVSa2trRmVxFccTk5OvK3QYWkIcoDiZRbfquALrE6VxJJ+u0+CIC82sizLw93q6io5VRJfBf+NJAjKAt3rbK6kbJImJibEkgIriK+l5XriB/L5QZS2traMfRJLkpzMBlbQ4OAgHR8f0+HhYc7a0dERHRwc0Pz8fMbtc74Kzs/deZUUSEF8841PNHt6eqi7uzunra+vj7q6uqiysjKjilgSP8HKG4bbKZCCGJSfjZ8Xf3t7c+UIgnyQtbi4SG6fXg2EIH62zek8xa8qWlpaSl54dVNCgRD0+flJ+/v7tL29TTs7O2ptd3eX9vb2qLOz0zakQpCbTVNxmf7+fghS5O05VW9vLwR5pqYYAEGKsCWpIEhCTTEGghRhS1JBkISaYgwEKcKWpIIgCTXFGAhShC1JBUESaooxEKQIW5IKgiTUFGMgSBG2JBUESagpxkCQImxJKgiSUFOMgSBF2JJUECShphgDQYqwJakgSEJNMQaCFGFLUkGQhJpiDAQpwpakgiAJNcUYCFKELUkFQRJqijEQpAhbkgqCJNQUYyBIEbYkFQRJqCnGQJAibEkqCJJQU4yBIEXYklQQJKGmGANBirAlqSBIQk0xBoIUYUtSQZCEmmIMBCnClqSCIAk1xRgIUoQtSQVBEmqKMRCkCFuSCoIk1BRjIEgRtiQVBEmoKcZAkCJsSSoIklBTjIEgRdiSVBAkoaYYA0GKsCWpIEhCTTEGghRhS1JBkISaYgwEKcKWpIIgCTXFGAhShC1JBUESaooxEKQIW5IKgiTUFGMgSBG2JBUESagpxkCQImxJKgiSUFOMgSBF2JJUECShphgDQYqwJakgSEJNMUZdUDQaVfx7hZ+K306c+krQvL8FMhKJ0MbGBsViMbRvGMTjcUokEtTe3q4riN+FHQ6H0VwyYF6qFZSaDJ+9vxc870McpHiXksoMgnx4gXqqgJ8+51RQ4R9DFfY/+PFl64X99wq/9xBkuEMIgiDDCRjePVQQBBlOwPDuoYIgyHAChncPFWS4oD//IsZCltoSJAAAAABJRU5ErkJggg==;" vertex="1" parent="1">
          <mxGeometry x="414" y="700" width="74" height="91.79" as="geometry" />
        </mxCell>
        <mxCell id="RLmKsljwDSlcrX09kRqv-23" value="&lt;b&gt;&lt;font face=&quot;Georgia&quot;&gt;PÁGINAS 8KB&lt;/font&gt;&lt;/b&gt;" style="text;html=1;strokeColor=none;fillColor=none;align=center;verticalAlign=middle;whiteSpace=wrap;rounded=0;" vertex="1" parent="1">
          <mxGeometry x="212.5" y="690" width="110" height="20" as="geometry" />
        </mxCell>
        <mxCell id="RLmKsljwDSlcrX09kRqv-24" value="&lt;div style=&quot;text-align: justify&quot;&gt;&lt;span&gt;&lt;font face=&quot;Georgia&quot;&gt;&lt;b&gt;Los datos de tabla e índice se almacenan en páginas que se agrupan en extensiones. Las páginas de asignación especial realizan un seguimiento del uso de la página.&lt;/b&gt;&lt;/font&gt;&lt;/span&gt;&lt;/div&gt;" style="text;html=1;strokeColor=none;fillColor=none;align=center;verticalAlign=middle;whiteSpace=wrap;rounded=0;" vertex="1" parent="1">
          <mxGeometry x="380" y="630" width="200" height="50" as="geometry" />
        </mxCell>
      </root>
    </mxGraphModel>
  </diagram>
</mxfile>
